G04 #@! TF.FileFunction,Legend,Bot*
%FSLAX46Y46*%
G04 Gerber Fmt 4.6, Leading zero omitted, Abs format (unit mm)*
G04 Created by KiCad (PCBNEW 4.0.0-rc1-stable) date 2015/09/16 10:56:13*
%MOMM*%
G01*
G04 APERTURE LIST*
%ADD10C,0.100000*%
%ADD11C,0.150000*%
%ADD12R,1.524000X1.524000*%
%ADD13C,1.524000*%
%ADD14R,1.400000X1.400000*%
%ADD15C,1.400000*%
%ADD16R,1.300000X1.300000*%
%ADD17C,1.300000*%
%ADD18C,1.501140*%
%ADD19C,1.700000*%
%ADD20R,1.700000X1.700000*%
%ADD21C,3.000000*%
%ADD22C,2.540000*%
%ADD23R,2.540000X2.540000*%
%ADD24C,1.998980*%
%ADD25R,1.998980X1.998980*%
%ADD26R,3.600000X2.700000*%
%ADD27R,2.700000X3.600000*%
%ADD28R,1.800000X1.750000*%
%ADD29R,1.600000X0.600000*%
%ADD30O,1.699260X3.500120*%
%ADD31C,3.799840*%
%ADD32C,1.397000*%
%ADD33C,1.778000*%
%ADD34O,1.600000X1.600000*%
%ADD35C,1.000760*%
%ADD36C,2.000000*%
%ADD37R,2.000000X2.000000*%
%ADD38C,1.800000*%
%ADD39R,1.800000X1.800000*%
G04 APERTURE END LIST*
D10*
D11*
X1270000Y46355000D02*
X1270000Y64135000D01*
X67310000Y46355000D02*
X67310000Y64135000D01*
X1270000Y57785000D02*
X3810000Y57785000D01*
X3810000Y57785000D02*
X3810000Y52705000D01*
X3810000Y52705000D02*
X1270000Y52705000D01*
X67310000Y64135000D02*
X1270000Y64135000D01*
X1270000Y64135000D02*
X1270000Y66675000D01*
X1270000Y66675000D02*
X67310000Y66675000D01*
X67310000Y66675000D02*
X67310000Y64135000D01*
X67310000Y43815000D02*
X1270000Y43815000D01*
X1270000Y43815000D02*
X1270000Y46355000D01*
X1270000Y46355000D02*
X67310000Y46355000D01*
X67310000Y46355000D02*
X67310000Y43815000D01*
X770000Y45375000D02*
X6770000Y45375000D01*
X6770000Y49875000D02*
X770000Y49875000D01*
X17010000Y76545000D02*
X11010000Y76545000D01*
X11010000Y72045000D02*
X17010000Y72045000D01*
X32250000Y76545000D02*
X26250000Y76545000D01*
X26250000Y72045000D02*
X32250000Y72045000D01*
X61730000Y60615000D02*
X67730000Y60615000D01*
X67730000Y65115000D02*
X61730000Y65115000D01*
X44470000Y41525000D02*
X44470000Y38525000D01*
X46970000Y38525000D02*
X46970000Y41525000D01*
X37215000Y24785000D02*
X40215000Y24785000D01*
X40215000Y27285000D02*
X37215000Y27285000D01*
X41655000Y11445000D02*
X25655000Y11445000D01*
X41652000Y11585000D02*
X25658000Y11585000D01*
X41647000Y11725000D02*
X25663000Y11725000D01*
X41640000Y11865000D02*
X25670000Y11865000D01*
X41630000Y12005000D02*
X25680000Y12005000D01*
X41617000Y12145000D02*
X25693000Y12145000D01*
X41603000Y12285000D02*
X25707000Y12285000D01*
X41585000Y12425000D02*
X25725000Y12425000D01*
X41565000Y12565000D02*
X25745000Y12565000D01*
X41543000Y12705000D02*
X25767000Y12705000D01*
X41518000Y12845000D02*
X25792000Y12845000D01*
X41490000Y12985000D02*
X25820000Y12985000D01*
X41460000Y13125000D02*
X25850000Y13125000D01*
X41427000Y13265000D02*
X25883000Y13265000D01*
X41392000Y13405000D02*
X25918000Y13405000D01*
X41354000Y13545000D02*
X25956000Y13545000D01*
X41313000Y13685000D02*
X25997000Y13685000D01*
X41269000Y13825000D02*
X26041000Y13825000D01*
X41222000Y13965000D02*
X26088000Y13965000D01*
X41173000Y14105000D02*
X26137000Y14105000D01*
X41121000Y14245000D02*
X34139000Y14245000D01*
X33171000Y14245000D02*
X26189000Y14245000D01*
X41065000Y14385000D02*
X34333000Y14385000D01*
X32977000Y14385000D02*
X26245000Y14385000D01*
X41007000Y14525000D02*
X34459000Y14525000D01*
X32851000Y14525000D02*
X26303000Y14525000D01*
X40945000Y14665000D02*
X34545000Y14665000D01*
X32765000Y14665000D02*
X26365000Y14665000D01*
X40880000Y14805000D02*
X34604000Y14805000D01*
X32706000Y14805000D02*
X26430000Y14805000D01*
X40812000Y14945000D02*
X34640000Y14945000D01*
X32670000Y14945000D02*
X26498000Y14945000D01*
X40740000Y15085000D02*
X34654000Y15085000D01*
X32656000Y15085000D02*
X26570000Y15085000D01*
X40665000Y15225000D02*
X34649000Y15225000D01*
X32661000Y15225000D02*
X26645000Y15225000D01*
X40586000Y15365000D02*
X34625000Y15365000D01*
X32685000Y15365000D02*
X26724000Y15365000D01*
X40503000Y15505000D02*
X34578000Y15505000D01*
X32732000Y15505000D02*
X26807000Y15505000D01*
X40417000Y15645000D02*
X34506000Y15645000D01*
X32804000Y15645000D02*
X26893000Y15645000D01*
X40326000Y15785000D02*
X34402000Y15785000D01*
X32908000Y15785000D02*
X26984000Y15785000D01*
X40232000Y15925000D02*
X34248000Y15925000D01*
X33062000Y15925000D02*
X27078000Y15925000D01*
X40132000Y16065000D02*
X33982000Y16065000D01*
X33328000Y16065000D02*
X27178000Y16065000D01*
X40029000Y16205000D02*
X27281000Y16205000D01*
X39920000Y16345000D02*
X27390000Y16345000D01*
X39806000Y16485000D02*
X27504000Y16485000D01*
X39687000Y16625000D02*
X27623000Y16625000D01*
X39562000Y16765000D02*
X27748000Y16765000D01*
X39431000Y16905000D02*
X27879000Y16905000D01*
X39294000Y17045000D02*
X28016000Y17045000D01*
X39149000Y17185000D02*
X28161000Y17185000D01*
X38997000Y17325000D02*
X28313000Y17325000D01*
X38837000Y17465000D02*
X28473000Y17465000D01*
X38667000Y17605000D02*
X28643000Y17605000D01*
X38488000Y17745000D02*
X28822000Y17745000D01*
X38298000Y17885000D02*
X29012000Y17885000D01*
X38095000Y18025000D02*
X29215000Y18025000D01*
X37877000Y18165000D02*
X29433000Y18165000D01*
X37643000Y18305000D02*
X29667000Y18305000D01*
X37389000Y18445000D02*
X29921000Y18445000D01*
X37111000Y18585000D02*
X30199000Y18585000D01*
X36802000Y18725000D02*
X30508000Y18725000D01*
X36452000Y18865000D02*
X30858000Y18865000D01*
X36044000Y19005000D02*
X31266000Y19005000D01*
X35539000Y19145000D02*
X31771000Y19145000D01*
X34818000Y19285000D02*
X32492000Y19285000D01*
X34655000Y15120000D02*
G75*
G03X34655000Y15120000I-1000000J0D01*
G01*
X41692500Y11370000D02*
G75*
G03X41692500Y11370000I-8037500J0D01*
G01*
X22590760Y91234260D02*
X22090380Y91234260D01*
X22590760Y91234260D02*
X22590760Y91734640D01*
X23091140Y91234260D02*
X22590760Y91234260D01*
X22590760Y91234260D02*
X22590760Y90835480D01*
X22590760Y90835480D02*
X22590760Y90733880D01*
X24739600Y89535000D02*
G75*
G03X24739600Y89535000I-3149600J0D01*
G01*
X73560000Y8290000D02*
X61060000Y8290000D01*
X73556000Y8430000D02*
X61064000Y8430000D01*
X73550000Y8570000D02*
X61070000Y8570000D01*
X73540000Y8710000D02*
X61080000Y8710000D01*
X73528000Y8850000D02*
X61092000Y8850000D01*
X73512000Y8990000D02*
X61108000Y8990000D01*
X73493000Y9130000D02*
X61127000Y9130000D01*
X73470000Y9270000D02*
X61150000Y9270000D01*
X73445000Y9410000D02*
X61175000Y9410000D01*
X73416000Y9550000D02*
X61204000Y9550000D01*
X73383000Y9690000D02*
X67831000Y9690000D01*
X66789000Y9690000D02*
X61237000Y9690000D01*
X73348000Y9830000D02*
X68044000Y9830000D01*
X66576000Y9830000D02*
X61272000Y9830000D01*
X73309000Y9970000D02*
X68186000Y9970000D01*
X66434000Y9970000D02*
X61311000Y9970000D01*
X73266000Y10110000D02*
X68288000Y10110000D01*
X66332000Y10110000D02*
X61354000Y10110000D01*
X73219000Y10250000D02*
X68362000Y10250000D01*
X66258000Y10250000D02*
X61401000Y10250000D01*
X73169000Y10390000D02*
X68413000Y10390000D01*
X66207000Y10390000D02*
X61451000Y10390000D01*
X73115000Y10530000D02*
X68445000Y10530000D01*
X66175000Y10530000D02*
X61505000Y10530000D01*
X73058000Y10670000D02*
X68459000Y10670000D01*
X66161000Y10670000D02*
X61562000Y10670000D01*
X72996000Y10810000D02*
X68456000Y10810000D01*
X66164000Y10810000D02*
X61624000Y10810000D01*
X72930000Y10950000D02*
X68436000Y10950000D01*
X66184000Y10950000D02*
X61690000Y10950000D01*
X72859000Y11090000D02*
X68397000Y11090000D01*
X66223000Y11090000D02*
X61761000Y11090000D01*
X72785000Y11230000D02*
X68338000Y11230000D01*
X66282000Y11230000D02*
X61835000Y11230000D01*
X72705000Y11370000D02*
X68255000Y11370000D01*
X66365000Y11370000D02*
X61915000Y11370000D01*
X72621000Y11510000D02*
X68141000Y11510000D01*
X66479000Y11510000D02*
X61999000Y11510000D01*
X72531000Y11650000D02*
X67980000Y11650000D01*
X66640000Y11650000D02*
X62089000Y11650000D01*
X72437000Y11790000D02*
X67719000Y11790000D01*
X66901000Y11790000D02*
X62183000Y11790000D01*
X72336000Y11930000D02*
X62284000Y11930000D01*
X72229000Y12070000D02*
X62391000Y12070000D01*
X72117000Y12210000D02*
X62503000Y12210000D01*
X71997000Y12350000D02*
X62623000Y12350000D01*
X71869000Y12490000D02*
X62751000Y12490000D01*
X71734000Y12630000D02*
X62886000Y12630000D01*
X71590000Y12770000D02*
X63030000Y12770000D01*
X71435000Y12910000D02*
X63185000Y12910000D01*
X71270000Y13050000D02*
X63350000Y13050000D01*
X71093000Y13190000D02*
X63527000Y13190000D01*
X70902000Y13330000D02*
X63718000Y13330000D01*
X70693000Y13470000D02*
X63927000Y13470000D01*
X70465000Y13610000D02*
X64155000Y13610000D01*
X70213000Y13750000D02*
X64407000Y13750000D01*
X69929000Y13890000D02*
X64691000Y13890000D01*
X69601000Y14030000D02*
X65019000Y14030000D01*
X69207000Y14170000D02*
X65413000Y14170000D01*
X68693000Y14310000D02*
X65927000Y14310000D01*
X67743000Y14450000D02*
X66877000Y14450000D01*
X68460000Y10715000D02*
G75*
G03X68460000Y10715000I-1150000J0D01*
G01*
X73597500Y8215000D02*
G75*
G03X73597500Y8215000I-6287500J0D01*
G01*
X33385760Y29004260D02*
X32885380Y29004260D01*
X33385760Y29004260D02*
X33385760Y29504640D01*
X33886140Y29004260D02*
X33385760Y29004260D01*
X33385760Y29004260D02*
X33385760Y28605480D01*
X33385760Y28605480D02*
X33385760Y28503880D01*
X35534600Y27305000D02*
G75*
G03X35534600Y27305000I-3149600J0D01*
G01*
X9954260Y84724240D02*
X9954260Y85224620D01*
X9954260Y84724240D02*
X10454640Y84724240D01*
X9954260Y84223860D02*
X9954260Y84724240D01*
X9954260Y84724240D02*
X9555480Y84724240D01*
X9555480Y84724240D02*
X9453880Y84724240D01*
X11404600Y85725000D02*
G75*
G03X11404600Y85725000I-3149600J0D01*
G01*
X17930000Y19470000D02*
X16680000Y19470000D01*
X17940000Y20870000D02*
X16680000Y20870000D01*
X17930000Y19470000D02*
X17930000Y16960000D01*
X17940000Y20870000D02*
X17940000Y23380000D01*
X17940000Y20870000D02*
X21650000Y20870000D01*
X21650000Y20870000D02*
X21650000Y19470000D01*
X21650000Y19470000D02*
X17930000Y19470000D01*
X5780000Y30070000D02*
X-920000Y30070000D01*
X5780000Y10270000D02*
X-920000Y10270000D01*
X5780000Y11920000D02*
X5780000Y10270000D01*
X23090000Y11920000D02*
X23090000Y13620000D01*
X23090000Y26720000D02*
X23090000Y28420000D01*
X5780000Y28420000D02*
X5780000Y30070000D01*
X17940000Y15460000D02*
X17940000Y13620000D01*
X17780000Y13620000D02*
X23090000Y13620000D01*
X17780000Y13620000D02*
X16680000Y13620000D01*
X16680000Y20170000D02*
X16680000Y11920000D01*
X2580000Y11920000D02*
X23090000Y11920000D01*
X2580000Y11920000D02*
X-920000Y11920000D01*
X17780000Y15460000D02*
X17930000Y15460000D01*
X17780000Y23380000D02*
X17930000Y23380000D01*
X17930000Y16960000D02*
X17780000Y16960000D01*
X17780000Y24880000D02*
X17930000Y24880000D01*
X17930000Y24880000D02*
X17930000Y26720000D01*
X17780000Y15460000D02*
X17780000Y16960000D01*
X17780000Y23380000D02*
X17780000Y24880000D01*
X16680000Y20170000D02*
X16680000Y28420000D01*
X16680000Y26720000D02*
X23090000Y26720000D01*
X17780000Y28420000D02*
X23080000Y28420000D01*
X17780000Y28420000D02*
X-920000Y28420000D01*
X17780000Y15460000D02*
X16680000Y15460000D01*
X17780000Y16960000D02*
X16680000Y16960000D01*
X17780000Y23380000D02*
X16680000Y23380000D01*
X17780000Y24880000D02*
X16680000Y24880000D01*
X-920000Y30070000D02*
X-920000Y10270000D01*
X12571780Y8892960D02*
X11047780Y8892960D01*
X21715780Y8892960D02*
X23239780Y8892960D01*
X20699780Y11686960D02*
X20699780Y6098960D01*
X20953780Y11686960D02*
X20953780Y6098960D01*
X21207780Y11686960D02*
X21207780Y6098960D01*
X21715780Y6098960D02*
X21715780Y11686960D01*
X21715780Y11686960D02*
X12571780Y11686960D01*
X12571780Y11686960D02*
X12571780Y6098960D01*
X12571780Y6098960D02*
X21715780Y6098960D01*
X22988220Y3172040D02*
X24512220Y3172040D01*
X13844220Y3172040D02*
X12320220Y3172040D01*
X14860220Y378040D02*
X14860220Y5966040D01*
X14606220Y378040D02*
X14606220Y5966040D01*
X14352220Y378040D02*
X14352220Y5966040D01*
X13844220Y5966040D02*
X13844220Y378040D01*
X13844220Y378040D02*
X22988220Y378040D01*
X22988220Y378040D02*
X22988220Y5966040D01*
X22988220Y5966040D02*
X13844220Y5966040D01*
X24767960Y26481220D02*
X24767960Y28005220D01*
X24767960Y17337220D02*
X24767960Y15813220D01*
X27561960Y18353220D02*
X21973960Y18353220D01*
X27561960Y18099220D02*
X21973960Y18099220D01*
X27561960Y17845220D02*
X21973960Y17845220D01*
X21973960Y17337220D02*
X27561960Y17337220D01*
X27561960Y17337220D02*
X27561960Y26481220D01*
X27561960Y26481220D02*
X21973960Y26481220D01*
X21973960Y26481220D02*
X21973960Y17337220D01*
X18543220Y31112040D02*
X20067220Y31112040D01*
X9399220Y31112040D02*
X7875220Y31112040D01*
X10415220Y28318040D02*
X10415220Y33906040D01*
X10161220Y28318040D02*
X10161220Y33906040D01*
X9907220Y28318040D02*
X9907220Y33906040D01*
X9399220Y33906040D02*
X9399220Y28318040D01*
X9399220Y28318040D02*
X18543220Y28318040D01*
X18543220Y28318040D02*
X18543220Y33906040D01*
X18543220Y33906040D02*
X9399220Y33906040D01*
X32131000Y32385000D02*
X31369000Y31369000D01*
X32131000Y32385000D02*
X31369000Y33401000D01*
X32131000Y33401000D02*
X32131000Y31369000D01*
X31369000Y33401000D02*
X31369000Y31369000D01*
X12319000Y79375000D02*
X13081000Y80391000D01*
X12319000Y79375000D02*
X13081000Y78359000D01*
X12319000Y78359000D02*
X12319000Y80391000D01*
X13081000Y78359000D02*
X13081000Y80391000D01*
X68708220Y18412040D02*
X70232220Y18412040D01*
X59564220Y18412040D02*
X58040220Y18412040D01*
X60580220Y15618040D02*
X60580220Y21206040D01*
X60326220Y15618040D02*
X60326220Y21206040D01*
X60072220Y15618040D02*
X60072220Y21206040D01*
X59564220Y21206040D02*
X59564220Y15618040D01*
X59564220Y15618040D02*
X68708220Y15618040D01*
X68708220Y15618040D02*
X68708220Y21206040D01*
X68708220Y21206040D02*
X59564220Y21206040D01*
X28194000Y92075000D02*
X28956000Y93091000D01*
X28194000Y92075000D02*
X28956000Y91059000D01*
X28194000Y91059000D02*
X28194000Y93091000D01*
X28956000Y91059000D02*
X28956000Y93091000D01*
X51435000Y16637000D02*
X51435000Y9779000D01*
X51435000Y635000D02*
X51435000Y6731000D01*
X59436000Y6731000D02*
X59436000Y635000D01*
X59436000Y16637000D02*
X59436000Y9779000D01*
X51435000Y16637000D02*
X59436000Y16637000D01*
X59436000Y635000D02*
X51435000Y635000D01*
X90170000Y50165000D02*
G75*
G02X90170000Y56515000I3175000J3175000D01*
G01*
X96520000Y56515000D02*
G75*
G02X96520000Y50165000I-3175000J-3175000D01*
G01*
X98545000Y58540000D02*
X95445000Y58540000D01*
X98545000Y48140000D02*
X95445000Y48140000D01*
X88145000Y58540000D02*
X91245000Y58540000D01*
X88145000Y48140000D02*
X91245000Y48140000D01*
X98545000Y48140000D02*
X98545000Y58540000D01*
X88145000Y48140000D02*
X88145000Y58540000D01*
X90170000Y37465000D02*
G75*
G02X90170000Y43815000I3175000J3175000D01*
G01*
X96520000Y43815000D02*
G75*
G02X96520000Y37465000I-3175000J-3175000D01*
G01*
X98545000Y45840000D02*
X95445000Y45840000D01*
X98545000Y35440000D02*
X95445000Y35440000D01*
X88145000Y45840000D02*
X91245000Y45840000D01*
X88145000Y35440000D02*
X91245000Y35440000D01*
X98545000Y35440000D02*
X98545000Y45840000D01*
X88145000Y35440000D02*
X88145000Y45840000D01*
X90170000Y24765000D02*
G75*
G02X90170000Y31115000I3175000J3175000D01*
G01*
X96520000Y31115000D02*
G75*
G02X96520000Y24765000I-3175000J-3175000D01*
G01*
X98545000Y33140000D02*
X95445000Y33140000D01*
X98545000Y22740000D02*
X95445000Y22740000D01*
X88145000Y33140000D02*
X91245000Y33140000D01*
X88145000Y22740000D02*
X91245000Y22740000D01*
X98545000Y22740000D02*
X98545000Y33140000D01*
X88145000Y22740000D02*
X88145000Y33140000D01*
X90170000Y12065000D02*
G75*
G02X90170000Y18415000I3175000J3175000D01*
G01*
X96520000Y18415000D02*
G75*
G02X96520000Y12065000I-3175000J-3175000D01*
G01*
X98545000Y20440000D02*
X95445000Y20440000D01*
X98545000Y10040000D02*
X95445000Y10040000D01*
X88145000Y20440000D02*
X91245000Y20440000D01*
X88145000Y10040000D02*
X91245000Y10040000D01*
X98545000Y10040000D02*
X98545000Y20440000D01*
X88145000Y10040000D02*
X88145000Y20440000D01*
X77470000Y8890000D02*
G75*
G02X83820000Y8890000I3175000J-3175000D01*
G01*
X83820000Y2540000D02*
G75*
G02X77470000Y2540000I-3175000J3175000D01*
G01*
X85845000Y515000D02*
X85845000Y3615000D01*
X75445000Y515000D02*
X75445000Y3615000D01*
X85845000Y10915000D02*
X85845000Y7815000D01*
X75445000Y10915000D02*
X75445000Y7815000D01*
X75445000Y515000D02*
X85845000Y515000D01*
X75445000Y10915000D02*
X85845000Y10915000D01*
X77470000Y19685000D02*
G75*
G02X83820000Y19685000I3175000J-3175000D01*
G01*
X83820000Y13335000D02*
G75*
G02X77470000Y13335000I-3175000J3175000D01*
G01*
X85845000Y11310000D02*
X85845000Y14410000D01*
X75445000Y11310000D02*
X75445000Y14410000D01*
X85845000Y21710000D02*
X85845000Y18610000D01*
X75445000Y21710000D02*
X75445000Y18610000D01*
X75445000Y11310000D02*
X85845000Y11310000D01*
X75445000Y21710000D02*
X85845000Y21710000D01*
X77470000Y30480000D02*
G75*
G02X83820000Y30480000I3175000J-3175000D01*
G01*
X83820000Y24130000D02*
G75*
G02X77470000Y24130000I-3175000J3175000D01*
G01*
X85845000Y22105000D02*
X85845000Y25205000D01*
X75445000Y22105000D02*
X75445000Y25205000D01*
X85845000Y32505000D02*
X85845000Y29405000D01*
X75445000Y32505000D02*
X75445000Y29405000D01*
X75445000Y22105000D02*
X85845000Y22105000D01*
X75445000Y32505000D02*
X85845000Y32505000D01*
X64770000Y30480000D02*
G75*
G02X71120000Y30480000I3175000J-3175000D01*
G01*
X71120000Y24130000D02*
G75*
G02X64770000Y24130000I-3175000J3175000D01*
G01*
X73145000Y22105000D02*
X73145000Y25205000D01*
X62745000Y22105000D02*
X62745000Y25205000D01*
X73145000Y32505000D02*
X73145000Y29405000D01*
X62745000Y32505000D02*
X62745000Y29405000D01*
X62745000Y22105000D02*
X73145000Y22105000D01*
X62745000Y32505000D02*
X73145000Y32505000D01*
X77470000Y41275000D02*
G75*
G02X83820000Y41275000I3175000J-3175000D01*
G01*
X83820000Y34925000D02*
G75*
G02X77470000Y34925000I-3175000J3175000D01*
G01*
X85845000Y32900000D02*
X85845000Y36000000D01*
X75445000Y32900000D02*
X75445000Y36000000D01*
X85845000Y43300000D02*
X85845000Y40200000D01*
X75445000Y43300000D02*
X75445000Y40200000D01*
X75445000Y32900000D02*
X85845000Y32900000D01*
X75445000Y43300000D02*
X85845000Y43300000D01*
X64770000Y41275000D02*
G75*
G02X71120000Y41275000I3175000J-3175000D01*
G01*
X71120000Y34925000D02*
G75*
G02X64770000Y34925000I-3175000J3175000D01*
G01*
X73145000Y32900000D02*
X73145000Y36000000D01*
X62745000Y32900000D02*
X62745000Y36000000D01*
X73145000Y43300000D02*
X73145000Y40200000D01*
X62745000Y43300000D02*
X62745000Y40200000D01*
X62745000Y32900000D02*
X73145000Y32900000D01*
X62745000Y43300000D02*
X73145000Y43300000D01*
X71120000Y52387000D02*
G75*
G02X77470000Y52387000I3175000J-3175000D01*
G01*
X77470000Y46037000D02*
G75*
G02X71120000Y46037000I-3175000J3175000D01*
G01*
X79495000Y44012000D02*
X79495000Y47112000D01*
X69095000Y44012000D02*
X69095000Y47112000D01*
X79495000Y54412000D02*
X79495000Y51312000D01*
X69095000Y54412000D02*
X69095000Y51312000D01*
X69095000Y44012000D02*
X79495000Y44012000D01*
X69095000Y54412000D02*
X79495000Y54412000D01*
X71120000Y65087000D02*
G75*
G02X77470000Y65087000I3175000J-3175000D01*
G01*
X77470000Y58737000D02*
G75*
G02X71120000Y58737000I-3175000J3175000D01*
G01*
X79495000Y56712000D02*
X79495000Y59812000D01*
X69095000Y56712000D02*
X69095000Y59812000D01*
X79495000Y67112000D02*
X79495000Y64012000D01*
X69095000Y67112000D02*
X69095000Y64012000D01*
X69095000Y56712000D02*
X79495000Y56712000D01*
X69095000Y67112000D02*
X79495000Y67112000D01*
X77470000Y76200000D02*
G75*
G02X83820000Y76200000I3175000J-3175000D01*
G01*
X83820000Y69850000D02*
G75*
G02X77470000Y69850000I-3175000J3175000D01*
G01*
X85845000Y67825000D02*
X85845000Y70925000D01*
X75445000Y67825000D02*
X75445000Y70925000D01*
X85845000Y78225000D02*
X85845000Y75125000D01*
X75445000Y78225000D02*
X75445000Y75125000D01*
X75445000Y67825000D02*
X85845000Y67825000D01*
X75445000Y78225000D02*
X85845000Y78225000D01*
X64770000Y76200000D02*
G75*
G02X71120000Y76200000I3175000J-3175000D01*
G01*
X71120000Y69850000D02*
G75*
G02X64770000Y69850000I-3175000J3175000D01*
G01*
X73145000Y67825000D02*
X73145000Y70925000D01*
X62745000Y67825000D02*
X62745000Y70925000D01*
X73145000Y78225000D02*
X73145000Y75125000D01*
X62745000Y78225000D02*
X62745000Y75125000D01*
X62745000Y67825000D02*
X73145000Y67825000D01*
X62745000Y78225000D02*
X73145000Y78225000D01*
X52070000Y76200000D02*
G75*
G02X58420000Y76200000I3175000J-3175000D01*
G01*
X58420000Y69850000D02*
G75*
G02X52070000Y69850000I-3175000J3175000D01*
G01*
X60445000Y67825000D02*
X60445000Y70925000D01*
X50045000Y67825000D02*
X50045000Y70925000D01*
X60445000Y78225000D02*
X60445000Y75125000D01*
X50045000Y78225000D02*
X50045000Y75125000D01*
X50045000Y67825000D02*
X60445000Y67825000D01*
X50045000Y78225000D02*
X60445000Y78225000D01*
X39370000Y76200000D02*
G75*
G02X45720000Y76200000I3175000J-3175000D01*
G01*
X45720000Y69850000D02*
G75*
G02X39370000Y69850000I-3175000J3175000D01*
G01*
X47745000Y67825000D02*
X47745000Y70925000D01*
X37345000Y67825000D02*
X37345000Y70925000D01*
X47745000Y78225000D02*
X47745000Y75125000D01*
X37345000Y78225000D02*
X37345000Y75125000D01*
X37345000Y67825000D02*
X47745000Y67825000D01*
X37345000Y78225000D02*
X47745000Y78225000D01*
X39370000Y86995000D02*
G75*
G02X45720000Y86995000I3175000J-3175000D01*
G01*
X45720000Y80645000D02*
G75*
G02X39370000Y80645000I-3175000J3175000D01*
G01*
X47745000Y78620000D02*
X47745000Y81720000D01*
X37345000Y78620000D02*
X37345000Y81720000D01*
X47745000Y89020000D02*
X47745000Y85920000D01*
X37345000Y89020000D02*
X37345000Y85920000D01*
X37345000Y78620000D02*
X47745000Y78620000D01*
X37345000Y89020000D02*
X47745000Y89020000D01*
X52070000Y86995000D02*
G75*
G02X58420000Y86995000I3175000J-3175000D01*
G01*
X58420000Y80645000D02*
G75*
G02X52070000Y80645000I-3175000J3175000D01*
G01*
X60445000Y78620000D02*
X60445000Y81720000D01*
X50045000Y78620000D02*
X50045000Y81720000D01*
X60445000Y89020000D02*
X60445000Y85920000D01*
X50045000Y89020000D02*
X50045000Y85920000D01*
X50045000Y78620000D02*
X60445000Y78620000D01*
X50045000Y89020000D02*
X60445000Y89020000D01*
X64770000Y86995000D02*
G75*
G02X71120000Y86995000I3175000J-3175000D01*
G01*
X71120000Y80645000D02*
G75*
G02X64770000Y80645000I-3175000J3175000D01*
G01*
X73145000Y78620000D02*
X73145000Y81720000D01*
X62745000Y78620000D02*
X62745000Y81720000D01*
X73145000Y89020000D02*
X73145000Y85920000D01*
X62745000Y89020000D02*
X62745000Y85920000D01*
X62745000Y78620000D02*
X73145000Y78620000D01*
X62745000Y89020000D02*
X73145000Y89020000D01*
X77470000Y86995000D02*
G75*
G02X83820000Y86995000I3175000J-3175000D01*
G01*
X83820000Y80645000D02*
G75*
G02X77470000Y80645000I-3175000J3175000D01*
G01*
X85845000Y78620000D02*
X85845000Y81720000D01*
X75445000Y78620000D02*
X75445000Y81720000D01*
X85845000Y89020000D02*
X85845000Y85920000D01*
X75445000Y89020000D02*
X75445000Y85920000D01*
X75445000Y78620000D02*
X85845000Y78620000D01*
X75445000Y89020000D02*
X85845000Y89020000D01*
X39370000Y97790000D02*
G75*
G02X45720000Y97790000I3175000J-3175000D01*
G01*
X45720000Y91440000D02*
G75*
G02X39370000Y91440000I-3175000J3175000D01*
G01*
X47745000Y89415000D02*
X47745000Y92515000D01*
X37345000Y89415000D02*
X37345000Y92515000D01*
X47745000Y99815000D02*
X47745000Y96715000D01*
X37345000Y99815000D02*
X37345000Y96715000D01*
X37345000Y89415000D02*
X47745000Y89415000D01*
X37345000Y99815000D02*
X47745000Y99815000D01*
X52070000Y97790000D02*
G75*
G02X58420000Y97790000I3175000J-3175000D01*
G01*
X58420000Y91440000D02*
G75*
G02X52070000Y91440000I-3175000J3175000D01*
G01*
X60445000Y89415000D02*
X60445000Y92515000D01*
X50045000Y89415000D02*
X50045000Y92515000D01*
X60445000Y99815000D02*
X60445000Y96715000D01*
X50045000Y99815000D02*
X50045000Y96715000D01*
X50045000Y89415000D02*
X60445000Y89415000D01*
X50045000Y99815000D02*
X60445000Y99815000D01*
X64770000Y97790000D02*
G75*
G02X71120000Y97790000I3175000J-3175000D01*
G01*
X71120000Y91440000D02*
G75*
G02X64770000Y91440000I-3175000J3175000D01*
G01*
X73145000Y89415000D02*
X73145000Y92515000D01*
X62745000Y89415000D02*
X62745000Y92515000D01*
X73145000Y99815000D02*
X73145000Y96715000D01*
X62745000Y99815000D02*
X62745000Y96715000D01*
X62745000Y89415000D02*
X73145000Y89415000D01*
X62745000Y99815000D02*
X73145000Y99815000D01*
X77470000Y97790000D02*
G75*
G02X83820000Y97790000I3175000J-3175000D01*
G01*
X83820000Y91440000D02*
G75*
G02X77470000Y91440000I-3175000J3175000D01*
G01*
X85845000Y89415000D02*
X85845000Y92515000D01*
X75445000Y89415000D02*
X75445000Y92515000D01*
X85845000Y99815000D02*
X85845000Y96715000D01*
X75445000Y99815000D02*
X75445000Y96715000D01*
X75445000Y89415000D02*
X85845000Y89415000D01*
X75445000Y99815000D02*
X85845000Y99815000D01*
X90150000Y88300000D02*
X90150000Y90175000D01*
X96600000Y90175000D02*
X98810000Y90175000D01*
X96600000Y60825000D02*
X98810000Y60825000D01*
X90150000Y90175000D02*
X93800000Y90175000D01*
X98810000Y60825000D02*
X98810000Y90175000D01*
X90150000Y60825000D02*
X90150000Y62700000D01*
X90150000Y60825000D02*
X93800000Y60825000D01*
X34925000Y40640000D02*
X34925000Y42545000D01*
X34925000Y42545000D02*
X42545000Y42545000D01*
X42545000Y42545000D02*
X42545000Y40005000D01*
X42545000Y40005000D02*
X34925000Y40005000D01*
X34925000Y40005000D02*
X34925000Y40640000D01*
X34290000Y41275000D02*
X34925000Y41275000D01*
X42545000Y41275000D02*
X43180000Y41275000D01*
X34925000Y40640000D02*
X35560000Y40005000D01*
X17780000Y46990000D02*
X17780000Y48895000D01*
X17780000Y48895000D02*
X25400000Y48895000D01*
X25400000Y48895000D02*
X25400000Y46355000D01*
X25400000Y46355000D02*
X17780000Y46355000D01*
X17780000Y46355000D02*
X17780000Y46990000D01*
X17145000Y47625000D02*
X17780000Y47625000D01*
X25400000Y47625000D02*
X26035000Y47625000D01*
X17780000Y46990000D02*
X18415000Y46355000D01*
X34925000Y38100000D02*
X34925000Y40005000D01*
X34925000Y40005000D02*
X42545000Y40005000D01*
X42545000Y40005000D02*
X42545000Y37465000D01*
X42545000Y37465000D02*
X34925000Y37465000D01*
X34925000Y37465000D02*
X34925000Y38100000D01*
X34290000Y38735000D02*
X34925000Y38735000D01*
X42545000Y38735000D02*
X43180000Y38735000D01*
X34925000Y38100000D02*
X35560000Y37465000D01*
X51435000Y33020000D02*
X49530000Y33020000D01*
X49530000Y33020000D02*
X49530000Y40640000D01*
X49530000Y40640000D02*
X52070000Y40640000D01*
X52070000Y40640000D02*
X52070000Y33020000D01*
X52070000Y33020000D02*
X51435000Y33020000D01*
X50800000Y32385000D02*
X50800000Y33020000D01*
X50800000Y40640000D02*
X50800000Y41275000D01*
X51435000Y33020000D02*
X52070000Y33655000D01*
X3810000Y78740000D02*
X1905000Y78740000D01*
X1905000Y78740000D02*
X1905000Y86360000D01*
X1905000Y86360000D02*
X4445000Y86360000D01*
X4445000Y86360000D02*
X4445000Y78740000D01*
X4445000Y78740000D02*
X3810000Y78740000D01*
X3175000Y78105000D02*
X3175000Y78740000D01*
X3175000Y86360000D02*
X3175000Y86995000D01*
X3810000Y78740000D02*
X4445000Y79375000D01*
X48895000Y31750000D02*
X46990000Y31750000D01*
X46990000Y31750000D02*
X46990000Y39370000D01*
X46990000Y39370000D02*
X49530000Y39370000D01*
X49530000Y39370000D02*
X49530000Y31750000D01*
X49530000Y31750000D02*
X48895000Y31750000D01*
X48260000Y31115000D02*
X48260000Y31750000D01*
X48260000Y39370000D02*
X48260000Y40005000D01*
X48895000Y31750000D02*
X49530000Y32385000D01*
X23495000Y34290000D02*
X21590000Y34290000D01*
X21590000Y34290000D02*
X21590000Y41910000D01*
X21590000Y41910000D02*
X24130000Y41910000D01*
X24130000Y41910000D02*
X24130000Y34290000D01*
X24130000Y34290000D02*
X23495000Y34290000D01*
X22860000Y33655000D02*
X22860000Y34290000D01*
X22860000Y41910000D02*
X22860000Y42545000D01*
X23495000Y34290000D02*
X24130000Y34925000D01*
X52705000Y40640000D02*
X54610000Y40640000D01*
X54610000Y40640000D02*
X54610000Y33020000D01*
X54610000Y33020000D02*
X52070000Y33020000D01*
X52070000Y33020000D02*
X52070000Y40640000D01*
X52070000Y40640000D02*
X52705000Y40640000D01*
X53340000Y41275000D02*
X53340000Y40640000D01*
X53340000Y33020000D02*
X53340000Y32385000D01*
X52705000Y40640000D02*
X52070000Y40005000D01*
X24765000Y41910000D02*
X26670000Y41910000D01*
X26670000Y41910000D02*
X26670000Y34290000D01*
X26670000Y34290000D02*
X24130000Y34290000D01*
X24130000Y34290000D02*
X24130000Y41910000D01*
X24130000Y41910000D02*
X24765000Y41910000D01*
X25400000Y42545000D02*
X25400000Y41910000D01*
X25400000Y34290000D02*
X25400000Y33655000D01*
X24765000Y41910000D02*
X24130000Y41275000D01*
X59055000Y30480000D02*
X59055000Y28575000D01*
X59055000Y28575000D02*
X51435000Y28575000D01*
X51435000Y28575000D02*
X51435000Y31115000D01*
X51435000Y31115000D02*
X59055000Y31115000D01*
X59055000Y31115000D02*
X59055000Y30480000D01*
X59690000Y29845000D02*
X59055000Y29845000D01*
X51435000Y29845000D02*
X50800000Y29845000D01*
X59055000Y30480000D02*
X58420000Y31115000D01*
X59055000Y27940000D02*
X59055000Y26035000D01*
X59055000Y26035000D02*
X51435000Y26035000D01*
X51435000Y26035000D02*
X51435000Y28575000D01*
X51435000Y28575000D02*
X59055000Y28575000D01*
X59055000Y28575000D02*
X59055000Y27940000D01*
X59690000Y27305000D02*
X59055000Y27305000D01*
X51435000Y27305000D02*
X50800000Y27305000D01*
X59055000Y27940000D02*
X58420000Y28575000D01*
X51435000Y24130000D02*
X51435000Y26035000D01*
X51435000Y26035000D02*
X59055000Y26035000D01*
X59055000Y26035000D02*
X59055000Y23495000D01*
X59055000Y23495000D02*
X51435000Y23495000D01*
X51435000Y23495000D02*
X51435000Y24130000D01*
X50800000Y24765000D02*
X51435000Y24765000D01*
X59055000Y24765000D02*
X59690000Y24765000D01*
X51435000Y24130000D02*
X52070000Y23495000D01*
X51435000Y21590000D02*
X51435000Y23495000D01*
X51435000Y23495000D02*
X59055000Y23495000D01*
X59055000Y23495000D02*
X59055000Y20955000D01*
X59055000Y20955000D02*
X51435000Y20955000D01*
X51435000Y20955000D02*
X51435000Y21590000D01*
X50800000Y22225000D02*
X51435000Y22225000D01*
X59055000Y22225000D02*
X59690000Y22225000D01*
X51435000Y21590000D02*
X52070000Y20955000D01*
X45085000Y23495000D02*
X45085000Y21590000D01*
X45085000Y21590000D02*
X37465000Y21590000D01*
X37465000Y21590000D02*
X37465000Y24130000D01*
X37465000Y24130000D02*
X45085000Y24130000D01*
X45085000Y24130000D02*
X45085000Y23495000D01*
X45720000Y22860000D02*
X45085000Y22860000D01*
X37465000Y22860000D02*
X36830000Y22860000D01*
X45085000Y23495000D02*
X44450000Y24130000D01*
X46990000Y19050000D02*
X46990000Y6350000D01*
X46990000Y6350000D02*
X49530000Y6350000D01*
X49530000Y6350000D02*
X49530000Y19050000D01*
X48260000Y6350000D02*
X48260000Y5080000D01*
X48260000Y20320000D02*
X48260000Y19050000D01*
X47752000Y19050000D02*
X46990000Y18288000D01*
X46990000Y19050000D02*
X49530000Y19050000D01*
X43453010Y31467305D02*
G75*
G02X42750000Y31955000I996990J2187695D01*
G01*
X43453010Y35842695D02*
G75*
G03X42750000Y35355000I996990J-2187695D01*
G01*
X42750000Y31955000D02*
X42750000Y35355000D01*
X45443127Y31470121D02*
G75*
G03X46850000Y33655000I-993127J2184879D01*
G01*
X45443127Y35839879D02*
G75*
G02X46850000Y33655000I-993127J-2184879D01*
G01*
X14215000Y42410000D02*
X15485000Y42410000D01*
X14215000Y35060000D02*
X15485000Y35060000D01*
X21345000Y35060000D02*
X20075000Y35060000D01*
X21345000Y42410000D02*
X20075000Y42410000D01*
X14215000Y42410000D02*
X14215000Y35060000D01*
X21345000Y42410000D02*
X21345000Y35060000D01*
X15485000Y42410000D02*
X15485000Y43345000D01*
X35170000Y36060000D02*
X36440000Y36060000D01*
X35170000Y28710000D02*
X36440000Y28710000D01*
X42300000Y28710000D02*
X41030000Y28710000D01*
X42300000Y36060000D02*
X41030000Y36060000D01*
X35170000Y36060000D02*
X35170000Y28710000D01*
X42300000Y36060000D02*
X42300000Y28710000D01*
X36440000Y36060000D02*
X36440000Y36995000D01*
X15601990Y86642695D02*
G75*
G02X16305000Y86155000I-996990J-2187695D01*
G01*
X15601990Y82267305D02*
G75*
G03X16305000Y82755000I-996990J2187695D01*
G01*
X16305000Y86155000D02*
X16305000Y82755000D01*
X13611873Y86639879D02*
G75*
G03X12205000Y84455000I993127J-2184879D01*
G01*
X13611873Y82270121D02*
G75*
G02X12205000Y84455000I993127J2184879D01*
G01*
X37129720Y48874680D02*
X37228780Y48574960D01*
X36530280Y48874680D02*
X36431220Y48574960D01*
X35930840Y48874680D02*
X35930840Y53924200D01*
X35930840Y53924200D02*
X37729160Y53924200D01*
X37729160Y53924200D02*
X37729160Y48874680D01*
X35930840Y48874680D02*
X37729160Y48874680D01*
X13810000Y93535000D02*
X13810000Y94235000D01*
X13810000Y94235000D02*
X15010000Y94235000D01*
X15010000Y94235000D02*
X15010000Y93535000D01*
X19210000Y93535000D02*
X19210000Y94235000D01*
X19210000Y94235000D02*
X18010000Y94235000D01*
X18010000Y94235000D02*
X18010000Y93535000D01*
X16510000Y93535000D02*
X20210000Y93535000D01*
X20210000Y93535000D02*
X20210000Y99285000D01*
X20210000Y99285000D02*
X12810000Y99285000D01*
X12810000Y99285000D02*
X12810000Y93535000D01*
X12810000Y93535000D02*
X16520000Y93535000D01*
X9460000Y68135000D02*
X9460000Y68735000D01*
X9460000Y68735000D02*
X11460000Y68735000D01*
X11460000Y68735000D02*
X11460000Y68135000D01*
X7770000Y68135000D02*
X7770000Y73875000D01*
X13970000Y68135000D02*
X7770000Y68135000D01*
X18480000Y68135000D02*
X18480000Y68735000D01*
X18480000Y68735000D02*
X16480000Y68735000D01*
X16480000Y68735000D02*
X16480000Y68135000D01*
X13970000Y68135000D02*
X20170000Y68135000D01*
X20170000Y68135000D02*
X20170000Y73875000D01*
X20170000Y73875000D02*
X7770000Y73875000D01*
X24700000Y68135000D02*
X24700000Y68735000D01*
X24700000Y68735000D02*
X26700000Y68735000D01*
X26700000Y68735000D02*
X26700000Y68135000D01*
X23010000Y68135000D02*
X23010000Y73875000D01*
X29210000Y68135000D02*
X23010000Y68135000D01*
X33720000Y68135000D02*
X33720000Y68735000D01*
X33720000Y68735000D02*
X31720000Y68735000D01*
X31720000Y68735000D02*
X31720000Y68135000D01*
X29210000Y68135000D02*
X35410000Y68135000D01*
X35410000Y68135000D02*
X35410000Y73875000D01*
X35410000Y73875000D02*
X23010000Y73875000D01*
X24700000Y93535000D02*
X24700000Y94135000D01*
X24700000Y94135000D02*
X26700000Y94135000D01*
X26700000Y94135000D02*
X26700000Y93535000D01*
X23010000Y93535000D02*
X23010000Y99275000D01*
X29210000Y93535000D02*
X23010000Y93535000D01*
X33720000Y93535000D02*
X33720000Y94135000D01*
X33720000Y94135000D02*
X31720000Y94135000D01*
X31720000Y94135000D02*
X31720000Y93535000D01*
X29210000Y93535000D02*
X35410000Y93535000D01*
X35410000Y93535000D02*
X35410000Y99275000D01*
X35410000Y99275000D02*
X23010000Y99275000D01*
X65492381Y56006905D02*
X66301905Y56006905D01*
X66397143Y55959286D01*
X66444762Y55911667D01*
X66492381Y55816429D01*
X66492381Y55625952D01*
X66444762Y55530714D01*
X66397143Y55483095D01*
X66301905Y55435476D01*
X65492381Y55435476D01*
X66492381Y54435476D02*
X66492381Y55006905D01*
X66492381Y54721191D02*
X65492381Y54721191D01*
X65635238Y54816429D01*
X65730476Y54911667D01*
X65778095Y55006905D01*
X1992381Y56506905D02*
X2801905Y56506905D01*
X2897143Y56459286D01*
X2944762Y56411667D01*
X2992381Y56316429D01*
X2992381Y56125952D01*
X2944762Y56030714D01*
X2897143Y55983095D01*
X2801905Y55935476D01*
X1992381Y55935476D01*
X2944762Y55506905D02*
X2992381Y55364048D01*
X2992381Y55125952D01*
X2944762Y55030714D01*
X2897143Y54983095D01*
X2801905Y54935476D01*
X2706667Y54935476D01*
X2611429Y54983095D01*
X2563810Y55030714D01*
X2516190Y55125952D01*
X2468571Y55316429D01*
X2420952Y55411667D01*
X2373333Y55459286D01*
X2278095Y55506905D01*
X2182857Y55506905D01*
X2087619Y55459286D01*
X2040000Y55411667D01*
X1992381Y55316429D01*
X1992381Y55078333D01*
X2040000Y54935476D01*
X2468571Y54173571D02*
X2516190Y54030714D01*
X2563810Y53983095D01*
X2659048Y53935476D01*
X2801905Y53935476D01*
X2897143Y53983095D01*
X2944762Y54030714D01*
X2992381Y54125952D01*
X2992381Y54506905D01*
X1992381Y54506905D01*
X1992381Y54173571D01*
X2040000Y54078333D01*
X2087619Y54030714D01*
X2182857Y53983095D01*
X2278095Y53983095D01*
X2373333Y54030714D01*
X2420952Y54078333D01*
X2468571Y54173571D01*
X2468571Y54506905D01*
X2706666Y50442857D02*
X2754285Y50395238D01*
X2897142Y50347619D01*
X2992380Y50347619D01*
X3135238Y50395238D01*
X3230476Y50490476D01*
X3278095Y50585714D01*
X3325714Y50776190D01*
X3325714Y50919048D01*
X3278095Y51109524D01*
X3230476Y51204762D01*
X3135238Y51300000D01*
X2992380Y51347619D01*
X2897142Y51347619D01*
X2754285Y51300000D01*
X2706666Y51252381D01*
X2373333Y51347619D02*
X1754285Y51347619D01*
X2087619Y50966667D01*
X1944761Y50966667D01*
X1849523Y50919048D01*
X1801904Y50871429D01*
X1754285Y50776190D01*
X1754285Y50538095D01*
X1801904Y50442857D01*
X1849523Y50395238D01*
X1944761Y50347619D01*
X2230476Y50347619D01*
X2325714Y50395238D01*
X2373333Y50442857D01*
X18581666Y75207857D02*
X18629285Y75160238D01*
X18772142Y75112619D01*
X18867380Y75112619D01*
X19010238Y75160238D01*
X19105476Y75255476D01*
X19153095Y75350714D01*
X19200714Y75541190D01*
X19200714Y75684048D01*
X19153095Y75874524D01*
X19105476Y75969762D01*
X19010238Y76065000D01*
X18867380Y76112619D01*
X18772142Y76112619D01*
X18629285Y76065000D01*
X18581666Y76017381D01*
X17724523Y75779286D02*
X17724523Y75112619D01*
X17962619Y76160238D02*
X18200714Y75445952D01*
X17581666Y75445952D01*
X29416666Y77437857D02*
X29464285Y77390238D01*
X29607142Y77342619D01*
X29702380Y77342619D01*
X29845238Y77390238D01*
X29940476Y77485476D01*
X29988095Y77580714D01*
X30035714Y77771190D01*
X30035714Y77914048D01*
X29988095Y78104524D01*
X29940476Y78199762D01*
X29845238Y78295000D01*
X29702380Y78342619D01*
X29607142Y78342619D01*
X29464285Y78295000D01*
X29416666Y78247381D01*
X28511904Y78342619D02*
X28988095Y78342619D01*
X29035714Y77866429D01*
X28988095Y77914048D01*
X28892857Y77961667D01*
X28654761Y77961667D01*
X28559523Y77914048D01*
X28511904Y77866429D01*
X28464285Y77771190D01*
X28464285Y77533095D01*
X28511904Y77437857D01*
X28559523Y77390238D01*
X28654761Y77342619D01*
X28892857Y77342619D01*
X28988095Y77390238D01*
X29035714Y77437857D01*
X66206666Y59332857D02*
X66254285Y59285238D01*
X66397142Y59237619D01*
X66492380Y59237619D01*
X66635238Y59285238D01*
X66730476Y59380476D01*
X66778095Y59475714D01*
X66825714Y59666190D01*
X66825714Y59809048D01*
X66778095Y59999524D01*
X66730476Y60094762D01*
X66635238Y60190000D01*
X66492380Y60237619D01*
X66397142Y60237619D01*
X66254285Y60190000D01*
X66206666Y60142381D01*
X65349523Y60237619D02*
X65540000Y60237619D01*
X65635238Y60190000D01*
X65682857Y60142381D01*
X65778095Y59999524D01*
X65825714Y59809048D01*
X65825714Y59428095D01*
X65778095Y59332857D01*
X65730476Y59285238D01*
X65635238Y59237619D01*
X65444761Y59237619D01*
X65349523Y59285238D01*
X65301904Y59332857D01*
X65254285Y59428095D01*
X65254285Y59666190D01*
X65301904Y59761429D01*
X65349523Y59809048D01*
X65444761Y59856667D01*
X65635238Y59856667D01*
X65730476Y59809048D01*
X65778095Y59761429D01*
X65825714Y59666190D01*
X48617143Y42076666D02*
X48664762Y42124285D01*
X48712381Y42267142D01*
X48712381Y42362380D01*
X48664762Y42505238D01*
X48569524Y42600476D01*
X48474286Y42648095D01*
X48283810Y42695714D01*
X48140952Y42695714D01*
X47950476Y42648095D01*
X47855238Y42600476D01*
X47760000Y42505238D01*
X47712381Y42362380D01*
X47712381Y42267142D01*
X47760000Y42124285D01*
X47807619Y42076666D01*
X47712381Y41743333D02*
X47712381Y41076666D01*
X48712381Y41505238D01*
X42076666Y26312857D02*
X42124285Y26265238D01*
X42267142Y26217619D01*
X42362380Y26217619D01*
X42505238Y26265238D01*
X42600476Y26360476D01*
X42648095Y26455714D01*
X42695714Y26646190D01*
X42695714Y26789048D01*
X42648095Y26979524D01*
X42600476Y27074762D01*
X42505238Y27170000D01*
X42362380Y27217619D01*
X42267142Y27217619D01*
X42124285Y27170000D01*
X42076666Y27122381D01*
X41505238Y26789048D02*
X41600476Y26836667D01*
X41648095Y26884286D01*
X41695714Y26979524D01*
X41695714Y27027143D01*
X41648095Y27122381D01*
X41600476Y27170000D01*
X41505238Y27217619D01*
X41314761Y27217619D01*
X41219523Y27170000D01*
X41171904Y27122381D01*
X41124285Y27027143D01*
X41124285Y26979524D01*
X41171904Y26884286D01*
X41219523Y26836667D01*
X41314761Y26789048D01*
X41505238Y26789048D01*
X41600476Y26741429D01*
X41648095Y26693810D01*
X41695714Y26598571D01*
X41695714Y26408095D01*
X41648095Y26312857D01*
X41600476Y26265238D01*
X41505238Y26217619D01*
X41314761Y26217619D01*
X41219523Y26265238D01*
X41171904Y26312857D01*
X41124285Y26408095D01*
X41124285Y26598571D01*
X41171904Y26693810D01*
X41219523Y26741429D01*
X41314761Y26789048D01*
X43312143Y11536666D02*
X43359762Y11584285D01*
X43407381Y11727142D01*
X43407381Y11822380D01*
X43359762Y11965238D01*
X43264524Y12060476D01*
X43169286Y12108095D01*
X42978810Y12155714D01*
X42835952Y12155714D01*
X42645476Y12108095D01*
X42550238Y12060476D01*
X42455000Y11965238D01*
X42407381Y11822380D01*
X42407381Y11727142D01*
X42455000Y11584285D01*
X42502619Y11536666D01*
X43407381Y11060476D02*
X43407381Y10870000D01*
X43359762Y10774761D01*
X43312143Y10727142D01*
X43169286Y10631904D01*
X42978810Y10584285D01*
X42597857Y10584285D01*
X42502619Y10631904D01*
X42455000Y10679523D01*
X42407381Y10774761D01*
X42407381Y10965238D01*
X42455000Y11060476D01*
X42502619Y11108095D01*
X42597857Y11155714D01*
X42835952Y11155714D01*
X42931190Y11108095D01*
X42978810Y11060476D01*
X43026429Y10965238D01*
X43026429Y10774761D01*
X42978810Y10679523D01*
X42931190Y10631904D01*
X42835952Y10584285D01*
X22232857Y85367857D02*
X22280476Y85320238D01*
X22423333Y85272619D01*
X22518571Y85272619D01*
X22661429Y85320238D01*
X22756667Y85415476D01*
X22804286Y85510714D01*
X22851905Y85701190D01*
X22851905Y85844048D01*
X22804286Y86034524D01*
X22756667Y86129762D01*
X22661429Y86225000D01*
X22518571Y86272619D01*
X22423333Y86272619D01*
X22280476Y86225000D01*
X22232857Y86177381D01*
X21280476Y85272619D02*
X21851905Y85272619D01*
X21566191Y85272619D02*
X21566191Y86272619D01*
X21661429Y86129762D01*
X21756667Y86034524D01*
X21851905Y85986905D01*
X20661429Y86272619D02*
X20566190Y86272619D01*
X20470952Y86225000D01*
X20423333Y86177381D01*
X20375714Y86082143D01*
X20328095Y85891667D01*
X20328095Y85653571D01*
X20375714Y85463095D01*
X20423333Y85367857D01*
X20470952Y85320238D01*
X20566190Y85272619D01*
X20661429Y85272619D01*
X20756667Y85320238D01*
X20804286Y85367857D01*
X20851905Y85463095D01*
X20899524Y85653571D01*
X20899524Y85891667D01*
X20851905Y86082143D01*
X20804286Y86177381D01*
X20756667Y86225000D01*
X20661429Y86272619D01*
X65127143Y5722857D02*
X65174762Y5770476D01*
X65222381Y5913333D01*
X65222381Y6008571D01*
X65174762Y6151429D01*
X65079524Y6246667D01*
X64984286Y6294286D01*
X64793810Y6341905D01*
X64650952Y6341905D01*
X64460476Y6294286D01*
X64365238Y6246667D01*
X64270000Y6151429D01*
X64222381Y6008571D01*
X64222381Y5913333D01*
X64270000Y5770476D01*
X64317619Y5722857D01*
X65222381Y4770476D02*
X65222381Y5341905D01*
X65222381Y5056191D02*
X64222381Y5056191D01*
X64365238Y5151429D01*
X64460476Y5246667D01*
X64508095Y5341905D01*
X65222381Y3818095D02*
X65222381Y4389524D01*
X65222381Y4103810D02*
X64222381Y4103810D01*
X64365238Y4199048D01*
X64460476Y4294286D01*
X64508095Y4389524D01*
X33662857Y23137857D02*
X33710476Y23090238D01*
X33853333Y23042619D01*
X33948571Y23042619D01*
X34091429Y23090238D01*
X34186667Y23185476D01*
X34234286Y23280714D01*
X34281905Y23471190D01*
X34281905Y23614048D01*
X34234286Y23804524D01*
X34186667Y23899762D01*
X34091429Y23995000D01*
X33948571Y24042619D01*
X33853333Y24042619D01*
X33710476Y23995000D01*
X33662857Y23947381D01*
X32710476Y23042619D02*
X33281905Y23042619D01*
X32996191Y23042619D02*
X32996191Y24042619D01*
X33091429Y23899762D01*
X33186667Y23804524D01*
X33281905Y23756905D01*
X32329524Y23947381D02*
X32281905Y23995000D01*
X32186667Y24042619D01*
X31948571Y24042619D01*
X31853333Y23995000D01*
X31805714Y23947381D01*
X31758095Y23852143D01*
X31758095Y23756905D01*
X31805714Y23614048D01*
X32377143Y23042619D01*
X31758095Y23042619D01*
X6707143Y90812857D02*
X6754762Y90860476D01*
X6802381Y91003333D01*
X6802381Y91098571D01*
X6754762Y91241429D01*
X6659524Y91336667D01*
X6564286Y91384286D01*
X6373810Y91431905D01*
X6230952Y91431905D01*
X6040476Y91384286D01*
X5945238Y91336667D01*
X5850000Y91241429D01*
X5802381Y91098571D01*
X5802381Y91003333D01*
X5850000Y90860476D01*
X5897619Y90812857D01*
X6802381Y89860476D02*
X6802381Y90431905D01*
X6802381Y90146191D02*
X5802381Y90146191D01*
X5945238Y90241429D01*
X6040476Y90336667D01*
X6088095Y90431905D01*
X5802381Y89527143D02*
X5802381Y88908095D01*
X6183333Y89241429D01*
X6183333Y89098571D01*
X6230952Y89003333D01*
X6278571Y88955714D01*
X6373810Y88908095D01*
X6611905Y88908095D01*
X6707143Y88955714D01*
X6754762Y89003333D01*
X6802381Y89098571D01*
X6802381Y89384286D01*
X6754762Y89479524D01*
X6707143Y89527143D01*
X6515714Y21225714D02*
X6587143Y21297143D01*
X6658571Y21511429D01*
X6658571Y21654286D01*
X6587143Y21868571D01*
X6444286Y22011429D01*
X6301429Y22082857D01*
X6015714Y22154286D01*
X5801429Y22154286D01*
X5515714Y22082857D01*
X5372857Y22011429D01*
X5230000Y21868571D01*
X5158571Y21654286D01*
X5158571Y21511429D01*
X5230000Y21297143D01*
X5301429Y21225714D01*
X6658571Y20582857D02*
X5158571Y20582857D01*
X6658571Y19725714D01*
X5158571Y19725714D01*
X6658571Y18225714D02*
X6658571Y19082857D01*
X6658571Y18654285D02*
X5158571Y18654285D01*
X5372857Y18797142D01*
X5515714Y18940000D01*
X5587143Y19082857D01*
X10338571Y25084285D02*
X8838571Y25084285D01*
X8838571Y24727142D01*
X8910000Y24512857D01*
X9052857Y24369999D01*
X9195714Y24298571D01*
X9481429Y24227142D01*
X9695714Y24227142D01*
X9981429Y24298571D01*
X10124286Y24369999D01*
X10267143Y24512857D01*
X10338571Y24727142D01*
X10338571Y25084285D01*
X9552857Y23084285D02*
X9552857Y23584285D01*
X10338571Y23584285D02*
X8838571Y23584285D01*
X8838571Y22869999D01*
X8981429Y22370000D02*
X8910000Y22298571D01*
X8838571Y22155714D01*
X8838571Y21798571D01*
X8910000Y21655714D01*
X8981429Y21584285D01*
X9124286Y21512857D01*
X9267143Y21512857D01*
X9481429Y21584285D01*
X10338571Y22441428D01*
X10338571Y21512857D01*
X8981429Y20941429D02*
X8910000Y20870000D01*
X8838571Y20727143D01*
X8838571Y20370000D01*
X8910000Y20227143D01*
X8981429Y20155714D01*
X9124286Y20084286D01*
X9267143Y20084286D01*
X9481429Y20155714D01*
X10338571Y21012857D01*
X10338571Y20084286D01*
X10338571Y18727143D02*
X10338571Y19441429D01*
X8838571Y19441429D01*
X9767143Y18227143D02*
X9767143Y17084286D01*
X8981429Y16441429D02*
X8910000Y16370000D01*
X8838571Y16227143D01*
X8838571Y15870000D01*
X8910000Y15727143D01*
X8981429Y15655714D01*
X9124286Y15584286D01*
X9267143Y15584286D01*
X9481429Y15655714D01*
X10338571Y16512857D01*
X10338571Y15584286D01*
X10338571Y14941429D02*
X8838571Y14941429D01*
X8838571Y14370001D01*
X8910000Y14227143D01*
X8981429Y14155715D01*
X9124286Y14084286D01*
X9338571Y14084286D01*
X9481429Y14155715D01*
X9552857Y14227143D01*
X9624286Y14370001D01*
X9624286Y14941429D01*
X8358095Y2087619D02*
X8358095Y3087619D01*
X8120000Y3087619D01*
X7977142Y3040000D01*
X7881904Y2944762D01*
X7834285Y2849524D01*
X7786666Y2659048D01*
X7786666Y2516190D01*
X7834285Y2325714D01*
X7881904Y2230476D01*
X7977142Y2135238D01*
X8120000Y2087619D01*
X8358095Y2087619D01*
X6834285Y2087619D02*
X7405714Y2087619D01*
X7120000Y2087619D02*
X7120000Y3087619D01*
X7215238Y2944762D01*
X7310476Y2849524D01*
X7405714Y2801905D01*
X7088095Y8437619D02*
X7088095Y9437619D01*
X6850000Y9437619D01*
X6707142Y9390000D01*
X6611904Y9294762D01*
X6564285Y9199524D01*
X6516666Y9009048D01*
X6516666Y8866190D01*
X6564285Y8675714D01*
X6611904Y8580476D01*
X6707142Y8485238D01*
X6850000Y8437619D01*
X7088095Y8437619D01*
X6135714Y9342381D02*
X6088095Y9390000D01*
X5992857Y9437619D01*
X5754761Y9437619D01*
X5659523Y9390000D01*
X5611904Y9342381D01*
X5564285Y9247143D01*
X5564285Y9151905D01*
X5611904Y9009048D01*
X6183333Y8437619D01*
X5564285Y8437619D01*
X29027381Y23598095D02*
X28027381Y23598095D01*
X28027381Y23360000D01*
X28075000Y23217142D01*
X28170238Y23121904D01*
X28265476Y23074285D01*
X28455952Y23026666D01*
X28598810Y23026666D01*
X28789286Y23074285D01*
X28884524Y23121904D01*
X28979762Y23217142D01*
X29027381Y23360000D01*
X29027381Y23598095D01*
X28027381Y22693333D02*
X28027381Y22074285D01*
X28408333Y22407619D01*
X28408333Y22264761D01*
X28455952Y22169523D01*
X28503571Y22121904D01*
X28598810Y22074285D01*
X28836905Y22074285D01*
X28932143Y22121904D01*
X28979762Y22169523D01*
X29027381Y22264761D01*
X29027381Y22550476D01*
X28979762Y22645714D01*
X28932143Y22693333D01*
X8358095Y33837619D02*
X8358095Y34837619D01*
X8120000Y34837619D01*
X7977142Y34790000D01*
X7881904Y34694762D01*
X7834285Y34599524D01*
X7786666Y34409048D01*
X7786666Y34266190D01*
X7834285Y34075714D01*
X7881904Y33980476D01*
X7977142Y33885238D01*
X8120000Y33837619D01*
X8358095Y33837619D01*
X6929523Y34504286D02*
X6929523Y33837619D01*
X7167619Y34885238D02*
X7405714Y34170952D01*
X6786666Y34170952D01*
X28678095Y30027619D02*
X28678095Y31027619D01*
X28440000Y31027619D01*
X28297142Y30980000D01*
X28201904Y30884762D01*
X28154285Y30789524D01*
X28106666Y30599048D01*
X28106666Y30456190D01*
X28154285Y30265714D01*
X28201904Y30170476D01*
X28297142Y30075238D01*
X28440000Y30027619D01*
X28678095Y30027619D01*
X27201904Y31027619D02*
X27678095Y31027619D01*
X27725714Y30551429D01*
X27678095Y30599048D01*
X27582857Y30646667D01*
X27344761Y30646667D01*
X27249523Y30599048D01*
X27201904Y30551429D01*
X27154285Y30456190D01*
X27154285Y30218095D01*
X27201904Y30122857D01*
X27249523Y30075238D01*
X27344761Y30027619D01*
X27582857Y30027619D01*
X27678095Y30075238D01*
X27725714Y30122857D01*
X28178095Y32218333D02*
X27701904Y32218333D01*
X28273333Y31932619D02*
X27940000Y32932619D01*
X27606666Y31932619D01*
X8993095Y79557619D02*
X8993095Y80557619D01*
X8755000Y80557619D01*
X8612142Y80510000D01*
X8516904Y80414762D01*
X8469285Y80319524D01*
X8421666Y80129048D01*
X8421666Y79986190D01*
X8469285Y79795714D01*
X8516904Y79700476D01*
X8612142Y79605238D01*
X8755000Y79557619D01*
X8993095Y79557619D01*
X7564523Y80557619D02*
X7755000Y80557619D01*
X7850238Y80510000D01*
X7897857Y80462381D01*
X7993095Y80319524D01*
X8040714Y80129048D01*
X8040714Y79748095D01*
X7993095Y79652857D01*
X7945476Y79605238D01*
X7850238Y79557619D01*
X7659761Y79557619D01*
X7564523Y79605238D01*
X7516904Y79652857D01*
X7469285Y79748095D01*
X7469285Y79986190D01*
X7516904Y80081429D01*
X7564523Y80129048D01*
X7659761Y80176667D01*
X7850238Y80176667D01*
X7945476Y80129048D01*
X7993095Y80081429D01*
X8040714Y79986190D01*
X13827095Y80859333D02*
X13350904Y80859333D01*
X13922333Y80573619D02*
X13589000Y81573619D01*
X13255666Y80573619D01*
X65190595Y17962619D02*
X65190595Y18962619D01*
X64952500Y18962619D01*
X64809642Y18915000D01*
X64714404Y18819762D01*
X64666785Y18724524D01*
X64619166Y18534048D01*
X64619166Y18391190D01*
X64666785Y18200714D01*
X64714404Y18105476D01*
X64809642Y18010238D01*
X64952500Y17962619D01*
X65190595Y17962619D01*
X64142976Y17962619D02*
X63952500Y17962619D01*
X63857261Y18010238D01*
X63809642Y18057857D01*
X63714404Y18200714D01*
X63666785Y18391190D01*
X63666785Y18772143D01*
X63714404Y18867381D01*
X63762023Y18915000D01*
X63857261Y18962619D01*
X64047738Y18962619D01*
X64142976Y18915000D01*
X64190595Y18867381D01*
X64238214Y18772143D01*
X64238214Y18534048D01*
X64190595Y18438810D01*
X64142976Y18391190D01*
X64047738Y18343571D01*
X63857261Y18343571D01*
X63762023Y18391190D01*
X63714404Y18438810D01*
X63666785Y18534048D01*
X32329286Y89717619D02*
X32329286Y90717619D01*
X32091191Y90717619D01*
X31948333Y90670000D01*
X31853095Y90574762D01*
X31805476Y90479524D01*
X31757857Y90289048D01*
X31757857Y90146190D01*
X31805476Y89955714D01*
X31853095Y89860476D01*
X31948333Y89765238D01*
X32091191Y89717619D01*
X32329286Y89717619D01*
X31424524Y90717619D02*
X30805476Y90717619D01*
X31138810Y90336667D01*
X30995952Y90336667D01*
X30900714Y90289048D01*
X30853095Y90241429D01*
X30805476Y90146190D01*
X30805476Y89908095D01*
X30853095Y89812857D01*
X30900714Y89765238D01*
X30995952Y89717619D01*
X31281667Y89717619D01*
X31376905Y89765238D01*
X31424524Y89812857D01*
X29948333Y90384286D02*
X29948333Y89717619D01*
X30186429Y90765238D02*
X30424524Y90050952D01*
X29805476Y90050952D01*
X29702095Y93559333D02*
X29225904Y93559333D01*
X29797333Y93273619D02*
X29464000Y94273619D01*
X29130666Y93273619D01*
X53792381Y15406666D02*
X53792381Y15882857D01*
X52792381Y15882857D01*
X52887619Y15120952D02*
X52840000Y15073333D01*
X52792381Y14978095D01*
X52792381Y14739999D01*
X52840000Y14644761D01*
X52887619Y14597142D01*
X52982857Y14549523D01*
X53078095Y14549523D01*
X53220952Y14597142D01*
X53792381Y15168571D01*
X53792381Y14549523D01*
X90622381Y54776666D02*
X90622381Y55252857D01*
X89622381Y55252857D01*
X89622381Y54538571D02*
X89622381Y53919523D01*
X90003333Y54252857D01*
X90003333Y54109999D01*
X90050952Y54014761D01*
X90098571Y53967142D01*
X90193810Y53919523D01*
X90431905Y53919523D01*
X90527143Y53967142D01*
X90574762Y54014761D01*
X90622381Y54109999D01*
X90622381Y54395714D01*
X90574762Y54490952D01*
X90527143Y54538571D01*
X90622381Y42076666D02*
X90622381Y42552857D01*
X89622381Y42552857D01*
X89955714Y41314761D02*
X90622381Y41314761D01*
X89574762Y41552857D02*
X90289048Y41790952D01*
X90289048Y41171904D01*
X90622381Y29376666D02*
X90622381Y29852857D01*
X89622381Y29852857D01*
X89622381Y28567142D02*
X89622381Y29043333D01*
X90098571Y29090952D01*
X90050952Y29043333D01*
X90003333Y28948095D01*
X90003333Y28709999D01*
X90050952Y28614761D01*
X90098571Y28567142D01*
X90193810Y28519523D01*
X90431905Y28519523D01*
X90527143Y28567142D01*
X90574762Y28614761D01*
X90622381Y28709999D01*
X90622381Y28948095D01*
X90574762Y29043333D01*
X90527143Y29090952D01*
X90622381Y16676666D02*
X90622381Y17152857D01*
X89622381Y17152857D01*
X89622381Y15914761D02*
X89622381Y16105238D01*
X89670000Y16200476D01*
X89717619Y16248095D01*
X89860476Y16343333D01*
X90050952Y16390952D01*
X90431905Y16390952D01*
X90527143Y16343333D01*
X90574762Y16295714D01*
X90622381Y16200476D01*
X90622381Y16009999D01*
X90574762Y15914761D01*
X90527143Y15867142D01*
X90431905Y15819523D01*
X90193810Y15819523D01*
X90098571Y15867142D01*
X90050952Y15914761D01*
X90003333Y16009999D01*
X90003333Y16200476D01*
X90050952Y16295714D01*
X90098571Y16343333D01*
X90193810Y16390952D01*
X82716666Y8437619D02*
X83192857Y8437619D01*
X83192857Y9437619D01*
X82478571Y9437619D02*
X81811904Y9437619D01*
X82240476Y8437619D01*
X82716666Y19867619D02*
X83192857Y19867619D01*
X83192857Y20867619D01*
X82240476Y20439048D02*
X82335714Y20486667D01*
X82383333Y20534286D01*
X82430952Y20629524D01*
X82430952Y20677143D01*
X82383333Y20772381D01*
X82335714Y20820000D01*
X82240476Y20867619D01*
X82049999Y20867619D01*
X81954761Y20820000D01*
X81907142Y20772381D01*
X81859523Y20677143D01*
X81859523Y20629524D01*
X81907142Y20534286D01*
X81954761Y20486667D01*
X82049999Y20439048D01*
X82240476Y20439048D01*
X82335714Y20391429D01*
X82383333Y20343810D01*
X82430952Y20248571D01*
X82430952Y20058095D01*
X82383333Y19962857D01*
X82335714Y19915238D01*
X82240476Y19867619D01*
X82049999Y19867619D01*
X81954761Y19915238D01*
X81907142Y19962857D01*
X81859523Y20058095D01*
X81859523Y20248571D01*
X81907142Y20343810D01*
X81954761Y20391429D01*
X82049999Y20439048D01*
X82716666Y30027619D02*
X83192857Y30027619D01*
X83192857Y31027619D01*
X82335714Y30027619D02*
X82145238Y30027619D01*
X82049999Y30075238D01*
X82002380Y30122857D01*
X81907142Y30265714D01*
X81859523Y30456190D01*
X81859523Y30837143D01*
X81907142Y30932381D01*
X81954761Y30980000D01*
X82049999Y31027619D01*
X82240476Y31027619D01*
X82335714Y30980000D01*
X82383333Y30932381D01*
X82430952Y30837143D01*
X82430952Y30599048D01*
X82383333Y30503810D01*
X82335714Y30456190D01*
X82240476Y30408571D01*
X82049999Y30408571D01*
X81954761Y30456190D01*
X81907142Y30503810D01*
X81859523Y30599048D01*
X70492857Y30027619D02*
X70969048Y30027619D01*
X70969048Y31027619D01*
X69635714Y30027619D02*
X70207143Y30027619D01*
X69921429Y30027619D02*
X69921429Y31027619D01*
X70016667Y30884762D01*
X70111905Y30789524D01*
X70207143Y30741905D01*
X69016667Y31027619D02*
X68921428Y31027619D01*
X68826190Y30980000D01*
X68778571Y30932381D01*
X68730952Y30837143D01*
X68683333Y30646667D01*
X68683333Y30408571D01*
X68730952Y30218095D01*
X68778571Y30122857D01*
X68826190Y30075238D01*
X68921428Y30027619D01*
X69016667Y30027619D01*
X69111905Y30075238D01*
X69159524Y30122857D01*
X69207143Y30218095D01*
X69254762Y30408571D01*
X69254762Y30646667D01*
X69207143Y30837143D01*
X69159524Y30932381D01*
X69111905Y30980000D01*
X69016667Y31027619D01*
X83192857Y41457619D02*
X83669048Y41457619D01*
X83669048Y42457619D01*
X82335714Y41457619D02*
X82907143Y41457619D01*
X82621429Y41457619D02*
X82621429Y42457619D01*
X82716667Y42314762D01*
X82811905Y42219524D01*
X82907143Y42171905D01*
X81383333Y41457619D02*
X81954762Y41457619D01*
X81669048Y41457619D02*
X81669048Y42457619D01*
X81764286Y42314762D01*
X81859524Y42219524D01*
X81954762Y42171905D01*
X70492857Y41457619D02*
X70969048Y41457619D01*
X70969048Y42457619D01*
X69635714Y41457619D02*
X70207143Y41457619D01*
X69921429Y41457619D02*
X69921429Y42457619D01*
X70016667Y42314762D01*
X70111905Y42219524D01*
X70207143Y42171905D01*
X69254762Y42362381D02*
X69207143Y42410000D01*
X69111905Y42457619D01*
X68873809Y42457619D01*
X68778571Y42410000D01*
X68730952Y42362381D01*
X68683333Y42267143D01*
X68683333Y42171905D01*
X68730952Y42029048D01*
X69302381Y41457619D01*
X68683333Y41457619D01*
X76842857Y51617619D02*
X77319048Y51617619D01*
X77319048Y52617619D01*
X75985714Y51617619D02*
X76557143Y51617619D01*
X76271429Y51617619D02*
X76271429Y52617619D01*
X76366667Y52474762D01*
X76461905Y52379524D01*
X76557143Y52331905D01*
X75652381Y52617619D02*
X75033333Y52617619D01*
X75366667Y52236667D01*
X75223809Y52236667D01*
X75128571Y52189048D01*
X75080952Y52141429D01*
X75033333Y52046190D01*
X75033333Y51808095D01*
X75080952Y51712857D01*
X75128571Y51665238D01*
X75223809Y51617619D01*
X75509524Y51617619D01*
X75604762Y51665238D01*
X75652381Y51712857D01*
X76842857Y64317619D02*
X77319048Y64317619D01*
X77319048Y65317619D01*
X75985714Y64317619D02*
X76557143Y64317619D01*
X76271429Y64317619D02*
X76271429Y65317619D01*
X76366667Y65174762D01*
X76461905Y65079524D01*
X76557143Y65031905D01*
X75128571Y64984286D02*
X75128571Y64317619D01*
X75366667Y65365238D02*
X75604762Y64650952D01*
X74985714Y64650952D01*
X83192857Y75747619D02*
X83669048Y75747619D01*
X83669048Y76747619D01*
X82335714Y75747619D02*
X82907143Y75747619D01*
X82621429Y75747619D02*
X82621429Y76747619D01*
X82716667Y76604762D01*
X82811905Y76509524D01*
X82907143Y76461905D01*
X81430952Y76747619D02*
X81907143Y76747619D01*
X81954762Y76271429D01*
X81907143Y76319048D01*
X81811905Y76366667D01*
X81573809Y76366667D01*
X81478571Y76319048D01*
X81430952Y76271429D01*
X81383333Y76176190D01*
X81383333Y75938095D01*
X81430952Y75842857D01*
X81478571Y75795238D01*
X81573809Y75747619D01*
X81811905Y75747619D01*
X81907143Y75795238D01*
X81954762Y75842857D01*
X70492857Y75747619D02*
X70969048Y75747619D01*
X70969048Y76747619D01*
X69635714Y75747619D02*
X70207143Y75747619D01*
X69921429Y75747619D02*
X69921429Y76747619D01*
X70016667Y76604762D01*
X70111905Y76509524D01*
X70207143Y76461905D01*
X68778571Y76747619D02*
X68969048Y76747619D01*
X69064286Y76700000D01*
X69111905Y76652381D01*
X69207143Y76509524D01*
X69254762Y76319048D01*
X69254762Y75938095D01*
X69207143Y75842857D01*
X69159524Y75795238D01*
X69064286Y75747619D01*
X68873809Y75747619D01*
X68778571Y75795238D01*
X68730952Y75842857D01*
X68683333Y75938095D01*
X68683333Y76176190D01*
X68730952Y76271429D01*
X68778571Y76319048D01*
X68873809Y76366667D01*
X69064286Y76366667D01*
X69159524Y76319048D01*
X69207143Y76271429D01*
X69254762Y76176190D01*
X57792857Y75747619D02*
X58269048Y75747619D01*
X58269048Y76747619D01*
X56935714Y75747619D02*
X57507143Y75747619D01*
X57221429Y75747619D02*
X57221429Y76747619D01*
X57316667Y76604762D01*
X57411905Y76509524D01*
X57507143Y76461905D01*
X56602381Y76747619D02*
X55935714Y76747619D01*
X56364286Y75747619D01*
X45092857Y75747619D02*
X45569048Y75747619D01*
X45569048Y76747619D01*
X44235714Y75747619D02*
X44807143Y75747619D01*
X44521429Y75747619D02*
X44521429Y76747619D01*
X44616667Y76604762D01*
X44711905Y76509524D01*
X44807143Y76461905D01*
X43664286Y76319048D02*
X43759524Y76366667D01*
X43807143Y76414286D01*
X43854762Y76509524D01*
X43854762Y76557143D01*
X43807143Y76652381D01*
X43759524Y76700000D01*
X43664286Y76747619D01*
X43473809Y76747619D01*
X43378571Y76700000D01*
X43330952Y76652381D01*
X43283333Y76557143D01*
X43283333Y76509524D01*
X43330952Y76414286D01*
X43378571Y76366667D01*
X43473809Y76319048D01*
X43664286Y76319048D01*
X43759524Y76271429D01*
X43807143Y76223810D01*
X43854762Y76128571D01*
X43854762Y75938095D01*
X43807143Y75842857D01*
X43759524Y75795238D01*
X43664286Y75747619D01*
X43473809Y75747619D01*
X43378571Y75795238D01*
X43330952Y75842857D01*
X43283333Y75938095D01*
X43283333Y76128571D01*
X43330952Y76223810D01*
X43378571Y76271429D01*
X43473809Y76319048D01*
X45092857Y87177619D02*
X45569048Y87177619D01*
X45569048Y88177619D01*
X44235714Y87177619D02*
X44807143Y87177619D01*
X44521429Y87177619D02*
X44521429Y88177619D01*
X44616667Y88034762D01*
X44711905Y87939524D01*
X44807143Y87891905D01*
X43759524Y87177619D02*
X43569048Y87177619D01*
X43473809Y87225238D01*
X43426190Y87272857D01*
X43330952Y87415714D01*
X43283333Y87606190D01*
X43283333Y87987143D01*
X43330952Y88082381D01*
X43378571Y88130000D01*
X43473809Y88177619D01*
X43664286Y88177619D01*
X43759524Y88130000D01*
X43807143Y88082381D01*
X43854762Y87987143D01*
X43854762Y87749048D01*
X43807143Y87653810D01*
X43759524Y87606190D01*
X43664286Y87558571D01*
X43473809Y87558571D01*
X43378571Y87606190D01*
X43330952Y87653810D01*
X43283333Y87749048D01*
X57792857Y87177619D02*
X58269048Y87177619D01*
X58269048Y88177619D01*
X57507143Y88082381D02*
X57459524Y88130000D01*
X57364286Y88177619D01*
X57126190Y88177619D01*
X57030952Y88130000D01*
X56983333Y88082381D01*
X56935714Y87987143D01*
X56935714Y87891905D01*
X56983333Y87749048D01*
X57554762Y87177619D01*
X56935714Y87177619D01*
X56316667Y88177619D02*
X56221428Y88177619D01*
X56126190Y88130000D01*
X56078571Y88082381D01*
X56030952Y87987143D01*
X55983333Y87796667D01*
X55983333Y87558571D01*
X56030952Y87368095D01*
X56078571Y87272857D01*
X56126190Y87225238D01*
X56221428Y87177619D01*
X56316667Y87177619D01*
X56411905Y87225238D01*
X56459524Y87272857D01*
X56507143Y87368095D01*
X56554762Y87558571D01*
X56554762Y87796667D01*
X56507143Y87987143D01*
X56459524Y88082381D01*
X56411905Y88130000D01*
X56316667Y88177619D01*
X70492857Y87177619D02*
X70969048Y87177619D01*
X70969048Y88177619D01*
X70207143Y88082381D02*
X70159524Y88130000D01*
X70064286Y88177619D01*
X69826190Y88177619D01*
X69730952Y88130000D01*
X69683333Y88082381D01*
X69635714Y87987143D01*
X69635714Y87891905D01*
X69683333Y87749048D01*
X70254762Y87177619D01*
X69635714Y87177619D01*
X68683333Y87177619D02*
X69254762Y87177619D01*
X68969048Y87177619D02*
X68969048Y88177619D01*
X69064286Y88034762D01*
X69159524Y87939524D01*
X69254762Y87891905D01*
X83192857Y87177619D02*
X83669048Y87177619D01*
X83669048Y88177619D01*
X82907143Y88082381D02*
X82859524Y88130000D01*
X82764286Y88177619D01*
X82526190Y88177619D01*
X82430952Y88130000D01*
X82383333Y88082381D01*
X82335714Y87987143D01*
X82335714Y87891905D01*
X82383333Y87749048D01*
X82954762Y87177619D01*
X82335714Y87177619D01*
X81954762Y88082381D02*
X81907143Y88130000D01*
X81811905Y88177619D01*
X81573809Y88177619D01*
X81478571Y88130000D01*
X81430952Y88082381D01*
X81383333Y87987143D01*
X81383333Y87891905D01*
X81430952Y87749048D01*
X82002381Y87177619D01*
X81383333Y87177619D01*
X45092857Y97337619D02*
X45569048Y97337619D01*
X45569048Y98337619D01*
X44807143Y98242381D02*
X44759524Y98290000D01*
X44664286Y98337619D01*
X44426190Y98337619D01*
X44330952Y98290000D01*
X44283333Y98242381D01*
X44235714Y98147143D01*
X44235714Y98051905D01*
X44283333Y97909048D01*
X44854762Y97337619D01*
X44235714Y97337619D01*
X43902381Y98337619D02*
X43283333Y98337619D01*
X43616667Y97956667D01*
X43473809Y97956667D01*
X43378571Y97909048D01*
X43330952Y97861429D01*
X43283333Y97766190D01*
X43283333Y97528095D01*
X43330952Y97432857D01*
X43378571Y97385238D01*
X43473809Y97337619D01*
X43759524Y97337619D01*
X43854762Y97385238D01*
X43902381Y97432857D01*
X57792857Y97337619D02*
X58269048Y97337619D01*
X58269048Y98337619D01*
X57507143Y98242381D02*
X57459524Y98290000D01*
X57364286Y98337619D01*
X57126190Y98337619D01*
X57030952Y98290000D01*
X56983333Y98242381D01*
X56935714Y98147143D01*
X56935714Y98051905D01*
X56983333Y97909048D01*
X57554762Y97337619D01*
X56935714Y97337619D01*
X56078571Y98004286D02*
X56078571Y97337619D01*
X56316667Y98385238D02*
X56554762Y97670952D01*
X55935714Y97670952D01*
X70492857Y97337619D02*
X70969048Y97337619D01*
X70969048Y98337619D01*
X70207143Y98242381D02*
X70159524Y98290000D01*
X70064286Y98337619D01*
X69826190Y98337619D01*
X69730952Y98290000D01*
X69683333Y98242381D01*
X69635714Y98147143D01*
X69635714Y98051905D01*
X69683333Y97909048D01*
X70254762Y97337619D01*
X69635714Y97337619D01*
X68730952Y98337619D02*
X69207143Y98337619D01*
X69254762Y97861429D01*
X69207143Y97909048D01*
X69111905Y97956667D01*
X68873809Y97956667D01*
X68778571Y97909048D01*
X68730952Y97861429D01*
X68683333Y97766190D01*
X68683333Y97528095D01*
X68730952Y97432857D01*
X68778571Y97385238D01*
X68873809Y97337619D01*
X69111905Y97337619D01*
X69207143Y97385238D01*
X69254762Y97432857D01*
X83192857Y97337619D02*
X83669048Y97337619D01*
X83669048Y98337619D01*
X82907143Y98242381D02*
X82859524Y98290000D01*
X82764286Y98337619D01*
X82526190Y98337619D01*
X82430952Y98290000D01*
X82383333Y98242381D01*
X82335714Y98147143D01*
X82335714Y98051905D01*
X82383333Y97909048D01*
X82954762Y97337619D01*
X82335714Y97337619D01*
X81478571Y98337619D02*
X81669048Y98337619D01*
X81764286Y98290000D01*
X81811905Y98242381D01*
X81907143Y98099524D01*
X81954762Y97909048D01*
X81954762Y97528095D01*
X81907143Y97432857D01*
X81859524Y97385238D01*
X81764286Y97337619D01*
X81573809Y97337619D01*
X81478571Y97385238D01*
X81430952Y97432857D01*
X81383333Y97528095D01*
X81383333Y97766190D01*
X81430952Y97861429D01*
X81478571Y97909048D01*
X81573809Y97956667D01*
X81764286Y97956667D01*
X81859524Y97909048D01*
X81907143Y97861429D01*
X81954762Y97766190D01*
X89302381Y76238095D02*
X88302381Y76238095D01*
X88302381Y75857142D01*
X88350000Y75761904D01*
X88397619Y75714285D01*
X88492857Y75666666D01*
X88635714Y75666666D01*
X88730952Y75714285D01*
X88778571Y75761904D01*
X88826190Y75857142D01*
X88826190Y76238095D01*
X89302381Y74714285D02*
X89302381Y75285714D01*
X89302381Y75000000D02*
X88302381Y75000000D01*
X88445238Y75095238D01*
X88540476Y75190476D01*
X88588095Y75285714D01*
X32551666Y40822619D02*
X32885000Y41298810D01*
X33123095Y40822619D02*
X33123095Y41822619D01*
X32742142Y41822619D01*
X32646904Y41775000D01*
X32599285Y41727381D01*
X32551666Y41632143D01*
X32551666Y41489286D01*
X32599285Y41394048D01*
X32646904Y41346429D01*
X32742142Y41298810D01*
X33123095Y41298810D01*
X31599285Y40822619D02*
X32170714Y40822619D01*
X31885000Y40822619D02*
X31885000Y41822619D01*
X31980238Y41679762D01*
X32075476Y41584524D01*
X32170714Y41536905D01*
X23026666Y49077619D02*
X23360000Y49553810D01*
X23598095Y49077619D02*
X23598095Y50077619D01*
X23217142Y50077619D01*
X23121904Y50030000D01*
X23074285Y49982381D01*
X23026666Y49887143D01*
X23026666Y49744286D01*
X23074285Y49649048D01*
X23121904Y49601429D01*
X23217142Y49553810D01*
X23598095Y49553810D01*
X22645714Y49982381D02*
X22598095Y50030000D01*
X22502857Y50077619D01*
X22264761Y50077619D01*
X22169523Y50030000D01*
X22121904Y49982381D01*
X22074285Y49887143D01*
X22074285Y49791905D01*
X22121904Y49649048D01*
X22693333Y49077619D01*
X22074285Y49077619D01*
X32551666Y38282619D02*
X32885000Y38758810D01*
X33123095Y38282619D02*
X33123095Y39282619D01*
X32742142Y39282619D01*
X32646904Y39235000D01*
X32599285Y39187381D01*
X32551666Y39092143D01*
X32551666Y38949286D01*
X32599285Y38854048D01*
X32646904Y38806429D01*
X32742142Y38758810D01*
X33123095Y38758810D01*
X32218333Y39282619D02*
X31599285Y39282619D01*
X31932619Y38901667D01*
X31789761Y38901667D01*
X31694523Y38854048D01*
X31646904Y38806429D01*
X31599285Y38711190D01*
X31599285Y38473095D01*
X31646904Y38377857D01*
X31694523Y38330238D01*
X31789761Y38282619D01*
X32075476Y38282619D01*
X32170714Y38330238D01*
X32218333Y38377857D01*
X52522381Y42711666D02*
X52046190Y43045000D01*
X52522381Y43283095D02*
X51522381Y43283095D01*
X51522381Y42902142D01*
X51570000Y42806904D01*
X51617619Y42759285D01*
X51712857Y42711666D01*
X51855714Y42711666D01*
X51950952Y42759285D01*
X51998571Y42806904D01*
X52046190Y42902142D01*
X52046190Y43283095D01*
X51855714Y41854523D02*
X52522381Y41854523D01*
X51474762Y42092619D02*
X52189048Y42330714D01*
X52189048Y41711666D01*
X6167381Y80176666D02*
X5691190Y80510000D01*
X6167381Y80748095D02*
X5167381Y80748095D01*
X5167381Y80367142D01*
X5215000Y80271904D01*
X5262619Y80224285D01*
X5357857Y80176666D01*
X5500714Y80176666D01*
X5595952Y80224285D01*
X5643571Y80271904D01*
X5691190Y80367142D01*
X5691190Y80748095D01*
X5167381Y79271904D02*
X5167381Y79748095D01*
X5643571Y79795714D01*
X5595952Y79748095D01*
X5548333Y79652857D01*
X5548333Y79414761D01*
X5595952Y79319523D01*
X5643571Y79271904D01*
X5738810Y79224285D01*
X5976905Y79224285D01*
X6072143Y79271904D01*
X6119762Y79319523D01*
X6167381Y79414761D01*
X6167381Y79652857D01*
X6119762Y79748095D01*
X6072143Y79795714D01*
X48712381Y29376666D02*
X48236190Y29710000D01*
X48712381Y29948095D02*
X47712381Y29948095D01*
X47712381Y29567142D01*
X47760000Y29471904D01*
X47807619Y29424285D01*
X47902857Y29376666D01*
X48045714Y29376666D01*
X48140952Y29424285D01*
X48188571Y29471904D01*
X48236190Y29567142D01*
X48236190Y29948095D01*
X47712381Y28519523D02*
X47712381Y28710000D01*
X47760000Y28805238D01*
X47807619Y28852857D01*
X47950476Y28948095D01*
X48140952Y28995714D01*
X48521905Y28995714D01*
X48617143Y28948095D01*
X48664762Y28900476D01*
X48712381Y28805238D01*
X48712381Y28614761D01*
X48664762Y28519523D01*
X48617143Y28471904D01*
X48521905Y28424285D01*
X48283810Y28424285D01*
X48188571Y28471904D01*
X48140952Y28519523D01*
X48093333Y28614761D01*
X48093333Y28805238D01*
X48140952Y28900476D01*
X48188571Y28948095D01*
X48283810Y28995714D01*
X24582381Y32551666D02*
X24106190Y32885000D01*
X24582381Y33123095D02*
X23582381Y33123095D01*
X23582381Y32742142D01*
X23630000Y32646904D01*
X23677619Y32599285D01*
X23772857Y32551666D01*
X23915714Y32551666D01*
X24010952Y32599285D01*
X24058571Y32646904D01*
X24106190Y32742142D01*
X24106190Y33123095D01*
X23582381Y32218333D02*
X23582381Y31551666D01*
X24582381Y31980238D01*
X55697381Y36996666D02*
X55221190Y37330000D01*
X55697381Y37568095D02*
X54697381Y37568095D01*
X54697381Y37187142D01*
X54745000Y37091904D01*
X54792619Y37044285D01*
X54887857Y36996666D01*
X55030714Y36996666D01*
X55125952Y37044285D01*
X55173571Y37091904D01*
X55221190Y37187142D01*
X55221190Y37568095D01*
X55125952Y36425238D02*
X55078333Y36520476D01*
X55030714Y36568095D01*
X54935476Y36615714D01*
X54887857Y36615714D01*
X54792619Y36568095D01*
X54745000Y36520476D01*
X54697381Y36425238D01*
X54697381Y36234761D01*
X54745000Y36139523D01*
X54792619Y36091904D01*
X54887857Y36044285D01*
X54935476Y36044285D01*
X55030714Y36091904D01*
X55078333Y36139523D01*
X55125952Y36234761D01*
X55125952Y36425238D01*
X55173571Y36520476D01*
X55221190Y36568095D01*
X55316429Y36615714D01*
X55506905Y36615714D01*
X55602143Y36568095D01*
X55649762Y36520476D01*
X55697381Y36425238D01*
X55697381Y36234761D01*
X55649762Y36139523D01*
X55602143Y36091904D01*
X55506905Y36044285D01*
X55316429Y36044285D01*
X55221190Y36091904D01*
X55173571Y36139523D01*
X55125952Y36234761D01*
X28392381Y36996666D02*
X27916190Y37330000D01*
X28392381Y37568095D02*
X27392381Y37568095D01*
X27392381Y37187142D01*
X27440000Y37091904D01*
X27487619Y37044285D01*
X27582857Y36996666D01*
X27725714Y36996666D01*
X27820952Y37044285D01*
X27868571Y37091904D01*
X27916190Y37187142D01*
X27916190Y37568095D01*
X28392381Y36520476D02*
X28392381Y36330000D01*
X28344762Y36234761D01*
X28297143Y36187142D01*
X28154286Y36091904D01*
X27963810Y36044285D01*
X27582857Y36044285D01*
X27487619Y36091904D01*
X27440000Y36139523D01*
X27392381Y36234761D01*
X27392381Y36425238D01*
X27440000Y36520476D01*
X27487619Y36568095D01*
X27582857Y36615714D01*
X27820952Y36615714D01*
X27916190Y36568095D01*
X27963810Y36520476D01*
X28011429Y36425238D01*
X28011429Y36234761D01*
X27963810Y36139523D01*
X27916190Y36091904D01*
X27820952Y36044285D01*
X60967857Y31297619D02*
X61301191Y31773810D01*
X61539286Y31297619D02*
X61539286Y32297619D01*
X61158333Y32297619D01*
X61063095Y32250000D01*
X61015476Y32202381D01*
X60967857Y32107143D01*
X60967857Y31964286D01*
X61015476Y31869048D01*
X61063095Y31821429D01*
X61158333Y31773810D01*
X61539286Y31773810D01*
X60015476Y31297619D02*
X60586905Y31297619D01*
X60301191Y31297619D02*
X60301191Y32297619D01*
X60396429Y32154762D01*
X60491667Y32059524D01*
X60586905Y32011905D01*
X59110714Y32297619D02*
X59586905Y32297619D01*
X59634524Y31821429D01*
X59586905Y31869048D01*
X59491667Y31916667D01*
X59253571Y31916667D01*
X59158333Y31869048D01*
X59110714Y31821429D01*
X59063095Y31726190D01*
X59063095Y31488095D01*
X59110714Y31392857D01*
X59158333Y31345238D01*
X59253571Y31297619D01*
X59491667Y31297619D01*
X59586905Y31345238D01*
X59634524Y31392857D01*
X48902857Y26852619D02*
X49236191Y27328810D01*
X49474286Y26852619D02*
X49474286Y27852619D01*
X49093333Y27852619D01*
X48998095Y27805000D01*
X48950476Y27757381D01*
X48902857Y27662143D01*
X48902857Y27519286D01*
X48950476Y27424048D01*
X48998095Y27376429D01*
X49093333Y27328810D01*
X49474286Y27328810D01*
X47950476Y26852619D02*
X48521905Y26852619D01*
X48236191Y26852619D02*
X48236191Y27852619D01*
X48331429Y27709762D01*
X48426667Y27614524D01*
X48521905Y27566905D01*
X47093333Y27852619D02*
X47283810Y27852619D01*
X47379048Y27805000D01*
X47426667Y27757381D01*
X47521905Y27614524D01*
X47569524Y27424048D01*
X47569524Y27043095D01*
X47521905Y26947857D01*
X47474286Y26900238D01*
X47379048Y26852619D01*
X47188571Y26852619D01*
X47093333Y26900238D01*
X47045714Y26947857D01*
X46998095Y27043095D01*
X46998095Y27281190D01*
X47045714Y27376429D01*
X47093333Y27424048D01*
X47188571Y27471667D01*
X47379048Y27471667D01*
X47474286Y27424048D01*
X47521905Y27376429D01*
X47569524Y27281190D01*
X48902857Y24312619D02*
X49236191Y24788810D01*
X49474286Y24312619D02*
X49474286Y25312619D01*
X49093333Y25312619D01*
X48998095Y25265000D01*
X48950476Y25217381D01*
X48902857Y25122143D01*
X48902857Y24979286D01*
X48950476Y24884048D01*
X48998095Y24836429D01*
X49093333Y24788810D01*
X49474286Y24788810D01*
X47950476Y24312619D02*
X48521905Y24312619D01*
X48236191Y24312619D02*
X48236191Y25312619D01*
X48331429Y25169762D01*
X48426667Y25074524D01*
X48521905Y25026905D01*
X47617143Y25312619D02*
X46950476Y25312619D01*
X47379048Y24312619D01*
X53347857Y19232619D02*
X53681191Y19708810D01*
X53919286Y19232619D02*
X53919286Y20232619D01*
X53538333Y20232619D01*
X53443095Y20185000D01*
X53395476Y20137381D01*
X53347857Y20042143D01*
X53347857Y19899286D01*
X53395476Y19804048D01*
X53443095Y19756429D01*
X53538333Y19708810D01*
X53919286Y19708810D01*
X52395476Y19232619D02*
X52966905Y19232619D01*
X52681191Y19232619D02*
X52681191Y20232619D01*
X52776429Y20089762D01*
X52871667Y19994524D01*
X52966905Y19946905D01*
X51919286Y19232619D02*
X51728810Y19232619D01*
X51633571Y19280238D01*
X51585952Y19327857D01*
X51490714Y19470714D01*
X51443095Y19661190D01*
X51443095Y20042143D01*
X51490714Y20137381D01*
X51538333Y20185000D01*
X51633571Y20232619D01*
X51824048Y20232619D01*
X51919286Y20185000D01*
X51966905Y20137381D01*
X52014524Y20042143D01*
X52014524Y19804048D01*
X51966905Y19708810D01*
X51919286Y19661190D01*
X51824048Y19613571D01*
X51633571Y19613571D01*
X51538333Y19661190D01*
X51490714Y19708810D01*
X51443095Y19804048D01*
X36202857Y20502619D02*
X36536191Y20978810D01*
X36774286Y20502619D02*
X36774286Y21502619D01*
X36393333Y21502619D01*
X36298095Y21455000D01*
X36250476Y21407381D01*
X36202857Y21312143D01*
X36202857Y21169286D01*
X36250476Y21074048D01*
X36298095Y21026429D01*
X36393333Y20978810D01*
X36774286Y20978810D01*
X35821905Y21407381D02*
X35774286Y21455000D01*
X35679048Y21502619D01*
X35440952Y21502619D01*
X35345714Y21455000D01*
X35298095Y21407381D01*
X35250476Y21312143D01*
X35250476Y21216905D01*
X35298095Y21074048D01*
X35869524Y20502619D01*
X35250476Y20502619D01*
X34631429Y21502619D02*
X34536190Y21502619D01*
X34440952Y21455000D01*
X34393333Y21407381D01*
X34345714Y21312143D01*
X34298095Y21121667D01*
X34298095Y20883571D01*
X34345714Y20693095D01*
X34393333Y20597857D01*
X34440952Y20550238D01*
X34536190Y20502619D01*
X34631429Y20502619D01*
X34726667Y20550238D01*
X34774286Y20597857D01*
X34821905Y20693095D01*
X34869524Y20883571D01*
X34869524Y21121667D01*
X34821905Y21312143D01*
X34774286Y21407381D01*
X34726667Y21455000D01*
X34631429Y21502619D01*
X46172381Y15882857D02*
X45696190Y16216191D01*
X46172381Y16454286D02*
X45172381Y16454286D01*
X45172381Y16073333D01*
X45220000Y15978095D01*
X45267619Y15930476D01*
X45362857Y15882857D01*
X45505714Y15882857D01*
X45600952Y15930476D01*
X45648571Y15978095D01*
X45696190Y16073333D01*
X45696190Y16454286D01*
X45267619Y15501905D02*
X45220000Y15454286D01*
X45172381Y15359048D01*
X45172381Y15120952D01*
X45220000Y15025714D01*
X45267619Y14978095D01*
X45362857Y14930476D01*
X45458095Y14930476D01*
X45600952Y14978095D01*
X46172381Y15549524D01*
X46172381Y14930476D01*
X46172381Y13978095D02*
X46172381Y14549524D01*
X46172381Y14263810D02*
X45172381Y14263810D01*
X45315238Y14359048D01*
X45410476Y14454286D01*
X45458095Y14549524D01*
X43267381Y29971905D02*
X44076905Y29971905D01*
X44172143Y29924286D01*
X44219762Y29876667D01*
X44267381Y29781429D01*
X44267381Y29590952D01*
X44219762Y29495714D01*
X44172143Y29448095D01*
X44076905Y29400476D01*
X43267381Y29400476D01*
X43362619Y28971905D02*
X43315000Y28924286D01*
X43267381Y28829048D01*
X43267381Y28590952D01*
X43315000Y28495714D01*
X43362619Y28448095D01*
X43457857Y28400476D01*
X43553095Y28400476D01*
X43695952Y28448095D01*
X44267381Y29019524D01*
X44267381Y28400476D01*
X10882381Y41401905D02*
X11691905Y41401905D01*
X11787143Y41354286D01*
X11834762Y41306667D01*
X11882381Y41211429D01*
X11882381Y41020952D01*
X11834762Y40925714D01*
X11787143Y40878095D01*
X11691905Y40830476D01*
X10882381Y40830476D01*
X10882381Y40449524D02*
X10882381Y39830476D01*
X11263333Y40163810D01*
X11263333Y40020952D01*
X11310952Y39925714D01*
X11358571Y39878095D01*
X11453810Y39830476D01*
X11691905Y39830476D01*
X11787143Y39878095D01*
X11834762Y39925714D01*
X11882381Y40020952D01*
X11882381Y40306667D01*
X11834762Y40401905D01*
X11787143Y40449524D01*
X33742381Y36321905D02*
X34551905Y36321905D01*
X34647143Y36274286D01*
X34694762Y36226667D01*
X34742381Y36131429D01*
X34742381Y35940952D01*
X34694762Y35845714D01*
X34647143Y35798095D01*
X34551905Y35750476D01*
X33742381Y35750476D01*
X34075714Y34845714D02*
X34742381Y34845714D01*
X33694762Y35083810D02*
X34409048Y35321905D01*
X34409048Y34702857D01*
X11517381Y89661905D02*
X12326905Y89661905D01*
X12422143Y89614286D01*
X12469762Y89566667D01*
X12517381Y89471429D01*
X12517381Y89280952D01*
X12469762Y89185714D01*
X12422143Y89138095D01*
X12326905Y89090476D01*
X11517381Y89090476D01*
X11517381Y88709524D02*
X11517381Y88042857D01*
X12517381Y88471429D01*
X37306191Y55903810D02*
X37306191Y55427619D01*
X37639524Y56427619D02*
X37306191Y55903810D01*
X36972857Y56427619D01*
X36687143Y56332381D02*
X36639524Y56380000D01*
X36544286Y56427619D01*
X36306190Y56427619D01*
X36210952Y56380000D01*
X36163333Y56332381D01*
X36115714Y56237143D01*
X36115714Y56141905D01*
X36163333Y55999048D01*
X36734762Y55427619D01*
X36115714Y55427619D01*
X11358571Y97305714D02*
X11406190Y97162857D01*
X11453810Y97115238D01*
X11549048Y97067619D01*
X11691905Y97067619D01*
X11787143Y97115238D01*
X11834762Y97162857D01*
X11882381Y97258095D01*
X11882381Y97639048D01*
X10882381Y97639048D01*
X10882381Y97305714D01*
X10930000Y97210476D01*
X10977619Y97162857D01*
X11072857Y97115238D01*
X11168095Y97115238D01*
X11263333Y97162857D01*
X11310952Y97210476D01*
X11358571Y97305714D01*
X11358571Y97639048D01*
X10882381Y96781905D02*
X10882381Y96210476D01*
X11882381Y96496191D02*
X10882381Y96496191D01*
X11882381Y95353333D02*
X11882381Y95924762D01*
X11882381Y95639048D02*
X10882381Y95639048D01*
X11025238Y95734286D01*
X11120476Y95829524D01*
X11168095Y95924762D01*
X18581429Y92781429D02*
X18438572Y92733810D01*
X18390953Y92686190D01*
X18343334Y92590952D01*
X18343334Y92448095D01*
X18390953Y92352857D01*
X18438572Y92305238D01*
X18533810Y92257619D01*
X18914763Y92257619D01*
X18914763Y93257619D01*
X18581429Y93257619D01*
X18486191Y93210000D01*
X18438572Y93162381D01*
X18390953Y93067143D01*
X18390953Y92971905D01*
X18438572Y92876667D01*
X18486191Y92829048D01*
X18581429Y92781429D01*
X18914763Y92781429D01*
X17486191Y92257619D02*
X17486191Y92781429D01*
X17533810Y92876667D01*
X17629048Y92924286D01*
X17819525Y92924286D01*
X17914763Y92876667D01*
X17486191Y92305238D02*
X17581429Y92257619D01*
X17819525Y92257619D01*
X17914763Y92305238D01*
X17962382Y92400476D01*
X17962382Y92495714D01*
X17914763Y92590952D01*
X17819525Y92638571D01*
X17581429Y92638571D01*
X17486191Y92686190D01*
X17152858Y92924286D02*
X16771906Y92924286D01*
X17010001Y93257619D02*
X17010001Y92400476D01*
X16962382Y92305238D01*
X16867144Y92257619D01*
X16771906Y92257619D01*
X16581429Y92924286D02*
X16200477Y92924286D01*
X16438572Y93257619D02*
X16438572Y92400476D01*
X16390953Y92305238D01*
X16295715Y92257619D01*
X16200477Y92257619D01*
X15486190Y92305238D02*
X15581428Y92257619D01*
X15771905Y92257619D01*
X15867143Y92305238D01*
X15914762Y92400476D01*
X15914762Y92781429D01*
X15867143Y92876667D01*
X15771905Y92924286D01*
X15581428Y92924286D01*
X15486190Y92876667D01*
X15438571Y92781429D01*
X15438571Y92686190D01*
X15914762Y92590952D01*
X15010000Y92257619D02*
X15010000Y92924286D01*
X15010000Y92733810D02*
X14962381Y92829048D01*
X14914762Y92876667D01*
X14819524Y92924286D01*
X14724285Y92924286D01*
X14486190Y92924286D02*
X14248095Y92257619D01*
X14009999Y92924286D02*
X14248095Y92257619D01*
X14343333Y92019524D01*
X14390952Y91971905D01*
X14486190Y91924286D01*
X14708095Y66857619D02*
X14708095Y67857619D01*
X14327142Y67857619D01*
X14231904Y67810000D01*
X14184285Y67762381D01*
X14136666Y67667143D01*
X14136666Y67524286D01*
X14184285Y67429048D01*
X14231904Y67381429D01*
X14327142Y67333810D01*
X14708095Y67333810D01*
X13755714Y67762381D02*
X13708095Y67810000D01*
X13612857Y67857619D01*
X13374761Y67857619D01*
X13279523Y67810000D01*
X13231904Y67762381D01*
X13184285Y67667143D01*
X13184285Y67571905D01*
X13231904Y67429048D01*
X13803333Y66857619D01*
X13184285Y66857619D01*
X9850238Y75477619D02*
X9850238Y74668095D01*
X9802619Y74572857D01*
X9755000Y74525238D01*
X9659762Y74477619D01*
X9469285Y74477619D01*
X9374047Y74525238D01*
X9326428Y74572857D01*
X9278809Y74668095D01*
X9278809Y75477619D01*
X8850238Y74763333D02*
X8374047Y74763333D01*
X8945476Y74477619D02*
X8612143Y75477619D01*
X8278809Y74477619D01*
X7374047Y74477619D02*
X7707381Y74953810D01*
X7945476Y74477619D02*
X7945476Y75477619D01*
X7564523Y75477619D01*
X7469285Y75430000D01*
X7421666Y75382381D01*
X7374047Y75287143D01*
X7374047Y75144286D01*
X7421666Y75049048D01*
X7469285Y75001429D01*
X7564523Y74953810D01*
X7945476Y74953810D01*
X7088333Y75477619D02*
X6516904Y75477619D01*
X6802619Y74477619D02*
X6802619Y75477619D01*
X29948095Y66857619D02*
X29948095Y67857619D01*
X29567142Y67857619D01*
X29471904Y67810000D01*
X29424285Y67762381D01*
X29376666Y67667143D01*
X29376666Y67524286D01*
X29424285Y67429048D01*
X29471904Y67381429D01*
X29567142Y67333810D01*
X29948095Y67333810D01*
X29043333Y67857619D02*
X28424285Y67857619D01*
X28757619Y67476667D01*
X28614761Y67476667D01*
X28519523Y67429048D01*
X28471904Y67381429D01*
X28424285Y67286190D01*
X28424285Y67048095D01*
X28471904Y66952857D01*
X28519523Y66905238D01*
X28614761Y66857619D01*
X28900476Y66857619D01*
X28995714Y66905238D01*
X29043333Y66952857D01*
X25106190Y74477619D02*
X25106190Y75477619D01*
X24677619Y75382381D02*
X24630000Y75430000D01*
X24534762Y75477619D01*
X24296666Y75477619D01*
X24201428Y75430000D01*
X24153809Y75382381D01*
X24106190Y75287143D01*
X24106190Y75191905D01*
X24153809Y75049048D01*
X24725238Y74477619D01*
X24106190Y74477619D01*
X23106190Y74572857D02*
X23153809Y74525238D01*
X23296666Y74477619D01*
X23391904Y74477619D01*
X23534762Y74525238D01*
X23630000Y74620476D01*
X23677619Y74715714D01*
X23725238Y74906190D01*
X23725238Y75049048D01*
X23677619Y75239524D01*
X23630000Y75334762D01*
X23534762Y75430000D01*
X23391904Y75477619D01*
X23296666Y75477619D01*
X23153809Y75430000D01*
X23106190Y75382381D01*
X22677381Y97258095D02*
X21677381Y97258095D01*
X21677381Y96877142D01*
X21725000Y96781904D01*
X21772619Y96734285D01*
X21867857Y96686666D01*
X22010714Y96686666D01*
X22105952Y96734285D01*
X22153571Y96781904D01*
X22201190Y96877142D01*
X22201190Y97258095D01*
X22010714Y95829523D02*
X22677381Y95829523D01*
X21629762Y96067619D02*
X22344048Y96305714D01*
X22344048Y95686666D01*
X36790000Y92305238D02*
X36647143Y92257619D01*
X36409047Y92257619D01*
X36313809Y92305238D01*
X36266190Y92352857D01*
X36218571Y92448095D01*
X36218571Y92543333D01*
X36266190Y92638571D01*
X36313809Y92686190D01*
X36409047Y92733810D01*
X36599524Y92781429D01*
X36694762Y92829048D01*
X36742381Y92876667D01*
X36790000Y92971905D01*
X36790000Y93067143D01*
X36742381Y93162381D01*
X36694762Y93210000D01*
X36599524Y93257619D01*
X36361428Y93257619D01*
X36218571Y93210000D01*
X35885238Y93257619D02*
X35647143Y92257619D01*
X35456666Y92971905D01*
X35266190Y92257619D01*
X35028095Y93257619D01*
X34647143Y92257619D02*
X34647143Y93257619D01*
X34313810Y93257619D02*
X33742381Y93257619D01*
X34028096Y92257619D02*
X34028096Y93257619D01*
X32837619Y92352857D02*
X32885238Y92305238D01*
X33028095Y92257619D01*
X33123333Y92257619D01*
X33266191Y92305238D01*
X33361429Y92400476D01*
X33409048Y92495714D01*
X33456667Y92686190D01*
X33456667Y92829048D01*
X33409048Y93019524D01*
X33361429Y93114762D01*
X33266191Y93210000D01*
X33123333Y93257619D01*
X33028095Y93257619D01*
X32885238Y93210000D01*
X32837619Y93162381D01*
X32409048Y92257619D02*
X32409048Y93257619D01*
X32409048Y92781429D02*
X31837619Y92781429D01*
X31837619Y92257619D02*
X31837619Y93257619D01*
%LPC*%
D12*
X66040000Y45085000D03*
D13*
X63500000Y45085000D03*
X60960000Y45085000D03*
X58420000Y45085000D03*
X55880000Y45085000D03*
X53340000Y45085000D03*
X50800000Y45085000D03*
X48260000Y45085000D03*
X45720000Y45085000D03*
X43180000Y45085000D03*
X40640000Y45085000D03*
X38100000Y45085000D03*
X35560000Y45085000D03*
X33020000Y45085000D03*
X30480000Y45085000D03*
X27940000Y45085000D03*
X25400000Y45085000D03*
X22860000Y45085000D03*
X20320000Y45085000D03*
X17780000Y45085000D03*
X15240000Y45085000D03*
X12700000Y45085000D03*
X10160000Y45085000D03*
X7620000Y45085000D03*
X5080000Y45085000D03*
X2540000Y45085000D03*
X5080000Y65405000D03*
X7620000Y65405000D03*
X10160000Y65405000D03*
X12700000Y65405000D03*
X15240000Y65405000D03*
X17780000Y65405000D03*
X20320000Y65405000D03*
X22860000Y65405000D03*
X25400000Y65405000D03*
X27940000Y65405000D03*
X30480000Y65405000D03*
X33020000Y65405000D03*
X35560000Y65405000D03*
X38100000Y65405000D03*
X40640000Y65405000D03*
X43180000Y65405000D03*
X45720000Y65405000D03*
X48260000Y65405000D03*
X50800000Y65405000D03*
X53340000Y65405000D03*
X55880000Y65405000D03*
X58420000Y65405000D03*
X60960000Y65405000D03*
X63500000Y65405000D03*
X66040000Y65405000D03*
X2540000Y65405000D03*
D14*
X1270000Y47625000D03*
D15*
X6270000Y47625000D03*
D14*
X16510000Y74295000D03*
D15*
X11510000Y74295000D03*
D14*
X31750000Y74295000D03*
D15*
X26750000Y74295000D03*
D14*
X62230000Y62865000D03*
D15*
X67230000Y62865000D03*
D16*
X45720000Y41275000D03*
D17*
X45720000Y38775000D03*
D16*
X37465000Y26035000D03*
D17*
X39965000Y26035000D03*
D16*
X33655000Y7620000D03*
D17*
X33655000Y15120000D03*
D18*
X20320000Y89535000D03*
X22860000Y89535000D03*
D19*
X67310000Y10715000D03*
D20*
X67310000Y5715000D03*
D18*
X31115000Y27305000D03*
X33655000Y27305000D03*
X8255000Y86995000D03*
X8255000Y84455000D03*
D21*
X17780000Y24130000D03*
X17780000Y16210000D03*
D19*
X2580000Y27670000D03*
X2580000Y12670000D03*
D22*
X9523780Y8892960D03*
D23*
X24763780Y8892960D03*
D22*
X26036220Y3172040D03*
D23*
X10796220Y3172040D03*
D22*
X24767960Y29529220D03*
D23*
X24767960Y14289220D03*
D22*
X21591220Y31112040D03*
D23*
X6351220Y31112040D03*
D24*
X29845000Y32385000D03*
D25*
X33655000Y32385000D03*
D24*
X14605000Y79375000D03*
D25*
X10795000Y79375000D03*
D22*
X71756220Y18412040D03*
D23*
X56516220Y18412040D03*
D24*
X30480000Y92075000D03*
D25*
X26670000Y92075000D03*
D24*
X51435000Y8255000D03*
X59055000Y8255000D03*
D26*
X93345000Y49190000D03*
X93345000Y57490000D03*
X93345000Y36490000D03*
X93345000Y44790000D03*
X93345000Y23790000D03*
X93345000Y32090000D03*
X93345000Y11090000D03*
X93345000Y19390000D03*
D27*
X76495000Y5715000D03*
X84795000Y5715000D03*
X76495000Y16510000D03*
X84795000Y16510000D03*
X76495000Y27305000D03*
X84795000Y27305000D03*
X63795000Y27305000D03*
X72095000Y27305000D03*
X76495000Y38100000D03*
X84795000Y38100000D03*
X63795000Y38100000D03*
X72095000Y38100000D03*
X70145000Y49212000D03*
X78445000Y49212000D03*
X70145000Y61912000D03*
X78445000Y61912000D03*
X76495000Y73025000D03*
X84795000Y73025000D03*
X63795000Y73025000D03*
X72095000Y73025000D03*
X51095000Y73025000D03*
X59395000Y73025000D03*
X38395000Y73025000D03*
X46695000Y73025000D03*
X38395000Y83820000D03*
X46695000Y83820000D03*
X51095000Y83820000D03*
X59395000Y83820000D03*
X63795000Y83820000D03*
X72095000Y83820000D03*
X76495000Y83820000D03*
X84795000Y83820000D03*
X38395000Y94615000D03*
X46695000Y94615000D03*
X51095000Y94615000D03*
X59395000Y94615000D03*
X63795000Y94615000D03*
X72095000Y94615000D03*
X76495000Y94615000D03*
X84795000Y94615000D03*
D28*
X95200000Y61075000D03*
D29*
X90500000Y63500000D03*
X96200000Y63500000D03*
X90500000Y64500000D03*
X96200000Y64500000D03*
X90500000Y65500000D03*
X96200000Y65500000D03*
X90500000Y66500000D03*
X96200000Y66500000D03*
X90500000Y67500000D03*
X96200000Y67500000D03*
X90500000Y68500000D03*
X96200000Y68500000D03*
X90500000Y69500000D03*
X96200000Y69500000D03*
X90500000Y70500000D03*
X96200000Y70500000D03*
X90500000Y71500000D03*
X96200000Y71500000D03*
X90500000Y72500000D03*
X96200000Y72500000D03*
X90500000Y73500000D03*
X96200000Y73500000D03*
X90500000Y74500000D03*
X96200000Y74500000D03*
X90500000Y75500000D03*
X96200000Y75500000D03*
X90500000Y76500000D03*
X96200000Y76500000D03*
X90500000Y77500000D03*
X96200000Y77500000D03*
X90500000Y78500000D03*
X96200000Y78500000D03*
X90500000Y79500000D03*
X96200000Y79500000D03*
X90500000Y80500000D03*
X96200000Y80500000D03*
X90500000Y81500000D03*
X96200000Y81500000D03*
X90500000Y82500000D03*
X96200000Y82500000D03*
X90500000Y83500000D03*
X96200000Y83500000D03*
X90500000Y84500000D03*
X96200000Y84500000D03*
X90500000Y85500000D03*
X96200000Y85500000D03*
X90500000Y86500000D03*
X96200000Y86500000D03*
X90500000Y87500000D03*
X96200000Y87500000D03*
D28*
X95200000Y89925000D03*
D30*
X41275000Y20320000D03*
X43815000Y20320000D03*
X38735000Y20320000D03*
D31*
X41275000Y3556000D03*
D32*
X34290000Y41275000D03*
X43180000Y41275000D03*
X17145000Y47625000D03*
X26035000Y47625000D03*
X34290000Y38735000D03*
X43180000Y38735000D03*
X50800000Y32385000D03*
X50800000Y41275000D03*
X3175000Y78105000D03*
X3175000Y86995000D03*
X48260000Y31115000D03*
X48260000Y40005000D03*
X22860000Y33655000D03*
X22860000Y42545000D03*
X53340000Y41275000D03*
X53340000Y32385000D03*
X25400000Y42545000D03*
X25400000Y33655000D03*
X59690000Y29845000D03*
X50800000Y29845000D03*
X59690000Y27305000D03*
X50800000Y27305000D03*
X50800000Y24765000D03*
X59690000Y24765000D03*
X50800000Y22225000D03*
X59690000Y22225000D03*
X45720000Y22860000D03*
X36830000Y22860000D03*
D33*
X48260000Y20320000D03*
X48260000Y5080000D03*
D13*
X44450000Y33655000D03*
X44450000Y36195000D03*
X44450000Y31115000D03*
D34*
X16510000Y42545000D03*
X19050000Y42545000D03*
X19050000Y34925000D03*
X16510000Y34925000D03*
X37465000Y36195000D03*
X40005000Y36195000D03*
X40005000Y28575000D03*
X37465000Y28575000D03*
D13*
X14605000Y84455000D03*
X14605000Y81915000D03*
X14605000Y86995000D03*
D35*
X37579300Y47625000D03*
X36080700Y47625000D03*
D36*
X15240000Y95885000D03*
D37*
X17780000Y95885000D03*
D38*
X15240000Y70485000D03*
D39*
X17780000Y70485000D03*
D38*
X12700000Y70485000D03*
X10160000Y70485000D03*
X30480000Y70485000D03*
D39*
X33020000Y70485000D03*
D38*
X27940000Y70485000D03*
X25400000Y70485000D03*
X30480000Y95885000D03*
D39*
X33020000Y95885000D03*
D38*
X27940000Y95885000D03*
X25400000Y95885000D03*
M02*
