G04 #@! TF.FileFunction,Copper,L2,Bot,Signal*
%FSLAX46Y46*%
G04 Gerber Fmt 4.6, Leading zero omitted, Abs format (unit mm)*
G04 Created by KiCad (PCBNEW 4.0.0-rc1-stable) date 2015/09/16 10:56:13*
%MOMM*%
G01*
G04 APERTURE LIST*
%ADD10C,0.100000*%
%ADD11R,1.524000X1.524000*%
%ADD12C,1.524000*%
%ADD13R,1.400000X1.400000*%
%ADD14C,1.400000*%
%ADD15R,1.300000X1.300000*%
%ADD16C,1.300000*%
%ADD17C,1.501140*%
%ADD18C,1.700000*%
%ADD19R,1.700000X1.700000*%
%ADD20C,3.000000*%
%ADD21C,2.540000*%
%ADD22R,2.540000X2.540000*%
%ADD23C,1.998980*%
%ADD24R,1.998980X1.998980*%
%ADD25R,3.600000X2.700000*%
%ADD26R,2.700000X3.600000*%
%ADD27R,1.800000X1.750000*%
%ADD28R,1.600000X0.600000*%
%ADD29O,1.699260X3.500120*%
%ADD30C,1.397000*%
%ADD31C,1.778000*%
%ADD32O,1.600000X1.600000*%
%ADD33C,1.000760*%
%ADD34C,2.000000*%
%ADD35R,2.000000X2.000000*%
%ADD36C,1.800000*%
%ADD37R,1.800000X1.800000*%
%ADD38C,0.500000*%
%ADD39C,0.400000*%
%ADD40C,0.500000*%
%ADD41C,3.000000*%
%ADD42C,0.200000*%
%ADD43C,0.400000*%
%ADD44C,0.254000*%
G04 APERTURE END LIST*
D10*
D11*
X66040000Y45085000D03*
D12*
X63500000Y45085000D03*
X60960000Y45085000D03*
X58420000Y45085000D03*
X55880000Y45085000D03*
X53340000Y45085000D03*
X50800000Y45085000D03*
X48260000Y45085000D03*
X45720000Y45085000D03*
X43180000Y45085000D03*
X40640000Y45085000D03*
X38100000Y45085000D03*
X35560000Y45085000D03*
X33020000Y45085000D03*
X30480000Y45085000D03*
X27940000Y45085000D03*
X25400000Y45085000D03*
X22860000Y45085000D03*
X20320000Y45085000D03*
X17780000Y45085000D03*
X15240000Y45085000D03*
X12700000Y45085000D03*
X10160000Y45085000D03*
X7620000Y45085000D03*
X5080000Y45085000D03*
X2540000Y45085000D03*
X5080000Y65405000D03*
X7620000Y65405000D03*
X10160000Y65405000D03*
X12700000Y65405000D03*
X15240000Y65405000D03*
X17780000Y65405000D03*
X20320000Y65405000D03*
X22860000Y65405000D03*
X25400000Y65405000D03*
X27940000Y65405000D03*
X30480000Y65405000D03*
X33020000Y65405000D03*
X35560000Y65405000D03*
X38100000Y65405000D03*
X40640000Y65405000D03*
X43180000Y65405000D03*
X45720000Y65405000D03*
X48260000Y65405000D03*
X50800000Y65405000D03*
X53340000Y65405000D03*
X55880000Y65405000D03*
X58420000Y65405000D03*
X60960000Y65405000D03*
X63500000Y65405000D03*
X66040000Y65405000D03*
X2540000Y65405000D03*
D13*
X1270000Y47625000D03*
D14*
X6270000Y47625000D03*
D13*
X16510000Y74295000D03*
D14*
X11510000Y74295000D03*
D13*
X31750000Y74295000D03*
D14*
X26750000Y74295000D03*
D13*
X62230000Y62865000D03*
D14*
X67230000Y62865000D03*
D15*
X45720000Y41275000D03*
D16*
X45720000Y38775000D03*
D15*
X37465000Y26035000D03*
D16*
X39965000Y26035000D03*
D15*
X33655000Y7620000D03*
D16*
X33655000Y15120000D03*
D17*
X20320000Y89535000D03*
X22860000Y89535000D03*
D18*
X67310000Y10715000D03*
D19*
X67310000Y5715000D03*
D17*
X31115000Y27305000D03*
X33655000Y27305000D03*
X8255000Y86995000D03*
X8255000Y84455000D03*
D20*
X17780000Y24130000D03*
X17780000Y16210000D03*
D21*
X9523780Y8892960D03*
D22*
X24763780Y8892960D03*
D21*
X26036220Y3172040D03*
D22*
X10796220Y3172040D03*
D21*
X24767960Y29529220D03*
D22*
X24767960Y14289220D03*
D21*
X21591220Y31112040D03*
D22*
X6351220Y31112040D03*
D23*
X29845000Y32385000D03*
D24*
X33655000Y32385000D03*
D23*
X14605000Y79375000D03*
D24*
X10795000Y79375000D03*
D21*
X71756220Y18412040D03*
D22*
X56516220Y18412040D03*
D23*
X30480000Y92075000D03*
D24*
X26670000Y92075000D03*
D23*
X51435000Y8255000D03*
X59055000Y8255000D03*
D25*
X93345000Y49190000D03*
X93345000Y57490000D03*
X93345000Y36490000D03*
X93345000Y44790000D03*
X93345000Y23790000D03*
X93345000Y32090000D03*
X93345000Y11090000D03*
X93345000Y19390000D03*
D26*
X76495000Y5715000D03*
X84795000Y5715000D03*
X76495000Y16510000D03*
X84795000Y16510000D03*
X76495000Y27305000D03*
X84795000Y27305000D03*
X63795000Y27305000D03*
X72095000Y27305000D03*
X76495000Y38100000D03*
X84795000Y38100000D03*
X63795000Y38100000D03*
X72095000Y38100000D03*
X70145000Y49212000D03*
X78445000Y49212000D03*
X70145000Y61912000D03*
X78445000Y61912000D03*
X76495000Y73025000D03*
X84795000Y73025000D03*
X63795000Y73025000D03*
X72095000Y73025000D03*
X51095000Y73025000D03*
X59395000Y73025000D03*
X38395000Y73025000D03*
X46695000Y73025000D03*
X38395000Y83820000D03*
X46695000Y83820000D03*
X51095000Y83820000D03*
X59395000Y83820000D03*
X63795000Y83820000D03*
X72095000Y83820000D03*
X76495000Y83820000D03*
X84795000Y83820000D03*
X38395000Y94615000D03*
X46695000Y94615000D03*
X51095000Y94615000D03*
X59395000Y94615000D03*
X63795000Y94615000D03*
X72095000Y94615000D03*
X76495000Y94615000D03*
X84795000Y94615000D03*
D27*
X95200000Y61075000D03*
D28*
X90500000Y63500000D03*
X96200000Y63500000D03*
X90500000Y64500000D03*
X96200000Y64500000D03*
X90500000Y65500000D03*
X96200000Y65500000D03*
X90500000Y66500000D03*
X96200000Y66500000D03*
X90500000Y67500000D03*
X96200000Y67500000D03*
X90500000Y68500000D03*
X96200000Y68500000D03*
X90500000Y69500000D03*
X96200000Y69500000D03*
X90500000Y70500000D03*
X96200000Y70500000D03*
X90500000Y71500000D03*
X96200000Y71500000D03*
X90500000Y72500000D03*
X96200000Y72500000D03*
X90500000Y73500000D03*
X96200000Y73500000D03*
X90500000Y74500000D03*
X96200000Y74500000D03*
X90500000Y75500000D03*
X96200000Y75500000D03*
X90500000Y76500000D03*
X96200000Y76500000D03*
X90500000Y77500000D03*
X96200000Y77500000D03*
X90500000Y78500000D03*
X96200000Y78500000D03*
X90500000Y79500000D03*
X96200000Y79500000D03*
X90500000Y80500000D03*
X96200000Y80500000D03*
X90500000Y81500000D03*
X96200000Y81500000D03*
X90500000Y82500000D03*
X96200000Y82500000D03*
X90500000Y83500000D03*
X96200000Y83500000D03*
X90500000Y84500000D03*
X96200000Y84500000D03*
X90500000Y85500000D03*
X96200000Y85500000D03*
X90500000Y86500000D03*
X96200000Y86500000D03*
X90500000Y87500000D03*
X96200000Y87500000D03*
D27*
X95200000Y89925000D03*
D29*
X41275000Y20320000D03*
X43815000Y20320000D03*
X38735000Y20320000D03*
D30*
X34290000Y41275000D03*
X43180000Y41275000D03*
X17145000Y47625000D03*
X26035000Y47625000D03*
X34290000Y38735000D03*
X43180000Y38735000D03*
X50800000Y32385000D03*
X50800000Y41275000D03*
X3175000Y78105000D03*
X3175000Y86995000D03*
X48260000Y31115000D03*
X48260000Y40005000D03*
X22860000Y33655000D03*
X22860000Y42545000D03*
X53340000Y41275000D03*
X53340000Y32385000D03*
X25400000Y42545000D03*
X25400000Y33655000D03*
X59690000Y29845000D03*
X50800000Y29845000D03*
X59690000Y27305000D03*
X50800000Y27305000D03*
X50800000Y24765000D03*
X59690000Y24765000D03*
X50800000Y22225000D03*
X59690000Y22225000D03*
X45720000Y22860000D03*
X36830000Y22860000D03*
D31*
X48260000Y20320000D03*
X48260000Y5080000D03*
D12*
X44450000Y33655000D03*
X44450000Y36195000D03*
X44450000Y31115000D03*
D32*
X16510000Y42545000D03*
X19050000Y42545000D03*
X19050000Y34925000D03*
X16510000Y34925000D03*
X37465000Y36195000D03*
X40005000Y36195000D03*
X40005000Y28575000D03*
X37465000Y28575000D03*
D12*
X14605000Y84455000D03*
X14605000Y81915000D03*
X14605000Y86995000D03*
D33*
X37579300Y47625000D03*
X36080700Y47625000D03*
D34*
X15240000Y95885000D03*
D35*
X17780000Y95885000D03*
D36*
X15240000Y70485000D03*
D37*
X17780000Y70485000D03*
D36*
X12700000Y70485000D03*
X10160000Y70485000D03*
X30480000Y70485000D03*
D37*
X33020000Y70485000D03*
D36*
X27940000Y70485000D03*
X25400000Y70485000D03*
X30480000Y95885000D03*
D37*
X33020000Y95885000D03*
D36*
X27940000Y95885000D03*
X25400000Y95885000D03*
D38*
X91750300Y75500000D03*
X65924100Y39810300D03*
X16600800Y20530400D03*
X12671200Y40178400D03*
X55784100Y82781100D03*
X58254800Y32319200D03*
X50002400Y78005200D03*
X73061300Y53988900D03*
X73061300Y61998600D03*
X44275200Y81828900D03*
D39*
X92981000Y51752000D03*
X93345000Y34739700D03*
X93345000Y22039700D03*
X93345000Y9339700D03*
X75292400Y3514700D03*
X74744700Y16510000D03*
X74744700Y28318300D03*
X62044700Y26626400D03*
X74744700Y38100000D03*
X62038200Y37816400D03*
X68394700Y49212000D03*
X71896600Y64190200D03*
X75102400Y70824700D03*
X62007000Y72768400D03*
X52845300Y74685400D03*
X36644700Y73235200D03*
X36644700Y83820000D03*
X49530600Y86219600D03*
X62044700Y83820000D03*
X78245300Y85612200D03*
X36644700Y94615000D03*
X49531200Y96865700D03*
X62005000Y94344400D03*
X74744700Y94615000D03*
X91700300Y67295200D03*
X86046000Y61640900D03*
X88640500Y81708800D03*
X81648300Y84368900D03*
X97138000Y56178300D03*
X97766300Y43795300D03*
X97746000Y31157700D03*
X97420200Y20830400D03*
X97400300Y67451600D03*
X88449800Y14550000D03*
X95234700Y21427700D03*
X73749100Y24324100D03*
X84371300Y57039600D03*
X94666800Y70146000D03*
X81503700Y34940000D03*
X83771000Y56131700D03*
X91725800Y65516200D03*
X71108900Y34110000D03*
X77986300Y57511800D03*
X94999700Y72235900D03*
X75544800Y46092700D03*
X80781300Y58752900D03*
X93476300Y71206900D03*
X93473800Y72845000D03*
X92741900Y71380400D03*
X94999700Y76500000D03*
X71379400Y69035000D03*
X81166100Y72754300D03*
X93623800Y76183400D03*
X62396600Y69503500D03*
X81275300Y73723500D03*
X94654500Y78088000D03*
X49702400Y69659500D03*
X81539100Y78182800D03*
X94999700Y79224300D03*
X43148600Y79778900D03*
X81915000Y85250200D03*
X94999700Y80500000D03*
X93564300Y80404100D03*
X74445100Y79830000D03*
X83800300Y80243400D03*
X92612700Y80434100D03*
X91772800Y79643100D03*
X44568200Y91475300D03*
X93760800Y86825300D03*
X94999700Y86733300D03*
X94999700Y87500000D03*
X58486200Y79778900D03*
X35243600Y76209500D03*
X59654600Y79140800D03*
X33820000Y74044000D03*
X49561400Y90252100D03*
X59911700Y90573900D03*
X36045900Y88750800D03*
X71648800Y91052900D03*
X59217000Y46397000D03*
X62335200Y35462400D03*
X70038700Y34970400D03*
X69601600Y22298600D03*
X75127600Y2589800D03*
X87169600Y10418500D03*
X73360200Y12671200D03*
D40*
X20596600Y94518700D02*
X19230300Y95885000D01*
X26573700Y94518700D02*
X20596600Y94518700D01*
X27940000Y95885000D02*
X26573700Y94518700D01*
X17780000Y95885000D02*
X19230300Y95885000D01*
D41*
X30995000Y17780000D02*
X21591200Y17780000D01*
X33655000Y15120000D02*
X30995000Y17780000D01*
X23815500Y3172000D02*
X26036200Y3172000D01*
X21591200Y5396000D02*
X23815500Y3172000D01*
X21591200Y17780000D02*
X21591200Y5396000D01*
X21591200Y31112000D02*
X21591200Y17780000D01*
D40*
X5080000Y46435000D02*
X5080000Y45085000D01*
X6270000Y47625000D02*
X5080000Y46435000D01*
X26750000Y71835000D02*
X25400000Y70485000D01*
X26750000Y74295000D02*
X26750000Y71835000D01*
X90500000Y75500000D02*
X91750300Y75500000D01*
X10160000Y72945000D02*
X11510000Y74295000D01*
X10160000Y70485000D02*
X10160000Y72945000D01*
X12296600Y75081600D02*
X12296600Y86150400D01*
X11510000Y74295000D02*
X12296600Y75081600D01*
X13760400Y86150400D02*
X12296600Y86150400D01*
X14605000Y86995000D02*
X13760400Y86150400D01*
X9099600Y86150400D02*
X8255000Y86995000D01*
X12296600Y86150400D02*
X9099600Y86150400D01*
X66040000Y45085000D02*
X66040000Y43872700D01*
X66040000Y45085000D02*
X66040000Y46297300D01*
X65924100Y43756800D02*
X65924100Y39810300D01*
X66040000Y43872700D02*
X65924100Y43756800D01*
X15240000Y92756400D02*
X17803200Y90193200D01*
X15240000Y95885000D02*
X15240000Y92756400D01*
X17803200Y90193200D02*
X14605000Y86995000D01*
X19661800Y90193200D02*
X20320000Y89535000D01*
X17803200Y90193200D02*
X19661800Y90193200D01*
X66040000Y57904700D02*
X62230000Y61714700D01*
X66040000Y46297300D02*
X66040000Y57904700D01*
X62230000Y62865000D02*
X62230000Y61714700D01*
X19050000Y42545000D02*
X19050000Y41294700D01*
X48260000Y38263600D02*
X44450000Y34453600D01*
X48260000Y40005000D02*
X48260000Y38263600D01*
X44450000Y34453600D02*
X44450000Y33655000D01*
X26040900Y34806300D02*
X21591200Y34806300D01*
X26393600Y34453600D02*
X26040900Y34806300D01*
X44450000Y34453600D02*
X26393600Y34453600D01*
X21591200Y38753500D02*
X21591200Y34806300D01*
X19050000Y41294700D02*
X21591200Y38753500D01*
X21591200Y34806300D02*
X21591200Y31112000D01*
X31750000Y74295000D02*
X31750000Y75445300D01*
X31750000Y74295000D02*
X31750000Y73144700D01*
X66040000Y64055000D02*
X66040000Y65405000D01*
X67230000Y62865000D02*
X66040000Y64055000D01*
X33020000Y76715300D02*
X31750000Y75445300D01*
X33020000Y94534700D02*
X33020000Y76715300D01*
X33020000Y95885000D02*
X33020000Y94534700D01*
X17780000Y71874700D02*
X16510000Y73144700D01*
X17780000Y70485000D02*
X17780000Y71874700D01*
X16510000Y74295000D02*
X16510000Y73144700D01*
X33020000Y71874700D02*
X31750000Y73144700D01*
X33020000Y70485000D02*
X33020000Y71874700D01*
X63998000Y67447000D02*
X66040000Y65405000D01*
X46767200Y67447000D02*
X63998000Y67447000D01*
X43729200Y70485000D02*
X46767200Y67447000D01*
X33020000Y70485000D02*
X43729200Y70485000D01*
D42*
X40005000Y36195000D02*
X41105300Y36195000D01*
X42947300Y38502300D02*
X43180000Y38735000D01*
X42947300Y37697700D02*
X42947300Y38502300D01*
X42608000Y37697700D02*
X42947300Y37697700D01*
X41105300Y36195000D02*
X42608000Y37697700D01*
X42947300Y37697700D02*
X44450000Y36195000D01*
X37465000Y28575000D02*
X37465000Y26035000D01*
D40*
X29845000Y28575000D02*
X31115000Y27305000D01*
X29845000Y32385000D02*
X29845000Y28575000D01*
X40005000Y28575000D02*
X40005000Y27324700D01*
X40005000Y26035000D02*
X40005000Y27324700D01*
X44459100Y26035000D02*
X40005000Y26035000D01*
X51435000Y19059100D02*
X44459100Y26035000D01*
X51435000Y8255000D02*
X51435000Y19059100D01*
X40005000Y26035000D02*
X39965000Y26035000D01*
X12671200Y24460000D02*
X12671200Y40178400D01*
X16600800Y20530400D02*
X12671200Y24460000D01*
X58420000Y17462000D02*
X58420000Y27988600D01*
X67310000Y8572000D02*
X58420000Y17462000D01*
X67310000Y5715000D02*
X67310000Y8572000D01*
X58420000Y36195000D02*
X53340000Y41275000D01*
X58420000Y27988600D02*
X58420000Y36195000D01*
X58254800Y28153800D02*
X58254800Y32319200D01*
X58420000Y27988600D02*
X58254800Y28153800D01*
X73061300Y61998600D02*
X73061300Y53988900D01*
X45136700Y80967400D02*
X44275200Y81828900D01*
X50002400Y80967400D02*
X45136700Y80967400D01*
X53970400Y80967400D02*
X50002400Y80967400D01*
X55784100Y82781100D02*
X53970400Y80967400D01*
X50002400Y80967400D02*
X50002400Y78005200D01*
X33655000Y32385000D02*
X35104800Y32385000D01*
X36919900Y30569900D02*
X33655000Y27305000D01*
X37664400Y29825400D02*
X36919900Y30569900D01*
X48279600Y29825400D02*
X37664400Y29825400D01*
X50800000Y27305000D02*
X48279600Y29825400D01*
X36919900Y30569900D02*
X35104800Y32385000D01*
X59690000Y22225000D02*
X59690000Y24765000D01*
X44394400Y22520400D02*
X38735000Y22520400D01*
X46594800Y20320000D02*
X44394400Y22520400D01*
X48260000Y20320000D02*
X46594800Y20320000D01*
X38735000Y20320000D02*
X38735000Y22520400D01*
X38395400Y22860000D02*
X38735000Y22520400D01*
X36830000Y22860000D02*
X38395400Y22860000D01*
D43*
X93345000Y51388000D02*
X93345000Y49190000D01*
X92981000Y51752000D02*
X93345000Y51388000D01*
X93345000Y36490000D02*
X93345000Y34739700D01*
X93345000Y23790000D02*
X93345000Y22039700D01*
X93345000Y11090000D02*
X93345000Y9339700D01*
X76495000Y5715000D02*
X76495000Y3514700D01*
X76495000Y3514700D02*
X75292400Y3514700D01*
X76495000Y16510000D02*
X74744700Y16510000D01*
X76495000Y27305000D02*
X74744700Y27305000D01*
X74744700Y27305000D02*
X74744700Y28318300D01*
X63795000Y27305000D02*
X62044700Y27305000D01*
X62044700Y27305000D02*
X62044700Y26626400D01*
X76495000Y38100000D02*
X74744700Y38100000D01*
X62044700Y37822900D02*
X62044700Y38100000D01*
X62038200Y37816400D02*
X62044700Y37822900D01*
X63795000Y38100000D02*
X62044700Y38100000D01*
X70145000Y49212000D02*
X68394700Y49212000D01*
X71818700Y64112300D02*
X70145000Y64112300D01*
X71896600Y64190200D02*
X71818700Y64112300D01*
X70145000Y61912000D02*
X70145000Y64112300D01*
X76495000Y73025000D02*
X76495000Y70824700D01*
X75102400Y70824700D02*
X76495000Y70824700D01*
X62044700Y72806100D02*
X62007000Y72768400D01*
X62044700Y73025000D02*
X62044700Y72806100D01*
X63795000Y73025000D02*
X62044700Y73025000D01*
X51095000Y73025000D02*
X52845300Y73025000D01*
X52845300Y73025000D02*
X52845300Y74685400D01*
X36644700Y73025000D02*
X36644700Y73235200D01*
X38395000Y73025000D02*
X36644700Y73025000D01*
X38395000Y83820000D02*
X36644700Y83820000D01*
X51095000Y83820000D02*
X51095000Y86020300D01*
X49729900Y86020300D02*
X49530600Y86219600D01*
X51095000Y86020300D02*
X49729900Y86020300D01*
X63795000Y83820000D02*
X62044700Y83820000D01*
X76495000Y83820000D02*
X78245300Y83820000D01*
X78245300Y83820000D02*
X78245300Y85612200D01*
X38395000Y94615000D02*
X36644700Y94615000D01*
X51095000Y94615000D02*
X51095000Y96815300D01*
X49581600Y96815300D02*
X49531200Y96865700D01*
X51095000Y96815300D02*
X49581600Y96815300D01*
X62044700Y94384100D02*
X62005000Y94344400D01*
X62044700Y94615000D02*
X62044700Y94384100D01*
X63795000Y94615000D02*
X62044700Y94615000D01*
X76495000Y94615000D02*
X74744700Y94615000D01*
D40*
X30480000Y95885000D02*
X30480000Y92075000D01*
D43*
X91700300Y60885000D02*
X93345000Y59240300D01*
X91700300Y63500000D02*
X91700300Y60885000D01*
X90500000Y63500000D02*
X91700300Y63500000D01*
X93345000Y57490000D02*
X93345000Y59240300D01*
X92251100Y46540300D02*
X93345000Y46540300D01*
X89299700Y49491700D02*
X92251100Y46540300D01*
X89299700Y64500000D02*
X89299700Y49491700D01*
X90500000Y64500000D02*
X89299700Y64500000D01*
X93345000Y44790000D02*
X93345000Y46540300D01*
X92251100Y33840300D02*
X93345000Y33840300D01*
X88697200Y37394200D02*
X92251100Y33840300D01*
X88697200Y64897500D02*
X88697200Y37394200D01*
X89299700Y65500000D02*
X88697200Y64897500D01*
X90500000Y65500000D02*
X89299700Y65500000D01*
X93345000Y32090000D02*
X93345000Y33840300D01*
X92251100Y21140300D02*
X93345000Y21140300D01*
X88027100Y25364300D02*
X92251100Y21140300D01*
X88027100Y65227400D02*
X88027100Y25364300D01*
X89299700Y66500000D02*
X88027100Y65227400D01*
X90500000Y66500000D02*
X89299700Y66500000D01*
X93345000Y19390000D02*
X93345000Y21140300D01*
X87794600Y6964300D02*
X86545300Y5715000D01*
X87794600Y10921600D02*
X87794600Y6964300D01*
X87426700Y11289500D02*
X87794600Y10921600D01*
X87426700Y65627000D02*
X87426700Y11289500D01*
X89299700Y67500000D02*
X87426700Y65627000D01*
X90500000Y67500000D02*
X89299700Y67500000D01*
X84795000Y5715000D02*
X86545300Y5715000D01*
X90500000Y68500000D02*
X89299700Y68500000D01*
X84795000Y16510000D02*
X86545300Y16510000D01*
X86826000Y66026300D02*
X89299700Y68500000D01*
X86826000Y16790700D02*
X86826000Y66026300D01*
X86545300Y16510000D02*
X86826000Y16790700D01*
X85280300Y65480600D02*
X89299700Y69500000D01*
X85280300Y47452300D02*
X85280300Y65480600D01*
X83044700Y45216700D02*
X85280300Y47452300D01*
X83044700Y27305000D02*
X83044700Y45216700D01*
X84795000Y27305000D02*
X83044700Y27305000D01*
X90500000Y69500000D02*
X89299700Y69500000D01*
X90500000Y70500000D02*
X89299700Y70500000D01*
X72095000Y27305000D02*
X72095000Y29505300D01*
X78357600Y35767900D02*
X72095000Y29505300D01*
X78357600Y44049300D02*
X78357600Y35767900D01*
X82570400Y48262100D02*
X78357600Y44049300D01*
X82570400Y56628900D02*
X82570400Y48262100D01*
X82615100Y56673600D02*
X82570400Y56628900D01*
X82615100Y63815400D02*
X82615100Y56673600D01*
X89299700Y70500000D02*
X82615100Y63815400D01*
X90500000Y71500000D02*
X91700300Y71500000D01*
X84795000Y38100000D02*
X84795000Y40300300D01*
X86046000Y41551300D02*
X86046000Y61640900D01*
X84795000Y40300300D02*
X86046000Y41551300D01*
X91700300Y71500000D02*
X91700300Y67295200D01*
X90500000Y72500000D02*
X89299700Y72500000D01*
X72095000Y38100000D02*
X72095000Y40300300D01*
X73283900Y40300300D02*
X72095000Y40300300D01*
X81970100Y48986500D02*
X73283900Y40300300D01*
X81970100Y56877500D02*
X81970100Y48986500D01*
X82014800Y56922200D02*
X81970100Y56877500D01*
X82014800Y64610600D02*
X82014800Y56922200D01*
X89299700Y71895500D02*
X82014800Y64610600D01*
X89299700Y72500000D02*
X89299700Y71895500D01*
X90500000Y73500000D02*
X89299700Y73500000D01*
X78445000Y49212000D02*
X78445000Y51412300D01*
X78445000Y54201300D02*
X78445000Y51412300D01*
X81381600Y57137900D02*
X78445000Y54201300D01*
X81381600Y64826500D02*
X81381600Y57137900D01*
X88125500Y71570400D02*
X81381600Y64826500D01*
X88125500Y72325800D02*
X88125500Y71570400D01*
X89299700Y73500000D02*
X88125500Y72325800D01*
X90500000Y74500000D02*
X89299700Y74500000D01*
X78445000Y61912000D02*
X78445000Y64112300D01*
X79612300Y64112300D02*
X78445000Y64112300D01*
X87088600Y71588600D02*
X79612300Y64112300D01*
X87088600Y72288900D02*
X87088600Y71588600D01*
X89299700Y74500000D02*
X87088600Y72288900D01*
X86545300Y73745600D02*
X86545300Y73025000D01*
X89299700Y76500000D02*
X86545300Y73745600D01*
X90500000Y76500000D02*
X89299700Y76500000D01*
X84795000Y73025000D02*
X86545300Y73025000D01*
X72095000Y73025000D02*
X73845300Y73025000D01*
X90500000Y77500000D02*
X89299700Y77500000D01*
X88781900Y76982200D02*
X89299700Y77500000D01*
X76708600Y76982200D02*
X88781900Y76982200D01*
X73845300Y74118900D02*
X76708600Y76982200D01*
X73845300Y73025000D02*
X73845300Y74118900D01*
X59395000Y73025000D02*
X61145300Y73025000D01*
X90500000Y78500000D02*
X89299700Y78500000D01*
X88382200Y77582500D02*
X89299700Y78500000D01*
X64608900Y77582500D02*
X88382200Y77582500D01*
X61145300Y74118900D02*
X64608900Y77582500D01*
X61145300Y73025000D02*
X61145300Y74118900D01*
X48445300Y74118900D02*
X48445300Y73025000D01*
X50237500Y75911100D02*
X48445300Y74118900D01*
X57432200Y75911100D02*
X50237500Y75911100D01*
X60750700Y79229600D02*
X57432200Y75911100D01*
X89029300Y79229600D02*
X60750700Y79229600D01*
X89299700Y79500000D02*
X89029300Y79229600D01*
X90500000Y79500000D02*
X89299700Y79500000D01*
X46695000Y73025000D02*
X48445300Y73025000D01*
X48445300Y82726100D02*
X48445300Y83820000D01*
X49551800Y81619600D02*
X48445300Y82726100D01*
X53486500Y81619600D02*
X49551800Y81619600D01*
X55300100Y83433200D02*
X53486500Y81619600D01*
X56063100Y83433200D02*
X55300100Y83433200D01*
X58578700Y80917600D02*
X56063100Y83433200D01*
X88882100Y80917600D02*
X58578700Y80917600D01*
X89299700Y80500000D02*
X88882100Y80917600D01*
X90500000Y80500000D02*
X89299700Y80500000D01*
X46695000Y83820000D02*
X48445300Y83820000D01*
X89090900Y81708800D02*
X88640500Y81708800D01*
X89299700Y81500000D02*
X89090900Y81708800D01*
X61145300Y84913900D02*
X61145300Y83820000D01*
X62472800Y86241400D02*
X61145300Y84913900D01*
X79775800Y86241400D02*
X62472800Y86241400D01*
X81648300Y84368900D02*
X79775800Y86241400D01*
X59395000Y83820000D02*
X61145300Y83820000D01*
X90500000Y81500000D02*
X89299700Y81500000D01*
X72095000Y83820000D02*
X73845300Y83820000D01*
X73845300Y82726100D02*
X73845300Y83820000D01*
X74951800Y81619600D02*
X73845300Y82726100D01*
X86921400Y81619600D02*
X74951800Y81619600D01*
X87801800Y82500000D02*
X86921400Y81619600D01*
X90500000Y82500000D02*
X87801800Y82500000D01*
X90500000Y83500000D02*
X89299700Y83500000D01*
X84795000Y83820000D02*
X86545300Y83820000D01*
X86865300Y83500000D02*
X89299700Y83500000D01*
X86545300Y83820000D02*
X86865300Y83500000D01*
X47351700Y97472000D02*
X46695000Y96815300D01*
X85686400Y97472000D02*
X47351700Y97472000D01*
X91700300Y91458100D02*
X85686400Y97472000D01*
X91700300Y84500000D02*
X91700300Y91458100D01*
X90500000Y84500000D02*
X91700300Y84500000D01*
X46695000Y94615000D02*
X46695000Y96815300D01*
X90500000Y85500000D02*
X89299700Y85500000D01*
X59395000Y94615000D02*
X61145300Y94615000D01*
X83453600Y91346100D02*
X89299700Y85500000D01*
X75108000Y91346100D02*
X83453600Y91346100D01*
X74207700Y92246400D02*
X75108000Y91346100D01*
X62418000Y92246400D02*
X74207700Y92246400D01*
X61145300Y93519100D02*
X62418000Y92246400D01*
X61145300Y94615000D02*
X61145300Y93519100D01*
X73845300Y93533500D02*
X73845300Y94615000D01*
X75104500Y92274300D02*
X73845300Y93533500D01*
X83525400Y92274300D02*
X75104500Y92274300D01*
X89299700Y86500000D02*
X83525400Y92274300D01*
X90500000Y86500000D02*
X89299700Y86500000D01*
X72095000Y94615000D02*
X73845300Y94615000D01*
X89299700Y91860600D02*
X86545300Y94615000D01*
X89299700Y87500000D02*
X89299700Y91860600D01*
X90500000Y87500000D02*
X89299700Y87500000D01*
X84795000Y94615000D02*
X86545300Y94615000D01*
X97138000Y62562000D02*
X97138000Y56178300D01*
X96200000Y63500000D02*
X97138000Y62562000D01*
X96200000Y64500000D02*
X97400300Y64500000D01*
X97766300Y64134000D02*
X97766300Y43795300D01*
X97400300Y64500000D02*
X97766300Y64134000D01*
X96200000Y65500000D02*
X97400300Y65500000D01*
X98370100Y31781800D02*
X97746000Y31157700D01*
X98370100Y64530200D02*
X98370100Y31781800D01*
X97400300Y65500000D02*
X98370100Y64530200D01*
X96200000Y66500000D02*
X97400300Y66500000D01*
X98977800Y22388000D02*
X97420200Y20830400D01*
X98977800Y64922500D02*
X98977800Y22388000D01*
X97400300Y66500000D02*
X98977800Y64922500D01*
X96200000Y67500000D02*
X97400300Y67500000D01*
X97400300Y67500000D02*
X97400300Y67451600D01*
X99589600Y66310700D02*
X97400300Y68500000D01*
X99589600Y21916500D02*
X99589600Y66310700D01*
X92223100Y14550000D02*
X99589600Y21916500D01*
X88449800Y14550000D02*
X92223100Y14550000D01*
X96200000Y68500000D02*
X97400300Y68500000D01*
X96200000Y69500000D02*
X94999700Y69500000D01*
X96500300Y22693300D02*
X95234700Y21427700D01*
X96500300Y62144200D02*
X96500300Y22693300D01*
X96294000Y62350500D02*
X96500300Y62144200D01*
X95674600Y62350500D02*
X96294000Y62350500D01*
X94999700Y63025400D02*
X95674600Y62350500D01*
X94999700Y69500000D02*
X94999700Y63025400D01*
X94999700Y70478900D02*
X94999700Y70500000D01*
X94666800Y70146000D02*
X94999700Y70478900D01*
X96200000Y70500000D02*
X94999700Y70500000D01*
X73845400Y24420400D02*
X73749100Y24324100D01*
X73845400Y28381600D02*
X73845400Y24420400D01*
X78958000Y33494200D02*
X73845400Y28381600D01*
X78958000Y43800800D02*
X78958000Y33494200D01*
X83170700Y48013500D02*
X78958000Y43800800D01*
X83170700Y56380300D02*
X83170700Y48013500D01*
X83830000Y57039600D02*
X83170700Y56380300D01*
X84371300Y57039600D02*
X83830000Y57039600D01*
X92475200Y68975500D02*
X94999700Y71500000D01*
X92475200Y66265600D02*
X92475200Y68975500D01*
X91725800Y65516200D02*
X92475200Y66265600D01*
X96200000Y71500000D02*
X94999700Y71500000D01*
X81503700Y44524800D02*
X81503700Y34940000D01*
X83771000Y46792100D02*
X81503700Y44524800D01*
X83771000Y56131700D02*
X83771000Y46792100D01*
X96200000Y72500000D02*
X94999700Y72500000D01*
X94999700Y72500000D02*
X94999700Y72235900D01*
X73797600Y53323100D02*
X77986300Y57511800D01*
X73797600Y43667700D02*
X73797600Y53323100D01*
X70344600Y40214700D02*
X73797600Y43667700D01*
X70344600Y35513500D02*
X70344600Y40214700D01*
X71108900Y34749200D02*
X70344600Y35513500D01*
X71108900Y34110000D02*
X71108900Y34749200D01*
X96200000Y73500000D02*
X94999700Y73500000D01*
X75544800Y53516400D02*
X80781300Y58752900D01*
X75544800Y46092700D02*
X75544800Y53516400D01*
X93476300Y71976600D02*
X93476300Y71206900D01*
X94999700Y73500000D02*
X93476300Y71976600D01*
X94999700Y74370900D02*
X94999700Y74500000D01*
X93473800Y72845000D02*
X94999700Y74370900D01*
X96200000Y74500000D02*
X94999700Y74500000D01*
D42*
X92741900Y73142200D02*
X92741900Y71380400D01*
X95099700Y75500000D02*
X92741900Y73142200D01*
X96200000Y75500000D02*
X95099700Y75500000D01*
D43*
X96200000Y76500000D02*
X94999700Y76500000D01*
X96200000Y77500000D02*
X94999700Y77500000D01*
X93683200Y76183500D02*
X94999700Y77500000D01*
X93623800Y76183500D02*
X93683200Y76183500D01*
X93623800Y76183400D02*
X93623800Y76183500D01*
X77446800Y69035000D02*
X81166100Y72754300D01*
X71379400Y69035000D02*
X77446800Y69035000D01*
X94999700Y78433200D02*
X94999700Y78500000D01*
X94654500Y78088000D02*
X94999700Y78433200D01*
X96200000Y78500000D02*
X94999700Y78500000D01*
X62568000Y69674900D02*
X62396600Y69503500D01*
X77226700Y69674900D02*
X62568000Y69674900D01*
X81275300Y73723500D02*
X77226700Y69674900D01*
X96200000Y79500000D02*
X94999700Y79500000D01*
X94999700Y79500000D02*
X94999700Y79224300D01*
X60553000Y78182800D02*
X81539100Y78182800D01*
X52029700Y69659500D02*
X60553000Y78182800D01*
X49702400Y69659500D02*
X52029700Y69659500D01*
X96200000Y80500000D02*
X94999700Y80500000D01*
X43148700Y79778900D02*
X43148600Y79778900D01*
X43148700Y84003400D02*
X43148700Y79778900D01*
X45988000Y86842700D02*
X43148700Y84003400D01*
X80322500Y86842700D02*
X45988000Y86842700D01*
X81915000Y85250200D02*
X80322500Y86842700D01*
X94660200Y81500000D02*
X96200000Y81500000D01*
X93564300Y80404100D02*
X94660200Y81500000D01*
X74858500Y80243400D02*
X74445100Y79830000D01*
X83800300Y80243400D02*
X74858500Y80243400D01*
X94678600Y82500000D02*
X92612700Y80434100D01*
X96200000Y82500000D02*
X94678600Y82500000D01*
X96200000Y83500000D02*
X94999700Y83500000D01*
X91772800Y80443200D02*
X91772800Y79643100D01*
X94829600Y83500000D02*
X91772800Y80443200D01*
X94999700Y83500000D02*
X94829600Y83500000D01*
X96200000Y84500000D02*
X94999700Y84500000D01*
X44568200Y96222100D02*
X44568200Y91475300D01*
X46458600Y98112500D02*
X44568200Y96222100D01*
X85906900Y98112500D02*
X46458600Y98112500D01*
X93160500Y90858900D02*
X85906900Y98112500D01*
X93160500Y86339200D02*
X93160500Y90858900D01*
X94999700Y84500000D02*
X93160500Y86339200D01*
X94999700Y85586400D02*
X94999700Y85500000D01*
X93760800Y86825300D02*
X94999700Y85586400D01*
X96200000Y85500000D02*
X94999700Y85500000D01*
X96200000Y86500000D02*
X94999700Y86500000D01*
X94999700Y86500000D02*
X94999700Y86733300D01*
X96200000Y87500000D02*
X94999700Y87500000D01*
D42*
X21170300Y67094700D02*
X22860000Y65405000D01*
X16090300Y67094700D02*
X21170300Y67094700D01*
X12700000Y70485000D02*
X16090300Y67094700D01*
X22177700Y68627300D02*
X25400000Y65405000D01*
X17097700Y68627300D02*
X22177700Y68627300D01*
X15240000Y70485000D02*
X17097700Y68627300D01*
X37417700Y68627300D02*
X40640000Y65405000D01*
X32337700Y68627300D02*
X37417700Y68627300D01*
X30480000Y70485000D02*
X32337700Y68627300D01*
X36410300Y67094700D02*
X38100000Y65405000D01*
X31330300Y67094700D02*
X36410300Y67094700D01*
X27940000Y70485000D02*
X31330300Y67094700D01*
X34290000Y38735000D02*
X34290000Y41275000D01*
X49530000Y31115000D02*
X50800000Y32385000D01*
X48260000Y31115000D02*
X49530000Y31115000D01*
X10160000Y61281000D02*
X10160000Y45085000D01*
X6350000Y65091000D02*
X10160000Y61281000D01*
X6350000Y74930000D02*
X6350000Y65091000D01*
X3175000Y78105000D02*
X6350000Y74930000D01*
X56162200Y77454900D02*
X58486200Y79778900D01*
X36489000Y77454900D02*
X56162200Y77454900D01*
X35243600Y76209500D02*
X36489000Y77454900D01*
X36387900Y76611900D02*
X33820000Y74044000D01*
X57125700Y76611900D02*
X36387900Y76611900D01*
X59654600Y79140800D02*
X57125700Y76611900D01*
X11444100Y66660900D02*
X12700000Y65405000D01*
X11444100Y71196200D02*
X11444100Y66660900D01*
X31819600Y91571700D02*
X11444100Y71196200D01*
X31819600Y96942000D02*
X31819600Y91571700D01*
X31963000Y97085400D02*
X31819600Y96942000D01*
X34113700Y97085400D02*
X31963000Y97085400D01*
X35896800Y95302300D02*
X34113700Y97085400D01*
X35896800Y93519100D02*
X35896800Y95302300D01*
X39163800Y90252100D02*
X35896800Y93519100D01*
X49561400Y90252100D02*
X39163800Y90252100D01*
X58088600Y88750800D02*
X59911700Y90573900D01*
X36045900Y88750800D02*
X58088600Y88750800D01*
X2176100Y65768900D02*
X2540000Y65405000D01*
X2176100Y84521200D02*
X2176100Y65768900D01*
X6349800Y88694900D02*
X2176100Y84521200D01*
X6349800Y88874900D02*
X6349800Y88694900D01*
X14960700Y97485800D02*
X6349800Y88874900D01*
X39132300Y97485800D02*
X14960700Y97485800D01*
X43434600Y93183500D02*
X39132300Y97485800D01*
X43434600Y91866300D02*
X43434600Y93183500D01*
X44327900Y90973000D02*
X43434600Y91866300D01*
X44878300Y90973000D02*
X44327900Y90973000D01*
X45029900Y91124600D02*
X44878300Y90973000D01*
X71577100Y91124600D02*
X45029900Y91124600D01*
X71648800Y91052900D02*
X71577100Y91124600D01*
X55880000Y49734000D02*
X55880000Y65405000D01*
X59217000Y46397000D02*
X55880000Y49734000D01*
X59717300Y64107700D02*
X58420000Y65405000D01*
X59717300Y38907700D02*
X59717300Y64107700D01*
X61731700Y36893300D02*
X59717300Y38907700D01*
X61731700Y36065900D02*
X61731700Y36893300D01*
X62335200Y35462400D02*
X61731700Y36065900D01*
X61547900Y65405000D02*
X60960000Y65405000D01*
X67504900Y59448000D02*
X61547900Y65405000D01*
X67504900Y37504200D02*
X67504900Y59448000D01*
X70038700Y34970400D02*
X67504900Y37504200D01*
X65961200Y25939000D02*
X69601600Y22298600D01*
X65961200Y28741200D02*
X65961200Y25939000D01*
X59329800Y35372600D02*
X65961200Y28741200D01*
X59329800Y36747000D02*
X59329800Y35372600D01*
X53802900Y42273900D02*
X59329800Y36747000D01*
X48531100Y42273900D02*
X53802900Y42273900D01*
X45720000Y45085000D02*
X48531100Y42273900D01*
X74192300Y3525100D02*
X75127600Y2589800D01*
X74192300Y19259500D02*
X74192300Y3525100D01*
X67162000Y26289800D02*
X74192300Y19259500D01*
X67162000Y28986000D02*
X67162000Y26289800D01*
X60130400Y36017600D02*
X67162000Y28986000D01*
X60130400Y37079300D02*
X60130400Y36017600D01*
X53636700Y43573000D02*
X60130400Y37079300D01*
X52312000Y43573000D02*
X53636700Y43573000D01*
X50800000Y45085000D02*
X52312000Y43573000D01*
X53340000Y44436100D02*
X53340000Y45085000D01*
X60730900Y37045200D02*
X53340000Y44436100D01*
X60730900Y36183100D02*
X60730900Y37045200D01*
X69538400Y27375600D02*
X60730900Y36183100D01*
X69538400Y26264000D02*
X69538400Y27375600D01*
X72033600Y23768800D02*
X69538400Y26264000D01*
X73819300Y23768800D02*
X72033600Y23768800D01*
X87169600Y10418500D02*
X73819300Y23768800D01*
X73360200Y19247700D02*
X73360200Y12671200D01*
X66703300Y25904600D02*
X73360200Y19247700D01*
X66703300Y28878500D02*
X66703300Y25904600D01*
X59730100Y35851700D02*
X66703300Y28878500D01*
X59730100Y36913500D02*
X59730100Y35851700D01*
X53637300Y43006300D02*
X59730100Y36913500D01*
X50338700Y43006300D02*
X53637300Y43006300D01*
X48260000Y45085000D02*
X50338700Y43006300D01*
D44*
G36*
X99315000Y67766168D02*
X97990734Y69090434D01*
X97926193Y69133559D01*
X97719841Y69271439D01*
X97647440Y69285841D01*
X97647440Y69800000D01*
X97608426Y70007342D01*
X97647440Y70200000D01*
X97647440Y70800000D01*
X97608426Y71007342D01*
X97647440Y71200000D01*
X97647440Y71800000D01*
X97608426Y72007342D01*
X97647440Y72200000D01*
X97647440Y72800000D01*
X97608426Y73007342D01*
X97647440Y73200000D01*
X97647440Y73800000D01*
X97608426Y74007342D01*
X97647440Y74200000D01*
X97647440Y74800000D01*
X97608426Y75007342D01*
X97647440Y75200000D01*
X97647440Y75800000D01*
X97608426Y76007342D01*
X97647440Y76200000D01*
X97647440Y76800000D01*
X97608426Y77007342D01*
X97647440Y77200000D01*
X97647440Y77800000D01*
X97608426Y78007342D01*
X97647440Y78200000D01*
X97647440Y78800000D01*
X97608426Y79007342D01*
X97647440Y79200000D01*
X97647440Y79800000D01*
X97608426Y80007342D01*
X97647440Y80200000D01*
X97647440Y80800000D01*
X97608426Y81007342D01*
X97647440Y81200000D01*
X97647440Y81800000D01*
X97608426Y82007342D01*
X97647440Y82200000D01*
X97647440Y82800000D01*
X97608426Y83007342D01*
X97647440Y83200000D01*
X97647440Y83800000D01*
X97608426Y84007342D01*
X97647440Y84200000D01*
X97647440Y84800000D01*
X97608426Y85007342D01*
X97647440Y85200000D01*
X97647440Y85800000D01*
X97608426Y86007342D01*
X97647440Y86200000D01*
X97647440Y86800000D01*
X97608426Y87007342D01*
X97647440Y87200000D01*
X97647440Y87800000D01*
X97603162Y88035317D01*
X97464090Y88251441D01*
X97251890Y88396431D01*
X97000000Y88447440D01*
X96336253Y88447440D01*
X96551441Y88585910D01*
X96696431Y88798110D01*
X96747440Y89050000D01*
X96747440Y90800000D01*
X96703162Y91035317D01*
X96564090Y91251441D01*
X96351890Y91396431D01*
X96100000Y91447440D01*
X94300000Y91447440D01*
X94064683Y91403162D01*
X93866847Y91275858D01*
X93786283Y91396431D01*
X93750934Y91449335D01*
X90623084Y94577185D01*
X92864630Y94577185D01*
X93188980Y93792200D01*
X93789041Y93191091D01*
X94573459Y92865372D01*
X95422815Y92864630D01*
X96207800Y93188980D01*
X96808909Y93789041D01*
X97134628Y94573459D01*
X97135370Y95422815D01*
X96811020Y96207800D01*
X96210959Y96808909D01*
X95426541Y97134628D01*
X94577185Y97135370D01*
X93792200Y96811020D01*
X93191091Y96210959D01*
X92865372Y95426541D01*
X92864630Y94577185D01*
X90623084Y94577185D01*
X86497334Y98702934D01*
X86226441Y98883939D01*
X85906900Y98947500D01*
X46458600Y98947500D01*
X46139059Y98883939D01*
X45868166Y98702934D01*
X43977766Y96812534D01*
X43796761Y96541641D01*
X43733200Y96222100D01*
X43733200Y93924346D01*
X39652023Y98005523D01*
X39413572Y98164851D01*
X39132300Y98220800D01*
X14960700Y98220800D01*
X14679428Y98164851D01*
X14440977Y98005524D01*
X5830077Y89394623D01*
X5670749Y89156172D01*
X5645701Y89030248D01*
X4323305Y87707852D01*
X4306146Y87749380D01*
X3931353Y88124827D01*
X3441413Y88328268D01*
X2910914Y88328731D01*
X2420620Y88126146D01*
X2045173Y87751353D01*
X1841732Y87261413D01*
X1841269Y86730914D01*
X2043854Y86240620D01*
X2418647Y85865173D01*
X2462442Y85846988D01*
X1656377Y85040923D01*
X1497049Y84802472D01*
X1441100Y84521200D01*
X1441100Y66281951D01*
X1356371Y66197370D01*
X1143243Y65684100D01*
X1142758Y65128339D01*
X1354990Y64614697D01*
X1747630Y64221371D01*
X2260900Y64008243D01*
X2816661Y64007758D01*
X3330303Y64219990D01*
X3723629Y64612630D01*
X3809949Y64820512D01*
X3894990Y64614697D01*
X4287630Y64221371D01*
X4800900Y64008243D01*
X5356661Y64007758D01*
X5870303Y64219990D01*
X6026069Y64375485D01*
X9425000Y60976553D01*
X9425000Y46292861D01*
X9369697Y46270010D01*
X8976371Y45877370D01*
X8890051Y45669488D01*
X8805010Y45875303D01*
X8412370Y46268629D01*
X7899100Y46481757D01*
X7343339Y46482242D01*
X6829697Y46270010D01*
X6436371Y45877370D01*
X6223243Y45364100D01*
X6222758Y44808339D01*
X6434990Y44294697D01*
X6827630Y43901371D01*
X7340900Y43688243D01*
X7896661Y43687758D01*
X8410303Y43899990D01*
X8803629Y44292630D01*
X8889949Y44500512D01*
X8974990Y44294697D01*
X9367630Y43901371D01*
X9880900Y43688243D01*
X10436661Y43687758D01*
X10950303Y43899990D01*
X11343629Y44292630D01*
X11429949Y44500512D01*
X11514990Y44294697D01*
X11907630Y43901371D01*
X12420900Y43688243D01*
X12976661Y43687758D01*
X13490303Y43899990D01*
X13883629Y44292630D01*
X13969949Y44500512D01*
X14054990Y44294697D01*
X14447630Y43901371D01*
X14960900Y43688243D01*
X15516661Y43687758D01*
X15852657Y43826588D01*
X15495302Y43587811D01*
X15184233Y43122264D01*
X15075000Y42573113D01*
X15075000Y42516887D01*
X15184233Y41967736D01*
X15495302Y41502189D01*
X15960849Y41191120D01*
X16510000Y41081887D01*
X17059151Y41191120D01*
X17524698Y41502189D01*
X17835767Y41967736D01*
X17945000Y42516887D01*
X17945000Y42573113D01*
X17835767Y43122264D01*
X17524698Y43587811D01*
X17166713Y43827009D01*
X17500900Y43688243D01*
X18056661Y43687758D01*
X18570303Y43899990D01*
X18963629Y44292630D01*
X19049949Y44500512D01*
X19134990Y44294697D01*
X19527630Y43901371D01*
X20040900Y43688243D01*
X20596661Y43687758D01*
X21110303Y43899990D01*
X21503629Y44292630D01*
X21589949Y44500512D01*
X21674990Y44294697D01*
X22067630Y43901371D01*
X22358449Y43780613D01*
X22105620Y43676146D01*
X21730173Y43301353D01*
X21526732Y42811413D01*
X21526269Y42280914D01*
X21728854Y41790620D01*
X22103647Y41415173D01*
X22593587Y41211732D01*
X23124086Y41211269D01*
X23614380Y41413854D01*
X23989827Y41788647D01*
X24130094Y42126446D01*
X24268854Y41790620D01*
X24643647Y41415173D01*
X25133587Y41211732D01*
X25664086Y41211269D01*
X26154380Y41413854D01*
X26529827Y41788647D01*
X26733268Y42278587D01*
X26733731Y42809086D01*
X26531146Y43299380D01*
X26156353Y43674827D01*
X25901490Y43780655D01*
X26190303Y43899990D01*
X26583629Y44292630D01*
X26669949Y44500512D01*
X26754990Y44294697D01*
X27147630Y43901371D01*
X27660900Y43688243D01*
X28216661Y43687758D01*
X28730303Y43899990D01*
X29123629Y44292630D01*
X29209949Y44500512D01*
X29294990Y44294697D01*
X29687630Y43901371D01*
X30200900Y43688243D01*
X30756661Y43687758D01*
X31270303Y43899990D01*
X31663629Y44292630D01*
X31749949Y44500512D01*
X31834990Y44294697D01*
X32227630Y43901371D01*
X32740900Y43688243D01*
X33296661Y43687758D01*
X33810303Y43899990D01*
X34203629Y44292630D01*
X34289949Y44500512D01*
X34374990Y44294697D01*
X34767630Y43901371D01*
X35280900Y43688243D01*
X35836661Y43687758D01*
X36350303Y43899990D01*
X36743629Y44292630D01*
X36829949Y44500512D01*
X36914990Y44294697D01*
X37307630Y43901371D01*
X37820900Y43688243D01*
X38376661Y43687758D01*
X38890303Y43899990D01*
X39283629Y44292630D01*
X39369949Y44500512D01*
X39454990Y44294697D01*
X39847630Y43901371D01*
X40360900Y43688243D01*
X40916661Y43687758D01*
X41430303Y43899990D01*
X41823629Y44292630D01*
X41909949Y44500512D01*
X41994990Y44294697D01*
X42387630Y43901371D01*
X42900900Y43688243D01*
X43456661Y43687758D01*
X43970303Y43899990D01*
X44363629Y44292630D01*
X44449949Y44500512D01*
X44534990Y44294697D01*
X44927630Y43901371D01*
X45440900Y43688243D01*
X45996661Y43687758D01*
X46054073Y43711480D01*
X48011377Y41754176D01*
X48221654Y41613674D01*
X48249828Y41594849D01*
X48531100Y41538900D01*
X49466730Y41538900D01*
X49466269Y41010914D01*
X49668854Y40520620D01*
X50043647Y40145173D01*
X50533587Y39941732D01*
X51064086Y39941269D01*
X51554380Y40143854D01*
X51929827Y40518647D01*
X52070094Y40856446D01*
X52208854Y40520620D01*
X52583647Y40145173D01*
X53073587Y39941732D01*
X53421992Y39941428D01*
X57535000Y35828421D01*
X57535000Y32851144D01*
X57504971Y32821167D01*
X57369954Y32496010D01*
X57369647Y32143935D01*
X57369800Y32143565D01*
X57369800Y28153805D01*
X57369799Y28153800D01*
X57425990Y27871316D01*
X57437167Y27815125D01*
X57535000Y27668707D01*
X57535000Y20329480D01*
X55246220Y20329480D01*
X55010903Y20285202D01*
X54794779Y20146130D01*
X54649789Y19933930D01*
X54598780Y19682040D01*
X54598780Y17142040D01*
X54643058Y16906723D01*
X54782130Y16690599D01*
X54994330Y16545609D01*
X55246220Y16494600D01*
X57786220Y16494600D01*
X58021537Y16538878D01*
X58064133Y16566287D01*
X66425000Y8205421D01*
X66425000Y7205854D01*
X66224683Y7168162D01*
X66008559Y7029090D01*
X65863569Y6816890D01*
X65812560Y6565000D01*
X65812560Y4865000D01*
X65856838Y4629683D01*
X65995910Y4413559D01*
X66208110Y4268569D01*
X66460000Y4217560D01*
X68160000Y4217560D01*
X68395317Y4261838D01*
X68611441Y4400910D01*
X68756431Y4613110D01*
X68807440Y4865000D01*
X68807440Y6565000D01*
X68763162Y6800317D01*
X68624090Y7016441D01*
X68411890Y7161431D01*
X68195000Y7205352D01*
X68195000Y8571995D01*
X68195001Y8572000D01*
X68127634Y8910674D01*
X68006102Y9092560D01*
X67935790Y9197790D01*
X67935787Y9197792D01*
X59305000Y17828580D01*
X59305000Y20940974D01*
X59423587Y20891732D01*
X59954086Y20891269D01*
X60444380Y21093854D01*
X60819827Y21468647D01*
X61023268Y21958587D01*
X61023731Y22489086D01*
X60821146Y22979380D01*
X60575000Y23225956D01*
X60575000Y23764246D01*
X60819827Y24008647D01*
X61023268Y24498587D01*
X61023731Y25029086D01*
X60821146Y25519380D01*
X60446353Y25894827D01*
X60108554Y26035094D01*
X60444380Y26173854D01*
X60819827Y26548647D01*
X61023268Y27038587D01*
X61023731Y27569086D01*
X60821146Y28059380D01*
X60446353Y28434827D01*
X60108554Y28575094D01*
X60444380Y28713854D01*
X60819827Y29088647D01*
X61023268Y29578587D01*
X61023731Y30109086D01*
X60821146Y30599380D01*
X60446353Y30974827D01*
X59956413Y31178268D01*
X59425914Y31178731D01*
X59305000Y31128770D01*
X59305000Y34357954D01*
X63910513Y29752440D01*
X62445000Y29752440D01*
X62209683Y29708162D01*
X61993559Y29569090D01*
X61848569Y29356890D01*
X61797560Y29105000D01*
X61797560Y28090841D01*
X61725159Y28076439D01*
X61454266Y27895434D01*
X61273261Y27624541D01*
X61209700Y27305000D01*
X61209700Y26627129D01*
X61209555Y26461037D01*
X61336408Y26154028D01*
X61571093Y25918934D01*
X61797560Y25824896D01*
X61797560Y25505000D01*
X61841838Y25269683D01*
X61980910Y25053559D01*
X62193110Y24908569D01*
X62445000Y24857560D01*
X65145000Y24857560D01*
X65380317Y24901838D01*
X65596441Y25040910D01*
X65687124Y25173630D01*
X68793873Y22066880D01*
X68893308Y21826228D01*
X69127993Y21591134D01*
X69434779Y21463745D01*
X69766963Y21463455D01*
X70006163Y21562290D01*
X72625200Y18943253D01*
X72625200Y13078498D01*
X72525345Y12838021D01*
X72525055Y12505837D01*
X72651908Y12198828D01*
X72886593Y11963734D01*
X73193379Y11836345D01*
X73457300Y11836115D01*
X73457300Y3525100D01*
X73508528Y3267560D01*
X73513249Y3243828D01*
X73672577Y3005377D01*
X74319873Y2358080D01*
X74419308Y2117428D01*
X74653993Y1882334D01*
X74960779Y1754945D01*
X75292963Y1754655D01*
X75599972Y1881508D01*
X75835066Y2116193D01*
X75962455Y2422979D01*
X75962679Y2679700D01*
X76495000Y2679700D01*
X76814541Y2743261D01*
X77085434Y2924266D01*
X77266439Y3195159D01*
X77280841Y3267560D01*
X77845000Y3267560D01*
X78080317Y3311838D01*
X78296441Y3450910D01*
X78441431Y3663110D01*
X78492440Y3915000D01*
X78492440Y7515000D01*
X78448162Y7750317D01*
X78309090Y7966441D01*
X78096890Y8111431D01*
X77845000Y8162440D01*
X75145000Y8162440D01*
X74927300Y8121477D01*
X74927300Y14106645D01*
X75145000Y14062560D01*
X77845000Y14062560D01*
X78080317Y14106838D01*
X78296441Y14245910D01*
X78441431Y14458110D01*
X78492440Y14710000D01*
X78492440Y18056214D01*
X86361873Y10186780D01*
X86461308Y9946128D01*
X86695993Y9711034D01*
X86959600Y9601575D01*
X86959600Y7310168D01*
X86792440Y7143008D01*
X86792440Y7515000D01*
X86748162Y7750317D01*
X86609090Y7966441D01*
X86396890Y8111431D01*
X86145000Y8162440D01*
X83445000Y8162440D01*
X83209683Y8118162D01*
X82993559Y7979090D01*
X82848569Y7766890D01*
X82797560Y7515000D01*
X82797560Y3915000D01*
X82841838Y3679683D01*
X82980910Y3463559D01*
X83193110Y3318569D01*
X83445000Y3267560D01*
X86145000Y3267560D01*
X86380317Y3311838D01*
X86596441Y3450910D01*
X86741431Y3663110D01*
X86792440Y3915000D01*
X86792440Y4577185D01*
X92864630Y4577185D01*
X93188980Y3792200D01*
X93789041Y3191091D01*
X94573459Y2865372D01*
X95422815Y2864630D01*
X96207800Y3188980D01*
X96808909Y3789041D01*
X97134628Y4573459D01*
X97135370Y5422815D01*
X96811020Y6207800D01*
X96210959Y6808909D01*
X95426541Y7134628D01*
X94577185Y7135370D01*
X93792200Y6811020D01*
X93191091Y6210959D01*
X92865372Y5426541D01*
X92864630Y4577185D01*
X86792440Y4577185D01*
X86792440Y4929159D01*
X86864841Y4943561D01*
X87135734Y5124566D01*
X88385034Y6373866D01*
X88473263Y6505910D01*
X88566039Y6644759D01*
X88629600Y6964300D01*
X88629600Y10921600D01*
X88566039Y11241141D01*
X88385034Y11512034D01*
X88261700Y11635368D01*
X88261700Y12440000D01*
X90897560Y12440000D01*
X90897560Y9740000D01*
X90941838Y9504683D01*
X91080910Y9288559D01*
X91293110Y9143569D01*
X91545000Y9092560D01*
X92543644Y9092560D01*
X92636708Y8867328D01*
X92871393Y8632234D01*
X93178179Y8504845D01*
X93510363Y8504555D01*
X93817372Y8631408D01*
X94052466Y8866093D01*
X94146504Y9092560D01*
X95145000Y9092560D01*
X95380317Y9136838D01*
X95596441Y9275910D01*
X95741431Y9488110D01*
X95792440Y9740000D01*
X95792440Y12440000D01*
X95748162Y12675317D01*
X95609090Y12891441D01*
X95396890Y13036431D01*
X95145000Y13087440D01*
X91545000Y13087440D01*
X91309683Y13043162D01*
X91093559Y12904090D01*
X90948569Y12691890D01*
X90897560Y12440000D01*
X88261700Y12440000D01*
X88261700Y13723981D01*
X88282979Y13715145D01*
X88615163Y13714855D01*
X88615514Y13715000D01*
X92223100Y13715000D01*
X92542641Y13778561D01*
X92813534Y13959566D01*
X99315000Y20461032D01*
X99315000Y685000D01*
X685000Y685000D01*
X685000Y4577185D01*
X2864630Y4577185D01*
X3188980Y3792200D01*
X3789041Y3191091D01*
X4573459Y2865372D01*
X5422815Y2864630D01*
X6207800Y3188980D01*
X6808909Y3789041D01*
X7080058Y4442040D01*
X8878780Y4442040D01*
X8878780Y1902040D01*
X8923058Y1666723D01*
X9062130Y1450599D01*
X9274330Y1305609D01*
X9526220Y1254600D01*
X12066220Y1254600D01*
X12301537Y1298878D01*
X12517661Y1437950D01*
X12662651Y1650150D01*
X12713660Y1902040D01*
X12713660Y3053985D01*
X38739641Y3053985D01*
X39124746Y2121959D01*
X39837208Y1408252D01*
X40768561Y1021521D01*
X41777015Y1020641D01*
X42709041Y1405746D01*
X43422748Y2118208D01*
X43809479Y3049561D01*
X43810359Y4058015D01*
X43512790Y4778188D01*
X46735736Y4778188D01*
X46967262Y4217851D01*
X47395596Y3788769D01*
X47955528Y3556265D01*
X48561812Y3555736D01*
X49122149Y3787262D01*
X49551231Y4215596D01*
X49783735Y4775528D01*
X49784264Y5381812D01*
X49552738Y5942149D01*
X49124404Y6371231D01*
X48564472Y6603735D01*
X47958188Y6604264D01*
X47397851Y6372738D01*
X46968769Y5944404D01*
X46736265Y5384472D01*
X46735736Y4778188D01*
X43512790Y4778188D01*
X43425254Y4990041D01*
X42712792Y5703748D01*
X41781439Y6090479D01*
X40772985Y6091359D01*
X39840959Y5706254D01*
X39127252Y4993792D01*
X38740521Y4062439D01*
X38739641Y3053985D01*
X12713660Y3053985D01*
X12713660Y4442040D01*
X12669382Y4677357D01*
X12530310Y4893481D01*
X12318110Y5038471D01*
X12066220Y5089480D01*
X9526220Y5089480D01*
X9290903Y5045202D01*
X9074779Y4906130D01*
X8929789Y4693930D01*
X8878780Y4442040D01*
X7080058Y4442040D01*
X7134628Y4573459D01*
X7135370Y5422815D01*
X6811020Y6207800D01*
X6210959Y6808909D01*
X5426541Y7134628D01*
X4577185Y7135370D01*
X3792200Y6811020D01*
X3191091Y6210959D01*
X2865372Y5426541D01*
X2864630Y4577185D01*
X685000Y4577185D01*
X685000Y8515695D01*
X7618450Y8515695D01*
X7907858Y7815274D01*
X8443275Y7278921D01*
X9143190Y6988292D01*
X9901045Y6987630D01*
X10601466Y7277038D01*
X11137819Y7812455D01*
X11428448Y8512370D01*
X11429110Y9270225D01*
X11139702Y9970646D01*
X10947724Y10162960D01*
X22846340Y10162960D01*
X22846340Y7622960D01*
X22890618Y7387643D01*
X23029690Y7171519D01*
X23241890Y7026529D01*
X23493780Y6975520D01*
X26033780Y6975520D01*
X26269097Y7019798D01*
X26485221Y7158870D01*
X26630211Y7371070D01*
X26681220Y7622960D01*
X26681220Y8270000D01*
X32357560Y8270000D01*
X32357560Y6970000D01*
X32401838Y6734683D01*
X32540910Y6518559D01*
X32753110Y6373569D01*
X33005000Y6322560D01*
X34305000Y6322560D01*
X34540317Y6366838D01*
X34756441Y6505910D01*
X34901431Y6718110D01*
X34952440Y6970000D01*
X34952440Y8270000D01*
X34908162Y8505317D01*
X34769090Y8721441D01*
X34556890Y8866431D01*
X34305000Y8917440D01*
X33005000Y8917440D01*
X32769683Y8873162D01*
X32553559Y8734090D01*
X32408569Y8521890D01*
X32357560Y8270000D01*
X26681220Y8270000D01*
X26681220Y10162960D01*
X26636942Y10398277D01*
X26497870Y10614401D01*
X26285670Y10759391D01*
X26033780Y10810400D01*
X23493780Y10810400D01*
X23258463Y10766122D01*
X23042339Y10627050D01*
X22897349Y10414850D01*
X22846340Y10162960D01*
X10947724Y10162960D01*
X10604285Y10506999D01*
X9904370Y10797628D01*
X9146515Y10798290D01*
X8446094Y10508882D01*
X7909741Y9973465D01*
X7619112Y9273550D01*
X7618450Y8515695D01*
X685000Y8515695D01*
X685000Y12375911D01*
X1094743Y12375911D01*
X1320344Y11829914D01*
X1737717Y11411812D01*
X2283319Y11185258D01*
X2874089Y11184743D01*
X3420086Y11410344D01*
X3838188Y11827717D01*
X4064742Y12373319D01*
X4065257Y12964089D01*
X3839656Y13510086D01*
X3422283Y13928188D01*
X2876681Y14154742D01*
X2285911Y14155257D01*
X1739914Y13929656D01*
X1321812Y13512283D01*
X1095258Y12966681D01*
X1094743Y12375911D01*
X685000Y12375911D01*
X685000Y15787185D01*
X15644630Y15787185D01*
X15968980Y15002200D01*
X16569041Y14401091D01*
X17353459Y14075372D01*
X18202815Y14074630D01*
X18987800Y14398980D01*
X19588909Y14999041D01*
X19821515Y15559220D01*
X22850520Y15559220D01*
X22850520Y13019220D01*
X22894798Y12783903D01*
X23033870Y12567779D01*
X23246070Y12422789D01*
X23497960Y12371780D01*
X26037960Y12371780D01*
X26273277Y12416058D01*
X26489401Y12555130D01*
X26634391Y12767330D01*
X26685400Y13019220D01*
X26685400Y15559220D01*
X26641122Y15794537D01*
X26502050Y16010661D01*
X26289850Y16155651D01*
X26037960Y16206660D01*
X23497960Y16206660D01*
X23262643Y16162382D01*
X23046519Y16023310D01*
X22901529Y15811110D01*
X22850520Y15559220D01*
X19821515Y15559220D01*
X19914628Y15783459D01*
X19915370Y16632815D01*
X19591020Y17417800D01*
X18990959Y18018909D01*
X18206541Y18344628D01*
X17357185Y18345370D01*
X16572200Y18021020D01*
X15971091Y17420959D01*
X15645372Y16636541D01*
X15644630Y15787185D01*
X685000Y15787185D01*
X685000Y27375911D01*
X1094743Y27375911D01*
X1320344Y26829914D01*
X1737717Y26411812D01*
X2283319Y26185258D01*
X2874089Y26184743D01*
X3420086Y26410344D01*
X3838188Y26827717D01*
X4064742Y27373319D01*
X4065257Y27964089D01*
X3839656Y28510086D01*
X3422283Y28928188D01*
X2876681Y29154742D01*
X2285911Y29155257D01*
X1739914Y28929656D01*
X1321812Y28512283D01*
X1095258Y27966681D01*
X1094743Y27375911D01*
X685000Y27375911D01*
X685000Y32382040D01*
X4433780Y32382040D01*
X4433780Y29842040D01*
X4478058Y29606723D01*
X4617130Y29390599D01*
X4829330Y29245609D01*
X5081220Y29194600D01*
X7621220Y29194600D01*
X7856537Y29238878D01*
X8072661Y29377950D01*
X8217651Y29590150D01*
X8268660Y29842040D01*
X8268660Y32382040D01*
X8224382Y32617357D01*
X8085310Y32833481D01*
X7873110Y32978471D01*
X7621220Y33029480D01*
X5081220Y33029480D01*
X4845903Y32985202D01*
X4629779Y32846130D01*
X4484789Y32633930D01*
X4433780Y32382040D01*
X685000Y32382040D01*
X685000Y40003135D01*
X11786047Y40003135D01*
X11786200Y40002765D01*
X11786200Y24460005D01*
X11786199Y24460000D01*
X11813232Y24324100D01*
X11853567Y24121325D01*
X11941431Y23989827D01*
X12045410Y23834210D01*
X15974750Y19904871D01*
X16098833Y19780571D01*
X16423990Y19645554D01*
X16600796Y19645400D01*
X16600800Y19645399D01*
X16600804Y19645400D01*
X16776065Y19645247D01*
X16939473Y19712766D01*
X16939475Y19712766D01*
X16939477Y19712767D01*
X17101457Y19779696D01*
X17226588Y19904609D01*
X17226590Y19904610D01*
X17226591Y19904612D01*
X17350629Y20028433D01*
X17485646Y20353590D01*
X17485800Y20530396D01*
X17485801Y20530400D01*
X17485800Y20530404D01*
X17485953Y20705665D01*
X17351504Y21031057D01*
X17102767Y21280229D01*
X17102396Y21280383D01*
X14675595Y23707185D01*
X15644630Y23707185D01*
X15968980Y22922200D01*
X16569041Y22321091D01*
X17353459Y21995372D01*
X18202815Y21994630D01*
X18987800Y22318980D01*
X19588909Y22919041D01*
X19914628Y23703459D01*
X19915370Y24552815D01*
X19591020Y25337800D01*
X18990959Y25938909D01*
X18206541Y26264628D01*
X17357185Y26265370D01*
X16572200Y25941020D01*
X15971091Y25340959D01*
X15645372Y24556541D01*
X15644630Y23707185D01*
X14675595Y23707185D01*
X13556200Y24826580D01*
X13556200Y29151955D01*
X22862630Y29151955D01*
X23152038Y28451534D01*
X23687455Y27915181D01*
X24387370Y27624552D01*
X25145225Y27623890D01*
X25845646Y27913298D01*
X26381999Y28448715D01*
X26672628Y29148630D01*
X26673290Y29906485D01*
X26383882Y30606906D01*
X25848465Y31143259D01*
X25148550Y31433888D01*
X24390695Y31434550D01*
X23690274Y31145142D01*
X23153921Y30609725D01*
X22863292Y29909810D01*
X22862630Y29151955D01*
X13556200Y29151955D01*
X13556200Y32061306D01*
X28210226Y32061306D01*
X28458538Y31460345D01*
X28917927Y31000154D01*
X28960000Y30982684D01*
X28960000Y28575005D01*
X28959999Y28575000D01*
X29009276Y28327275D01*
X29027367Y28236325D01*
X29144279Y28061353D01*
X29219210Y27949210D01*
X29729546Y27438874D01*
X29729190Y27030602D01*
X29939686Y26521163D01*
X30329113Y26131056D01*
X30838184Y25919671D01*
X31389398Y25919190D01*
X31898837Y26129686D01*
X32288944Y26519113D01*
X32384975Y26750381D01*
X32479686Y26521163D01*
X32869113Y26131056D01*
X33378184Y25919671D01*
X33929398Y25919190D01*
X34438837Y26129686D01*
X34828944Y26519113D01*
X35040329Y27028184D01*
X35040688Y27439108D01*
X36049655Y28448075D01*
X36139233Y27997736D01*
X36450302Y27532189D01*
X36730000Y27345301D01*
X36730000Y27316446D01*
X36579683Y27288162D01*
X36363559Y27149090D01*
X36218569Y26936890D01*
X36167560Y26685000D01*
X36167560Y25385000D01*
X36211838Y25149683D01*
X36350910Y24933559D01*
X36563110Y24788569D01*
X36815000Y24737560D01*
X38115000Y24737560D01*
X38350317Y24781838D01*
X38566441Y24920910D01*
X38711431Y25133110D01*
X38762440Y25385000D01*
X38762440Y25580460D01*
X38874995Y25308057D01*
X39236155Y24946265D01*
X39708276Y24750223D01*
X40219481Y24749777D01*
X40691943Y24944995D01*
X40897307Y25150000D01*
X44092520Y25150000D01*
X45167825Y24074695D01*
X44965620Y23991146D01*
X44590173Y23616353D01*
X44494324Y23385524D01*
X44394400Y23405401D01*
X44394395Y23405400D01*
X39101580Y23405400D01*
X39021190Y23485790D01*
X38826603Y23615808D01*
X38734075Y23677633D01*
X38677884Y23688810D01*
X38395400Y23745001D01*
X38395395Y23745000D01*
X37830754Y23745000D01*
X37586353Y23989827D01*
X37096413Y24193268D01*
X36565914Y24193731D01*
X36075620Y23991146D01*
X35700173Y23616353D01*
X35496732Y23126413D01*
X35496269Y22595914D01*
X35698854Y22105620D01*
X36073647Y21730173D01*
X36563587Y21526732D01*
X37094086Y21526269D01*
X37320521Y21619830D01*
X37250370Y21267156D01*
X37250370Y19372844D01*
X37363381Y18804701D01*
X37685208Y18323052D01*
X38166857Y18001225D01*
X38735000Y17888214D01*
X39303143Y18001225D01*
X39784792Y18323052D01*
X40005000Y18652617D01*
X40225208Y18323052D01*
X40706857Y18001225D01*
X41275000Y17888214D01*
X41843143Y18001225D01*
X42324792Y18323052D01*
X42545000Y18652617D01*
X42765208Y18323052D01*
X43246857Y18001225D01*
X43815000Y17888214D01*
X44383143Y18001225D01*
X44864792Y18323052D01*
X45186619Y18804701D01*
X45299630Y19372844D01*
X45299630Y20363591D01*
X45969008Y19694213D01*
X45969010Y19694210D01*
X46042289Y19645247D01*
X46256126Y19502366D01*
X46594800Y19434999D01*
X46594805Y19435000D01*
X46990073Y19435000D01*
X47395596Y19028769D01*
X47955528Y18796265D01*
X48561812Y18795736D01*
X49122149Y19027262D01*
X49551231Y19455596D01*
X49620385Y19622136D01*
X50550000Y18692521D01*
X50550000Y9657847D01*
X50510345Y9641462D01*
X50050154Y9182073D01*
X49800794Y8581547D01*
X49800226Y7931306D01*
X50048538Y7330345D01*
X50507927Y6870154D01*
X51108453Y6620794D01*
X51758694Y6620226D01*
X52359655Y6868538D01*
X52819846Y7327927D01*
X53069206Y7928453D01*
X53069208Y7931306D01*
X57420226Y7931306D01*
X57668538Y7330345D01*
X58127927Y6870154D01*
X58728453Y6620794D01*
X59378694Y6620226D01*
X59979655Y6868538D01*
X60439846Y7327927D01*
X60689206Y7928453D01*
X60689774Y8578694D01*
X60441462Y9179655D01*
X59982073Y9639846D01*
X59381547Y9889206D01*
X58731306Y9889774D01*
X58130345Y9641462D01*
X57670154Y9182073D01*
X57420794Y8581547D01*
X57420226Y7931306D01*
X53069208Y7931306D01*
X53069774Y8578694D01*
X52821462Y9179655D01*
X52362073Y9639846D01*
X52320000Y9657316D01*
X52320000Y19059100D01*
X52252633Y19397775D01*
X52060790Y19684890D01*
X52060787Y19684892D01*
X50854227Y20891452D01*
X51064086Y20891269D01*
X51554380Y21093854D01*
X51929827Y21468647D01*
X52133268Y21958587D01*
X52133731Y22489086D01*
X51931146Y22979380D01*
X51556353Y23354827D01*
X51218554Y23495094D01*
X51554380Y23633854D01*
X51929827Y24008647D01*
X52133268Y24498587D01*
X52133731Y25029086D01*
X51931146Y25519380D01*
X51556353Y25894827D01*
X51218554Y26035094D01*
X51554380Y26173854D01*
X51929827Y26548647D01*
X52133268Y27038587D01*
X52133731Y27569086D01*
X51931146Y28059380D01*
X51556353Y28434827D01*
X51218554Y28575094D01*
X51554380Y28713854D01*
X51929827Y29088647D01*
X52133268Y29578587D01*
X52133731Y30109086D01*
X51931146Y30599380D01*
X51556353Y30974827D01*
X51218554Y31115094D01*
X51554380Y31253854D01*
X51929827Y31628647D01*
X52070094Y31966446D01*
X52208854Y31630620D01*
X52583647Y31255173D01*
X53073587Y31051732D01*
X53604086Y31051269D01*
X54094380Y31253854D01*
X54469827Y31628647D01*
X54673268Y32118587D01*
X54673731Y32649086D01*
X54471146Y33139380D01*
X54096353Y33514827D01*
X53606413Y33718268D01*
X53075914Y33718731D01*
X52585620Y33516146D01*
X52210173Y33141353D01*
X52069906Y32803554D01*
X51931146Y33139380D01*
X51556353Y33514827D01*
X51066413Y33718268D01*
X50535914Y33718731D01*
X50045620Y33516146D01*
X49670173Y33141353D01*
X49466732Y32651413D01*
X49466269Y32120914D01*
X49475099Y32099545D01*
X49318104Y31942550D01*
X49016353Y32244827D01*
X48526413Y32448268D01*
X47995914Y32448731D01*
X47505620Y32246146D01*
X47130173Y31871353D01*
X46926732Y31381413D01*
X46926269Y30850914D01*
X46984328Y30710400D01*
X45794645Y30710400D01*
X45846757Y30835900D01*
X45847242Y31391661D01*
X45635010Y31905303D01*
X45242370Y32298629D01*
X44729100Y32511757D01*
X44173339Y32512242D01*
X43659697Y32300010D01*
X43266371Y31907370D01*
X43053243Y31394100D01*
X43052758Y30838339D01*
X43105621Y30710400D01*
X38030979Y30710400D01*
X37545690Y31195690D01*
X37545687Y31195692D01*
X35730590Y33010790D01*
X35650879Y33064051D01*
X35443475Y33202633D01*
X35387284Y33213810D01*
X35301930Y33230789D01*
X35301930Y33384490D01*
X35257652Y33619807D01*
X35118580Y33835931D01*
X34906380Y33980921D01*
X34654490Y34031930D01*
X32655510Y34031930D01*
X32420193Y33987652D01*
X32204069Y33848580D01*
X32059079Y33636380D01*
X32008070Y33384490D01*
X32008070Y31385510D01*
X32052348Y31150193D01*
X32191420Y30934069D01*
X32403620Y30789079D01*
X32655510Y30738070D01*
X34654490Y30738070D01*
X34889807Y30782348D01*
X35105931Y30921420D01*
X35191527Y31046694D01*
X35668321Y30569900D01*
X33788874Y28690454D01*
X33380602Y28690810D01*
X32871163Y28480314D01*
X32481056Y28090887D01*
X32385025Y27859619D01*
X32290314Y28088837D01*
X31900887Y28478944D01*
X31391816Y28690329D01*
X30980892Y28690688D01*
X30730000Y28941580D01*
X30730000Y30982153D01*
X30769655Y30998538D01*
X31229846Y31457927D01*
X31479206Y32058453D01*
X31479774Y32708694D01*
X31231462Y33309655D01*
X30772073Y33769846D01*
X30171547Y34019206D01*
X29521306Y34019774D01*
X28920345Y33771462D01*
X28460154Y33312073D01*
X28210794Y32711547D01*
X28210226Y32061306D01*
X13556200Y32061306D01*
X13556200Y33390914D01*
X21526269Y33390914D01*
X21728854Y32900620D01*
X22103647Y32525173D01*
X22593587Y32321732D01*
X23124086Y32321269D01*
X23614380Y32523854D01*
X23989827Y32898647D01*
X24130094Y33236446D01*
X24268854Y32900620D01*
X24643647Y32525173D01*
X25133587Y32321732D01*
X25664086Y32321269D01*
X26154380Y32523854D01*
X26529827Y32898647D01*
X26733268Y33388587D01*
X26733731Y33919086D01*
X26531146Y34409380D01*
X26156353Y34784827D01*
X25666413Y34988268D01*
X25135914Y34988731D01*
X24645620Y34786146D01*
X24270173Y34411353D01*
X24129906Y34073554D01*
X23991146Y34409380D01*
X23616353Y34784827D01*
X23126413Y34988268D01*
X22595914Y34988731D01*
X22105620Y34786146D01*
X21730173Y34411353D01*
X21526732Y33921413D01*
X21526269Y33390914D01*
X13556200Y33390914D01*
X13556200Y34953113D01*
X15075000Y34953113D01*
X15075000Y34896887D01*
X15184233Y34347736D01*
X15495302Y33882189D01*
X15960849Y33571120D01*
X16510000Y33461887D01*
X17059151Y33571120D01*
X17524698Y33882189D01*
X17780000Y34264275D01*
X18035302Y33882189D01*
X18500849Y33571120D01*
X19050000Y33461887D01*
X19599151Y33571120D01*
X20064698Y33882189D01*
X20375767Y34347736D01*
X20485000Y34896887D01*
X20485000Y34953113D01*
X20375767Y35502264D01*
X20064698Y35967811D01*
X19682613Y36223113D01*
X36030000Y36223113D01*
X36030000Y36166887D01*
X36139233Y35617736D01*
X36450302Y35152189D01*
X36915849Y34841120D01*
X37465000Y34731887D01*
X38014151Y34841120D01*
X38479698Y35152189D01*
X38735000Y35534275D01*
X38990302Y35152189D01*
X39455849Y34841120D01*
X40005000Y34731887D01*
X40554151Y34841120D01*
X41019698Y35152189D01*
X41243776Y35487545D01*
X41386572Y35515949D01*
X41625023Y35675277D01*
X42777650Y36827904D01*
X43076190Y36529363D01*
X43053243Y36474100D01*
X43052758Y35918339D01*
X43264990Y35404697D01*
X43657630Y35011371D01*
X44170900Y34798243D01*
X44726661Y34797758D01*
X45240303Y35009990D01*
X45633629Y35402630D01*
X45846757Y35915900D01*
X45847242Y36471661D01*
X45635010Y36985303D01*
X45242370Y37378629D01*
X44729100Y37591757D01*
X44173339Y37592242D01*
X44115927Y37568520D01*
X44007550Y37676896D01*
X44309827Y37978647D01*
X44484681Y38399742D01*
X44629995Y38048057D01*
X44991155Y37686265D01*
X45463276Y37490223D01*
X45974481Y37489777D01*
X46446943Y37684995D01*
X46808735Y38046155D01*
X47004777Y38518276D01*
X47005223Y39029481D01*
X46810005Y39501943D01*
X46448845Y39863735D01*
X46174724Y39977560D01*
X46370000Y39977560D01*
X46605317Y40021838D01*
X46821441Y40160910D01*
X46966431Y40373110D01*
X47017440Y40625000D01*
X47017440Y41925000D01*
X46973162Y42160317D01*
X46834090Y42376441D01*
X46621890Y42521431D01*
X46370000Y42572440D01*
X45070000Y42572440D01*
X44834683Y42528162D01*
X44618559Y42389090D01*
X44473569Y42176890D01*
X44422560Y41925000D01*
X44422560Y41759737D01*
X44311146Y42029380D01*
X43936353Y42404827D01*
X43446413Y42608268D01*
X42915914Y42608731D01*
X42425620Y42406146D01*
X42050173Y42031353D01*
X41846732Y41541413D01*
X41846269Y41010914D01*
X42048854Y40520620D01*
X42423647Y40145173D01*
X42761446Y40004906D01*
X42425620Y39866146D01*
X42050173Y39491353D01*
X41846732Y39001413D01*
X41846269Y38470914D01*
X41991143Y38120290D01*
X41055333Y37184479D01*
X41019698Y37237811D01*
X40554151Y37548880D01*
X40005000Y37658113D01*
X39455849Y37548880D01*
X38990302Y37237811D01*
X38735000Y36855725D01*
X38479698Y37237811D01*
X38014151Y37548880D01*
X37465000Y37658113D01*
X36915849Y37548880D01*
X36450302Y37237811D01*
X36139233Y36772264D01*
X36030000Y36223113D01*
X19682613Y36223113D01*
X19599151Y36278880D01*
X19050000Y36388113D01*
X18500849Y36278880D01*
X18035302Y35967811D01*
X17780000Y35585725D01*
X17524698Y35967811D01*
X17059151Y36278880D01*
X16510000Y36388113D01*
X15960849Y36278880D01*
X15495302Y35967811D01*
X15184233Y35502264D01*
X15075000Y34953113D01*
X13556200Y34953113D01*
X13556200Y40178400D01*
X13556353Y40353665D01*
X13421904Y40679057D01*
X13296991Y40804188D01*
X13296990Y40804190D01*
X13296988Y40804191D01*
X13173167Y40928229D01*
X12974040Y41010914D01*
X32956269Y41010914D01*
X33158854Y40520620D01*
X33533647Y40145173D01*
X33555000Y40136306D01*
X33555000Y39874154D01*
X33535620Y39866146D01*
X33160173Y39491353D01*
X32956732Y39001413D01*
X32956269Y38470914D01*
X33158854Y37980620D01*
X33533647Y37605173D01*
X34023587Y37401732D01*
X34554086Y37401269D01*
X35044380Y37603854D01*
X35419827Y37978647D01*
X35623268Y38468587D01*
X35623731Y38999086D01*
X35421146Y39489380D01*
X35046353Y39864827D01*
X35025000Y39873694D01*
X35025000Y40135846D01*
X35044380Y40143854D01*
X35419827Y40518647D01*
X35623268Y41008587D01*
X35623731Y41539086D01*
X35421146Y42029380D01*
X35046353Y42404827D01*
X34556413Y42608268D01*
X34025914Y42608731D01*
X33535620Y42406146D01*
X33160173Y42031353D01*
X32956732Y41541413D01*
X32956269Y41010914D01*
X12974040Y41010914D01*
X12848010Y41063246D01*
X12495935Y41063553D01*
X12170543Y40929104D01*
X12045412Y40804191D01*
X12045410Y40804190D01*
X12045409Y40804188D01*
X11921371Y40680367D01*
X11786354Y40355210D01*
X11786047Y40003135D01*
X685000Y40003135D01*
X685000Y46277560D01*
X1767969Y46277560D01*
X1749697Y46270010D01*
X1356371Y45877370D01*
X1143243Y45364100D01*
X1142758Y44808339D01*
X1354990Y44294697D01*
X1747630Y43901371D01*
X2260900Y43688243D01*
X2816661Y43687758D01*
X3330303Y43899990D01*
X3723629Y44292630D01*
X3936757Y44805900D01*
X3937242Y45361661D01*
X3725010Y45875303D01*
X3332370Y46268629D01*
X2819100Y46481757D01*
X2435914Y46482091D01*
X2566431Y46673110D01*
X2617440Y46925000D01*
X2617440Y48325000D01*
X2573162Y48560317D01*
X2434090Y48776441D01*
X2221890Y48921431D01*
X1970000Y48972440D01*
X685000Y48972440D01*
X685000Y94577185D01*
X2864630Y94577185D01*
X3188980Y93792200D01*
X3789041Y93191091D01*
X4573459Y92865372D01*
X5422815Y92864630D01*
X6207800Y93188980D01*
X6808909Y93789041D01*
X7134628Y94573459D01*
X7135370Y95422815D01*
X6811020Y96207800D01*
X6210959Y96808909D01*
X5426541Y97134628D01*
X4577185Y97135370D01*
X3792200Y96811020D01*
X3191091Y96210959D01*
X2865372Y95426541D01*
X2864630Y94577185D01*
X685000Y94577185D01*
X685000Y99315000D01*
X99315000Y99315000D01*
X99315000Y67766168D01*
X99315000Y67766168D01*
G37*
X99315000Y67766168D02*
X97990734Y69090434D01*
X97926193Y69133559D01*
X97719841Y69271439D01*
X97647440Y69285841D01*
X97647440Y69800000D01*
X97608426Y70007342D01*
X97647440Y70200000D01*
X97647440Y70800000D01*
X97608426Y71007342D01*
X97647440Y71200000D01*
X97647440Y71800000D01*
X97608426Y72007342D01*
X97647440Y72200000D01*
X97647440Y72800000D01*
X97608426Y73007342D01*
X97647440Y73200000D01*
X97647440Y73800000D01*
X97608426Y74007342D01*
X97647440Y74200000D01*
X97647440Y74800000D01*
X97608426Y75007342D01*
X97647440Y75200000D01*
X97647440Y75800000D01*
X97608426Y76007342D01*
X97647440Y76200000D01*
X97647440Y76800000D01*
X97608426Y77007342D01*
X97647440Y77200000D01*
X97647440Y77800000D01*
X97608426Y78007342D01*
X97647440Y78200000D01*
X97647440Y78800000D01*
X97608426Y79007342D01*
X97647440Y79200000D01*
X97647440Y79800000D01*
X97608426Y80007342D01*
X97647440Y80200000D01*
X97647440Y80800000D01*
X97608426Y81007342D01*
X97647440Y81200000D01*
X97647440Y81800000D01*
X97608426Y82007342D01*
X97647440Y82200000D01*
X97647440Y82800000D01*
X97608426Y83007342D01*
X97647440Y83200000D01*
X97647440Y83800000D01*
X97608426Y84007342D01*
X97647440Y84200000D01*
X97647440Y84800000D01*
X97608426Y85007342D01*
X97647440Y85200000D01*
X97647440Y85800000D01*
X97608426Y86007342D01*
X97647440Y86200000D01*
X97647440Y86800000D01*
X97608426Y87007342D01*
X97647440Y87200000D01*
X97647440Y87800000D01*
X97603162Y88035317D01*
X97464090Y88251441D01*
X97251890Y88396431D01*
X97000000Y88447440D01*
X96336253Y88447440D01*
X96551441Y88585910D01*
X96696431Y88798110D01*
X96747440Y89050000D01*
X96747440Y90800000D01*
X96703162Y91035317D01*
X96564090Y91251441D01*
X96351890Y91396431D01*
X96100000Y91447440D01*
X94300000Y91447440D01*
X94064683Y91403162D01*
X93866847Y91275858D01*
X93786283Y91396431D01*
X93750934Y91449335D01*
X90623084Y94577185D01*
X92864630Y94577185D01*
X93188980Y93792200D01*
X93789041Y93191091D01*
X94573459Y92865372D01*
X95422815Y92864630D01*
X96207800Y93188980D01*
X96808909Y93789041D01*
X97134628Y94573459D01*
X97135370Y95422815D01*
X96811020Y96207800D01*
X96210959Y96808909D01*
X95426541Y97134628D01*
X94577185Y97135370D01*
X93792200Y96811020D01*
X93191091Y96210959D01*
X92865372Y95426541D01*
X92864630Y94577185D01*
X90623084Y94577185D01*
X86497334Y98702934D01*
X86226441Y98883939D01*
X85906900Y98947500D01*
X46458600Y98947500D01*
X46139059Y98883939D01*
X45868166Y98702934D01*
X43977766Y96812534D01*
X43796761Y96541641D01*
X43733200Y96222100D01*
X43733200Y93924346D01*
X39652023Y98005523D01*
X39413572Y98164851D01*
X39132300Y98220800D01*
X14960700Y98220800D01*
X14679428Y98164851D01*
X14440977Y98005524D01*
X5830077Y89394623D01*
X5670749Y89156172D01*
X5645701Y89030248D01*
X4323305Y87707852D01*
X4306146Y87749380D01*
X3931353Y88124827D01*
X3441413Y88328268D01*
X2910914Y88328731D01*
X2420620Y88126146D01*
X2045173Y87751353D01*
X1841732Y87261413D01*
X1841269Y86730914D01*
X2043854Y86240620D01*
X2418647Y85865173D01*
X2462442Y85846988D01*
X1656377Y85040923D01*
X1497049Y84802472D01*
X1441100Y84521200D01*
X1441100Y66281951D01*
X1356371Y66197370D01*
X1143243Y65684100D01*
X1142758Y65128339D01*
X1354990Y64614697D01*
X1747630Y64221371D01*
X2260900Y64008243D01*
X2816661Y64007758D01*
X3330303Y64219990D01*
X3723629Y64612630D01*
X3809949Y64820512D01*
X3894990Y64614697D01*
X4287630Y64221371D01*
X4800900Y64008243D01*
X5356661Y64007758D01*
X5870303Y64219990D01*
X6026069Y64375485D01*
X9425000Y60976553D01*
X9425000Y46292861D01*
X9369697Y46270010D01*
X8976371Y45877370D01*
X8890051Y45669488D01*
X8805010Y45875303D01*
X8412370Y46268629D01*
X7899100Y46481757D01*
X7343339Y46482242D01*
X6829697Y46270010D01*
X6436371Y45877370D01*
X6223243Y45364100D01*
X6222758Y44808339D01*
X6434990Y44294697D01*
X6827630Y43901371D01*
X7340900Y43688243D01*
X7896661Y43687758D01*
X8410303Y43899990D01*
X8803629Y44292630D01*
X8889949Y44500512D01*
X8974990Y44294697D01*
X9367630Y43901371D01*
X9880900Y43688243D01*
X10436661Y43687758D01*
X10950303Y43899990D01*
X11343629Y44292630D01*
X11429949Y44500512D01*
X11514990Y44294697D01*
X11907630Y43901371D01*
X12420900Y43688243D01*
X12976661Y43687758D01*
X13490303Y43899990D01*
X13883629Y44292630D01*
X13969949Y44500512D01*
X14054990Y44294697D01*
X14447630Y43901371D01*
X14960900Y43688243D01*
X15516661Y43687758D01*
X15852657Y43826588D01*
X15495302Y43587811D01*
X15184233Y43122264D01*
X15075000Y42573113D01*
X15075000Y42516887D01*
X15184233Y41967736D01*
X15495302Y41502189D01*
X15960849Y41191120D01*
X16510000Y41081887D01*
X17059151Y41191120D01*
X17524698Y41502189D01*
X17835767Y41967736D01*
X17945000Y42516887D01*
X17945000Y42573113D01*
X17835767Y43122264D01*
X17524698Y43587811D01*
X17166713Y43827009D01*
X17500900Y43688243D01*
X18056661Y43687758D01*
X18570303Y43899990D01*
X18963629Y44292630D01*
X19049949Y44500512D01*
X19134990Y44294697D01*
X19527630Y43901371D01*
X20040900Y43688243D01*
X20596661Y43687758D01*
X21110303Y43899990D01*
X21503629Y44292630D01*
X21589949Y44500512D01*
X21674990Y44294697D01*
X22067630Y43901371D01*
X22358449Y43780613D01*
X22105620Y43676146D01*
X21730173Y43301353D01*
X21526732Y42811413D01*
X21526269Y42280914D01*
X21728854Y41790620D01*
X22103647Y41415173D01*
X22593587Y41211732D01*
X23124086Y41211269D01*
X23614380Y41413854D01*
X23989827Y41788647D01*
X24130094Y42126446D01*
X24268854Y41790620D01*
X24643647Y41415173D01*
X25133587Y41211732D01*
X25664086Y41211269D01*
X26154380Y41413854D01*
X26529827Y41788647D01*
X26733268Y42278587D01*
X26733731Y42809086D01*
X26531146Y43299380D01*
X26156353Y43674827D01*
X25901490Y43780655D01*
X26190303Y43899990D01*
X26583629Y44292630D01*
X26669949Y44500512D01*
X26754990Y44294697D01*
X27147630Y43901371D01*
X27660900Y43688243D01*
X28216661Y43687758D01*
X28730303Y43899990D01*
X29123629Y44292630D01*
X29209949Y44500512D01*
X29294990Y44294697D01*
X29687630Y43901371D01*
X30200900Y43688243D01*
X30756661Y43687758D01*
X31270303Y43899990D01*
X31663629Y44292630D01*
X31749949Y44500512D01*
X31834990Y44294697D01*
X32227630Y43901371D01*
X32740900Y43688243D01*
X33296661Y43687758D01*
X33810303Y43899990D01*
X34203629Y44292630D01*
X34289949Y44500512D01*
X34374990Y44294697D01*
X34767630Y43901371D01*
X35280900Y43688243D01*
X35836661Y43687758D01*
X36350303Y43899990D01*
X36743629Y44292630D01*
X36829949Y44500512D01*
X36914990Y44294697D01*
X37307630Y43901371D01*
X37820900Y43688243D01*
X38376661Y43687758D01*
X38890303Y43899990D01*
X39283629Y44292630D01*
X39369949Y44500512D01*
X39454990Y44294697D01*
X39847630Y43901371D01*
X40360900Y43688243D01*
X40916661Y43687758D01*
X41430303Y43899990D01*
X41823629Y44292630D01*
X41909949Y44500512D01*
X41994990Y44294697D01*
X42387630Y43901371D01*
X42900900Y43688243D01*
X43456661Y43687758D01*
X43970303Y43899990D01*
X44363629Y44292630D01*
X44449949Y44500512D01*
X44534990Y44294697D01*
X44927630Y43901371D01*
X45440900Y43688243D01*
X45996661Y43687758D01*
X46054073Y43711480D01*
X48011377Y41754176D01*
X48221654Y41613674D01*
X48249828Y41594849D01*
X48531100Y41538900D01*
X49466730Y41538900D01*
X49466269Y41010914D01*
X49668854Y40520620D01*
X50043647Y40145173D01*
X50533587Y39941732D01*
X51064086Y39941269D01*
X51554380Y40143854D01*
X51929827Y40518647D01*
X52070094Y40856446D01*
X52208854Y40520620D01*
X52583647Y40145173D01*
X53073587Y39941732D01*
X53421992Y39941428D01*
X57535000Y35828421D01*
X57535000Y32851144D01*
X57504971Y32821167D01*
X57369954Y32496010D01*
X57369647Y32143935D01*
X57369800Y32143565D01*
X57369800Y28153805D01*
X57369799Y28153800D01*
X57425990Y27871316D01*
X57437167Y27815125D01*
X57535000Y27668707D01*
X57535000Y20329480D01*
X55246220Y20329480D01*
X55010903Y20285202D01*
X54794779Y20146130D01*
X54649789Y19933930D01*
X54598780Y19682040D01*
X54598780Y17142040D01*
X54643058Y16906723D01*
X54782130Y16690599D01*
X54994330Y16545609D01*
X55246220Y16494600D01*
X57786220Y16494600D01*
X58021537Y16538878D01*
X58064133Y16566287D01*
X66425000Y8205421D01*
X66425000Y7205854D01*
X66224683Y7168162D01*
X66008559Y7029090D01*
X65863569Y6816890D01*
X65812560Y6565000D01*
X65812560Y4865000D01*
X65856838Y4629683D01*
X65995910Y4413559D01*
X66208110Y4268569D01*
X66460000Y4217560D01*
X68160000Y4217560D01*
X68395317Y4261838D01*
X68611441Y4400910D01*
X68756431Y4613110D01*
X68807440Y4865000D01*
X68807440Y6565000D01*
X68763162Y6800317D01*
X68624090Y7016441D01*
X68411890Y7161431D01*
X68195000Y7205352D01*
X68195000Y8571995D01*
X68195001Y8572000D01*
X68127634Y8910674D01*
X68006102Y9092560D01*
X67935790Y9197790D01*
X67935787Y9197792D01*
X59305000Y17828580D01*
X59305000Y20940974D01*
X59423587Y20891732D01*
X59954086Y20891269D01*
X60444380Y21093854D01*
X60819827Y21468647D01*
X61023268Y21958587D01*
X61023731Y22489086D01*
X60821146Y22979380D01*
X60575000Y23225956D01*
X60575000Y23764246D01*
X60819827Y24008647D01*
X61023268Y24498587D01*
X61023731Y25029086D01*
X60821146Y25519380D01*
X60446353Y25894827D01*
X60108554Y26035094D01*
X60444380Y26173854D01*
X60819827Y26548647D01*
X61023268Y27038587D01*
X61023731Y27569086D01*
X60821146Y28059380D01*
X60446353Y28434827D01*
X60108554Y28575094D01*
X60444380Y28713854D01*
X60819827Y29088647D01*
X61023268Y29578587D01*
X61023731Y30109086D01*
X60821146Y30599380D01*
X60446353Y30974827D01*
X59956413Y31178268D01*
X59425914Y31178731D01*
X59305000Y31128770D01*
X59305000Y34357954D01*
X63910513Y29752440D01*
X62445000Y29752440D01*
X62209683Y29708162D01*
X61993559Y29569090D01*
X61848569Y29356890D01*
X61797560Y29105000D01*
X61797560Y28090841D01*
X61725159Y28076439D01*
X61454266Y27895434D01*
X61273261Y27624541D01*
X61209700Y27305000D01*
X61209700Y26627129D01*
X61209555Y26461037D01*
X61336408Y26154028D01*
X61571093Y25918934D01*
X61797560Y25824896D01*
X61797560Y25505000D01*
X61841838Y25269683D01*
X61980910Y25053559D01*
X62193110Y24908569D01*
X62445000Y24857560D01*
X65145000Y24857560D01*
X65380317Y24901838D01*
X65596441Y25040910D01*
X65687124Y25173630D01*
X68793873Y22066880D01*
X68893308Y21826228D01*
X69127993Y21591134D01*
X69434779Y21463745D01*
X69766963Y21463455D01*
X70006163Y21562290D01*
X72625200Y18943253D01*
X72625200Y13078498D01*
X72525345Y12838021D01*
X72525055Y12505837D01*
X72651908Y12198828D01*
X72886593Y11963734D01*
X73193379Y11836345D01*
X73457300Y11836115D01*
X73457300Y3525100D01*
X73508528Y3267560D01*
X73513249Y3243828D01*
X73672577Y3005377D01*
X74319873Y2358080D01*
X74419308Y2117428D01*
X74653993Y1882334D01*
X74960779Y1754945D01*
X75292963Y1754655D01*
X75599972Y1881508D01*
X75835066Y2116193D01*
X75962455Y2422979D01*
X75962679Y2679700D01*
X76495000Y2679700D01*
X76814541Y2743261D01*
X77085434Y2924266D01*
X77266439Y3195159D01*
X77280841Y3267560D01*
X77845000Y3267560D01*
X78080317Y3311838D01*
X78296441Y3450910D01*
X78441431Y3663110D01*
X78492440Y3915000D01*
X78492440Y7515000D01*
X78448162Y7750317D01*
X78309090Y7966441D01*
X78096890Y8111431D01*
X77845000Y8162440D01*
X75145000Y8162440D01*
X74927300Y8121477D01*
X74927300Y14106645D01*
X75145000Y14062560D01*
X77845000Y14062560D01*
X78080317Y14106838D01*
X78296441Y14245910D01*
X78441431Y14458110D01*
X78492440Y14710000D01*
X78492440Y18056214D01*
X86361873Y10186780D01*
X86461308Y9946128D01*
X86695993Y9711034D01*
X86959600Y9601575D01*
X86959600Y7310168D01*
X86792440Y7143008D01*
X86792440Y7515000D01*
X86748162Y7750317D01*
X86609090Y7966441D01*
X86396890Y8111431D01*
X86145000Y8162440D01*
X83445000Y8162440D01*
X83209683Y8118162D01*
X82993559Y7979090D01*
X82848569Y7766890D01*
X82797560Y7515000D01*
X82797560Y3915000D01*
X82841838Y3679683D01*
X82980910Y3463559D01*
X83193110Y3318569D01*
X83445000Y3267560D01*
X86145000Y3267560D01*
X86380317Y3311838D01*
X86596441Y3450910D01*
X86741431Y3663110D01*
X86792440Y3915000D01*
X86792440Y4577185D01*
X92864630Y4577185D01*
X93188980Y3792200D01*
X93789041Y3191091D01*
X94573459Y2865372D01*
X95422815Y2864630D01*
X96207800Y3188980D01*
X96808909Y3789041D01*
X97134628Y4573459D01*
X97135370Y5422815D01*
X96811020Y6207800D01*
X96210959Y6808909D01*
X95426541Y7134628D01*
X94577185Y7135370D01*
X93792200Y6811020D01*
X93191091Y6210959D01*
X92865372Y5426541D01*
X92864630Y4577185D01*
X86792440Y4577185D01*
X86792440Y4929159D01*
X86864841Y4943561D01*
X87135734Y5124566D01*
X88385034Y6373866D01*
X88473263Y6505910D01*
X88566039Y6644759D01*
X88629600Y6964300D01*
X88629600Y10921600D01*
X88566039Y11241141D01*
X88385034Y11512034D01*
X88261700Y11635368D01*
X88261700Y12440000D01*
X90897560Y12440000D01*
X90897560Y9740000D01*
X90941838Y9504683D01*
X91080910Y9288559D01*
X91293110Y9143569D01*
X91545000Y9092560D01*
X92543644Y9092560D01*
X92636708Y8867328D01*
X92871393Y8632234D01*
X93178179Y8504845D01*
X93510363Y8504555D01*
X93817372Y8631408D01*
X94052466Y8866093D01*
X94146504Y9092560D01*
X95145000Y9092560D01*
X95380317Y9136838D01*
X95596441Y9275910D01*
X95741431Y9488110D01*
X95792440Y9740000D01*
X95792440Y12440000D01*
X95748162Y12675317D01*
X95609090Y12891441D01*
X95396890Y13036431D01*
X95145000Y13087440D01*
X91545000Y13087440D01*
X91309683Y13043162D01*
X91093559Y12904090D01*
X90948569Y12691890D01*
X90897560Y12440000D01*
X88261700Y12440000D01*
X88261700Y13723981D01*
X88282979Y13715145D01*
X88615163Y13714855D01*
X88615514Y13715000D01*
X92223100Y13715000D01*
X92542641Y13778561D01*
X92813534Y13959566D01*
X99315000Y20461032D01*
X99315000Y685000D01*
X685000Y685000D01*
X685000Y4577185D01*
X2864630Y4577185D01*
X3188980Y3792200D01*
X3789041Y3191091D01*
X4573459Y2865372D01*
X5422815Y2864630D01*
X6207800Y3188980D01*
X6808909Y3789041D01*
X7080058Y4442040D01*
X8878780Y4442040D01*
X8878780Y1902040D01*
X8923058Y1666723D01*
X9062130Y1450599D01*
X9274330Y1305609D01*
X9526220Y1254600D01*
X12066220Y1254600D01*
X12301537Y1298878D01*
X12517661Y1437950D01*
X12662651Y1650150D01*
X12713660Y1902040D01*
X12713660Y3053985D01*
X38739641Y3053985D01*
X39124746Y2121959D01*
X39837208Y1408252D01*
X40768561Y1021521D01*
X41777015Y1020641D01*
X42709041Y1405746D01*
X43422748Y2118208D01*
X43809479Y3049561D01*
X43810359Y4058015D01*
X43512790Y4778188D01*
X46735736Y4778188D01*
X46967262Y4217851D01*
X47395596Y3788769D01*
X47955528Y3556265D01*
X48561812Y3555736D01*
X49122149Y3787262D01*
X49551231Y4215596D01*
X49783735Y4775528D01*
X49784264Y5381812D01*
X49552738Y5942149D01*
X49124404Y6371231D01*
X48564472Y6603735D01*
X47958188Y6604264D01*
X47397851Y6372738D01*
X46968769Y5944404D01*
X46736265Y5384472D01*
X46735736Y4778188D01*
X43512790Y4778188D01*
X43425254Y4990041D01*
X42712792Y5703748D01*
X41781439Y6090479D01*
X40772985Y6091359D01*
X39840959Y5706254D01*
X39127252Y4993792D01*
X38740521Y4062439D01*
X38739641Y3053985D01*
X12713660Y3053985D01*
X12713660Y4442040D01*
X12669382Y4677357D01*
X12530310Y4893481D01*
X12318110Y5038471D01*
X12066220Y5089480D01*
X9526220Y5089480D01*
X9290903Y5045202D01*
X9074779Y4906130D01*
X8929789Y4693930D01*
X8878780Y4442040D01*
X7080058Y4442040D01*
X7134628Y4573459D01*
X7135370Y5422815D01*
X6811020Y6207800D01*
X6210959Y6808909D01*
X5426541Y7134628D01*
X4577185Y7135370D01*
X3792200Y6811020D01*
X3191091Y6210959D01*
X2865372Y5426541D01*
X2864630Y4577185D01*
X685000Y4577185D01*
X685000Y8515695D01*
X7618450Y8515695D01*
X7907858Y7815274D01*
X8443275Y7278921D01*
X9143190Y6988292D01*
X9901045Y6987630D01*
X10601466Y7277038D01*
X11137819Y7812455D01*
X11428448Y8512370D01*
X11429110Y9270225D01*
X11139702Y9970646D01*
X10947724Y10162960D01*
X22846340Y10162960D01*
X22846340Y7622960D01*
X22890618Y7387643D01*
X23029690Y7171519D01*
X23241890Y7026529D01*
X23493780Y6975520D01*
X26033780Y6975520D01*
X26269097Y7019798D01*
X26485221Y7158870D01*
X26630211Y7371070D01*
X26681220Y7622960D01*
X26681220Y8270000D01*
X32357560Y8270000D01*
X32357560Y6970000D01*
X32401838Y6734683D01*
X32540910Y6518559D01*
X32753110Y6373569D01*
X33005000Y6322560D01*
X34305000Y6322560D01*
X34540317Y6366838D01*
X34756441Y6505910D01*
X34901431Y6718110D01*
X34952440Y6970000D01*
X34952440Y8270000D01*
X34908162Y8505317D01*
X34769090Y8721441D01*
X34556890Y8866431D01*
X34305000Y8917440D01*
X33005000Y8917440D01*
X32769683Y8873162D01*
X32553559Y8734090D01*
X32408569Y8521890D01*
X32357560Y8270000D01*
X26681220Y8270000D01*
X26681220Y10162960D01*
X26636942Y10398277D01*
X26497870Y10614401D01*
X26285670Y10759391D01*
X26033780Y10810400D01*
X23493780Y10810400D01*
X23258463Y10766122D01*
X23042339Y10627050D01*
X22897349Y10414850D01*
X22846340Y10162960D01*
X10947724Y10162960D01*
X10604285Y10506999D01*
X9904370Y10797628D01*
X9146515Y10798290D01*
X8446094Y10508882D01*
X7909741Y9973465D01*
X7619112Y9273550D01*
X7618450Y8515695D01*
X685000Y8515695D01*
X685000Y12375911D01*
X1094743Y12375911D01*
X1320344Y11829914D01*
X1737717Y11411812D01*
X2283319Y11185258D01*
X2874089Y11184743D01*
X3420086Y11410344D01*
X3838188Y11827717D01*
X4064742Y12373319D01*
X4065257Y12964089D01*
X3839656Y13510086D01*
X3422283Y13928188D01*
X2876681Y14154742D01*
X2285911Y14155257D01*
X1739914Y13929656D01*
X1321812Y13512283D01*
X1095258Y12966681D01*
X1094743Y12375911D01*
X685000Y12375911D01*
X685000Y15787185D01*
X15644630Y15787185D01*
X15968980Y15002200D01*
X16569041Y14401091D01*
X17353459Y14075372D01*
X18202815Y14074630D01*
X18987800Y14398980D01*
X19588909Y14999041D01*
X19821515Y15559220D01*
X22850520Y15559220D01*
X22850520Y13019220D01*
X22894798Y12783903D01*
X23033870Y12567779D01*
X23246070Y12422789D01*
X23497960Y12371780D01*
X26037960Y12371780D01*
X26273277Y12416058D01*
X26489401Y12555130D01*
X26634391Y12767330D01*
X26685400Y13019220D01*
X26685400Y15559220D01*
X26641122Y15794537D01*
X26502050Y16010661D01*
X26289850Y16155651D01*
X26037960Y16206660D01*
X23497960Y16206660D01*
X23262643Y16162382D01*
X23046519Y16023310D01*
X22901529Y15811110D01*
X22850520Y15559220D01*
X19821515Y15559220D01*
X19914628Y15783459D01*
X19915370Y16632815D01*
X19591020Y17417800D01*
X18990959Y18018909D01*
X18206541Y18344628D01*
X17357185Y18345370D01*
X16572200Y18021020D01*
X15971091Y17420959D01*
X15645372Y16636541D01*
X15644630Y15787185D01*
X685000Y15787185D01*
X685000Y27375911D01*
X1094743Y27375911D01*
X1320344Y26829914D01*
X1737717Y26411812D01*
X2283319Y26185258D01*
X2874089Y26184743D01*
X3420086Y26410344D01*
X3838188Y26827717D01*
X4064742Y27373319D01*
X4065257Y27964089D01*
X3839656Y28510086D01*
X3422283Y28928188D01*
X2876681Y29154742D01*
X2285911Y29155257D01*
X1739914Y28929656D01*
X1321812Y28512283D01*
X1095258Y27966681D01*
X1094743Y27375911D01*
X685000Y27375911D01*
X685000Y32382040D01*
X4433780Y32382040D01*
X4433780Y29842040D01*
X4478058Y29606723D01*
X4617130Y29390599D01*
X4829330Y29245609D01*
X5081220Y29194600D01*
X7621220Y29194600D01*
X7856537Y29238878D01*
X8072661Y29377950D01*
X8217651Y29590150D01*
X8268660Y29842040D01*
X8268660Y32382040D01*
X8224382Y32617357D01*
X8085310Y32833481D01*
X7873110Y32978471D01*
X7621220Y33029480D01*
X5081220Y33029480D01*
X4845903Y32985202D01*
X4629779Y32846130D01*
X4484789Y32633930D01*
X4433780Y32382040D01*
X685000Y32382040D01*
X685000Y40003135D01*
X11786047Y40003135D01*
X11786200Y40002765D01*
X11786200Y24460005D01*
X11786199Y24460000D01*
X11813232Y24324100D01*
X11853567Y24121325D01*
X11941431Y23989827D01*
X12045410Y23834210D01*
X15974750Y19904871D01*
X16098833Y19780571D01*
X16423990Y19645554D01*
X16600796Y19645400D01*
X16600800Y19645399D01*
X16600804Y19645400D01*
X16776065Y19645247D01*
X16939473Y19712766D01*
X16939475Y19712766D01*
X16939477Y19712767D01*
X17101457Y19779696D01*
X17226588Y19904609D01*
X17226590Y19904610D01*
X17226591Y19904612D01*
X17350629Y20028433D01*
X17485646Y20353590D01*
X17485800Y20530396D01*
X17485801Y20530400D01*
X17485800Y20530404D01*
X17485953Y20705665D01*
X17351504Y21031057D01*
X17102767Y21280229D01*
X17102396Y21280383D01*
X14675595Y23707185D01*
X15644630Y23707185D01*
X15968980Y22922200D01*
X16569041Y22321091D01*
X17353459Y21995372D01*
X18202815Y21994630D01*
X18987800Y22318980D01*
X19588909Y22919041D01*
X19914628Y23703459D01*
X19915370Y24552815D01*
X19591020Y25337800D01*
X18990959Y25938909D01*
X18206541Y26264628D01*
X17357185Y26265370D01*
X16572200Y25941020D01*
X15971091Y25340959D01*
X15645372Y24556541D01*
X15644630Y23707185D01*
X14675595Y23707185D01*
X13556200Y24826580D01*
X13556200Y29151955D01*
X22862630Y29151955D01*
X23152038Y28451534D01*
X23687455Y27915181D01*
X24387370Y27624552D01*
X25145225Y27623890D01*
X25845646Y27913298D01*
X26381999Y28448715D01*
X26672628Y29148630D01*
X26673290Y29906485D01*
X26383882Y30606906D01*
X25848465Y31143259D01*
X25148550Y31433888D01*
X24390695Y31434550D01*
X23690274Y31145142D01*
X23153921Y30609725D01*
X22863292Y29909810D01*
X22862630Y29151955D01*
X13556200Y29151955D01*
X13556200Y32061306D01*
X28210226Y32061306D01*
X28458538Y31460345D01*
X28917927Y31000154D01*
X28960000Y30982684D01*
X28960000Y28575005D01*
X28959999Y28575000D01*
X29009276Y28327275D01*
X29027367Y28236325D01*
X29144279Y28061353D01*
X29219210Y27949210D01*
X29729546Y27438874D01*
X29729190Y27030602D01*
X29939686Y26521163D01*
X30329113Y26131056D01*
X30838184Y25919671D01*
X31389398Y25919190D01*
X31898837Y26129686D01*
X32288944Y26519113D01*
X32384975Y26750381D01*
X32479686Y26521163D01*
X32869113Y26131056D01*
X33378184Y25919671D01*
X33929398Y25919190D01*
X34438837Y26129686D01*
X34828944Y26519113D01*
X35040329Y27028184D01*
X35040688Y27439108D01*
X36049655Y28448075D01*
X36139233Y27997736D01*
X36450302Y27532189D01*
X36730000Y27345301D01*
X36730000Y27316446D01*
X36579683Y27288162D01*
X36363559Y27149090D01*
X36218569Y26936890D01*
X36167560Y26685000D01*
X36167560Y25385000D01*
X36211838Y25149683D01*
X36350910Y24933559D01*
X36563110Y24788569D01*
X36815000Y24737560D01*
X38115000Y24737560D01*
X38350317Y24781838D01*
X38566441Y24920910D01*
X38711431Y25133110D01*
X38762440Y25385000D01*
X38762440Y25580460D01*
X38874995Y25308057D01*
X39236155Y24946265D01*
X39708276Y24750223D01*
X40219481Y24749777D01*
X40691943Y24944995D01*
X40897307Y25150000D01*
X44092520Y25150000D01*
X45167825Y24074695D01*
X44965620Y23991146D01*
X44590173Y23616353D01*
X44494324Y23385524D01*
X44394400Y23405401D01*
X44394395Y23405400D01*
X39101580Y23405400D01*
X39021190Y23485790D01*
X38826603Y23615808D01*
X38734075Y23677633D01*
X38677884Y23688810D01*
X38395400Y23745001D01*
X38395395Y23745000D01*
X37830754Y23745000D01*
X37586353Y23989827D01*
X37096413Y24193268D01*
X36565914Y24193731D01*
X36075620Y23991146D01*
X35700173Y23616353D01*
X35496732Y23126413D01*
X35496269Y22595914D01*
X35698854Y22105620D01*
X36073647Y21730173D01*
X36563587Y21526732D01*
X37094086Y21526269D01*
X37320521Y21619830D01*
X37250370Y21267156D01*
X37250370Y19372844D01*
X37363381Y18804701D01*
X37685208Y18323052D01*
X38166857Y18001225D01*
X38735000Y17888214D01*
X39303143Y18001225D01*
X39784792Y18323052D01*
X40005000Y18652617D01*
X40225208Y18323052D01*
X40706857Y18001225D01*
X41275000Y17888214D01*
X41843143Y18001225D01*
X42324792Y18323052D01*
X42545000Y18652617D01*
X42765208Y18323052D01*
X43246857Y18001225D01*
X43815000Y17888214D01*
X44383143Y18001225D01*
X44864792Y18323052D01*
X45186619Y18804701D01*
X45299630Y19372844D01*
X45299630Y20363591D01*
X45969008Y19694213D01*
X45969010Y19694210D01*
X46042289Y19645247D01*
X46256126Y19502366D01*
X46594800Y19434999D01*
X46594805Y19435000D01*
X46990073Y19435000D01*
X47395596Y19028769D01*
X47955528Y18796265D01*
X48561812Y18795736D01*
X49122149Y19027262D01*
X49551231Y19455596D01*
X49620385Y19622136D01*
X50550000Y18692521D01*
X50550000Y9657847D01*
X50510345Y9641462D01*
X50050154Y9182073D01*
X49800794Y8581547D01*
X49800226Y7931306D01*
X50048538Y7330345D01*
X50507927Y6870154D01*
X51108453Y6620794D01*
X51758694Y6620226D01*
X52359655Y6868538D01*
X52819846Y7327927D01*
X53069206Y7928453D01*
X53069208Y7931306D01*
X57420226Y7931306D01*
X57668538Y7330345D01*
X58127927Y6870154D01*
X58728453Y6620794D01*
X59378694Y6620226D01*
X59979655Y6868538D01*
X60439846Y7327927D01*
X60689206Y7928453D01*
X60689774Y8578694D01*
X60441462Y9179655D01*
X59982073Y9639846D01*
X59381547Y9889206D01*
X58731306Y9889774D01*
X58130345Y9641462D01*
X57670154Y9182073D01*
X57420794Y8581547D01*
X57420226Y7931306D01*
X53069208Y7931306D01*
X53069774Y8578694D01*
X52821462Y9179655D01*
X52362073Y9639846D01*
X52320000Y9657316D01*
X52320000Y19059100D01*
X52252633Y19397775D01*
X52060790Y19684890D01*
X52060787Y19684892D01*
X50854227Y20891452D01*
X51064086Y20891269D01*
X51554380Y21093854D01*
X51929827Y21468647D01*
X52133268Y21958587D01*
X52133731Y22489086D01*
X51931146Y22979380D01*
X51556353Y23354827D01*
X51218554Y23495094D01*
X51554380Y23633854D01*
X51929827Y24008647D01*
X52133268Y24498587D01*
X52133731Y25029086D01*
X51931146Y25519380D01*
X51556353Y25894827D01*
X51218554Y26035094D01*
X51554380Y26173854D01*
X51929827Y26548647D01*
X52133268Y27038587D01*
X52133731Y27569086D01*
X51931146Y28059380D01*
X51556353Y28434827D01*
X51218554Y28575094D01*
X51554380Y28713854D01*
X51929827Y29088647D01*
X52133268Y29578587D01*
X52133731Y30109086D01*
X51931146Y30599380D01*
X51556353Y30974827D01*
X51218554Y31115094D01*
X51554380Y31253854D01*
X51929827Y31628647D01*
X52070094Y31966446D01*
X52208854Y31630620D01*
X52583647Y31255173D01*
X53073587Y31051732D01*
X53604086Y31051269D01*
X54094380Y31253854D01*
X54469827Y31628647D01*
X54673268Y32118587D01*
X54673731Y32649086D01*
X54471146Y33139380D01*
X54096353Y33514827D01*
X53606413Y33718268D01*
X53075914Y33718731D01*
X52585620Y33516146D01*
X52210173Y33141353D01*
X52069906Y32803554D01*
X51931146Y33139380D01*
X51556353Y33514827D01*
X51066413Y33718268D01*
X50535914Y33718731D01*
X50045620Y33516146D01*
X49670173Y33141353D01*
X49466732Y32651413D01*
X49466269Y32120914D01*
X49475099Y32099545D01*
X49318104Y31942550D01*
X49016353Y32244827D01*
X48526413Y32448268D01*
X47995914Y32448731D01*
X47505620Y32246146D01*
X47130173Y31871353D01*
X46926732Y31381413D01*
X46926269Y30850914D01*
X46984328Y30710400D01*
X45794645Y30710400D01*
X45846757Y30835900D01*
X45847242Y31391661D01*
X45635010Y31905303D01*
X45242370Y32298629D01*
X44729100Y32511757D01*
X44173339Y32512242D01*
X43659697Y32300010D01*
X43266371Y31907370D01*
X43053243Y31394100D01*
X43052758Y30838339D01*
X43105621Y30710400D01*
X38030979Y30710400D01*
X37545690Y31195690D01*
X37545687Y31195692D01*
X35730590Y33010790D01*
X35650879Y33064051D01*
X35443475Y33202633D01*
X35387284Y33213810D01*
X35301930Y33230789D01*
X35301930Y33384490D01*
X35257652Y33619807D01*
X35118580Y33835931D01*
X34906380Y33980921D01*
X34654490Y34031930D01*
X32655510Y34031930D01*
X32420193Y33987652D01*
X32204069Y33848580D01*
X32059079Y33636380D01*
X32008070Y33384490D01*
X32008070Y31385510D01*
X32052348Y31150193D01*
X32191420Y30934069D01*
X32403620Y30789079D01*
X32655510Y30738070D01*
X34654490Y30738070D01*
X34889807Y30782348D01*
X35105931Y30921420D01*
X35191527Y31046694D01*
X35668321Y30569900D01*
X33788874Y28690454D01*
X33380602Y28690810D01*
X32871163Y28480314D01*
X32481056Y28090887D01*
X32385025Y27859619D01*
X32290314Y28088837D01*
X31900887Y28478944D01*
X31391816Y28690329D01*
X30980892Y28690688D01*
X30730000Y28941580D01*
X30730000Y30982153D01*
X30769655Y30998538D01*
X31229846Y31457927D01*
X31479206Y32058453D01*
X31479774Y32708694D01*
X31231462Y33309655D01*
X30772073Y33769846D01*
X30171547Y34019206D01*
X29521306Y34019774D01*
X28920345Y33771462D01*
X28460154Y33312073D01*
X28210794Y32711547D01*
X28210226Y32061306D01*
X13556200Y32061306D01*
X13556200Y33390914D01*
X21526269Y33390914D01*
X21728854Y32900620D01*
X22103647Y32525173D01*
X22593587Y32321732D01*
X23124086Y32321269D01*
X23614380Y32523854D01*
X23989827Y32898647D01*
X24130094Y33236446D01*
X24268854Y32900620D01*
X24643647Y32525173D01*
X25133587Y32321732D01*
X25664086Y32321269D01*
X26154380Y32523854D01*
X26529827Y32898647D01*
X26733268Y33388587D01*
X26733731Y33919086D01*
X26531146Y34409380D01*
X26156353Y34784827D01*
X25666413Y34988268D01*
X25135914Y34988731D01*
X24645620Y34786146D01*
X24270173Y34411353D01*
X24129906Y34073554D01*
X23991146Y34409380D01*
X23616353Y34784827D01*
X23126413Y34988268D01*
X22595914Y34988731D01*
X22105620Y34786146D01*
X21730173Y34411353D01*
X21526732Y33921413D01*
X21526269Y33390914D01*
X13556200Y33390914D01*
X13556200Y34953113D01*
X15075000Y34953113D01*
X15075000Y34896887D01*
X15184233Y34347736D01*
X15495302Y33882189D01*
X15960849Y33571120D01*
X16510000Y33461887D01*
X17059151Y33571120D01*
X17524698Y33882189D01*
X17780000Y34264275D01*
X18035302Y33882189D01*
X18500849Y33571120D01*
X19050000Y33461887D01*
X19599151Y33571120D01*
X20064698Y33882189D01*
X20375767Y34347736D01*
X20485000Y34896887D01*
X20485000Y34953113D01*
X20375767Y35502264D01*
X20064698Y35967811D01*
X19682613Y36223113D01*
X36030000Y36223113D01*
X36030000Y36166887D01*
X36139233Y35617736D01*
X36450302Y35152189D01*
X36915849Y34841120D01*
X37465000Y34731887D01*
X38014151Y34841120D01*
X38479698Y35152189D01*
X38735000Y35534275D01*
X38990302Y35152189D01*
X39455849Y34841120D01*
X40005000Y34731887D01*
X40554151Y34841120D01*
X41019698Y35152189D01*
X41243776Y35487545D01*
X41386572Y35515949D01*
X41625023Y35675277D01*
X42777650Y36827904D01*
X43076190Y36529363D01*
X43053243Y36474100D01*
X43052758Y35918339D01*
X43264990Y35404697D01*
X43657630Y35011371D01*
X44170900Y34798243D01*
X44726661Y34797758D01*
X45240303Y35009990D01*
X45633629Y35402630D01*
X45846757Y35915900D01*
X45847242Y36471661D01*
X45635010Y36985303D01*
X45242370Y37378629D01*
X44729100Y37591757D01*
X44173339Y37592242D01*
X44115927Y37568520D01*
X44007550Y37676896D01*
X44309827Y37978647D01*
X44484681Y38399742D01*
X44629995Y38048057D01*
X44991155Y37686265D01*
X45463276Y37490223D01*
X45974481Y37489777D01*
X46446943Y37684995D01*
X46808735Y38046155D01*
X47004777Y38518276D01*
X47005223Y39029481D01*
X46810005Y39501943D01*
X46448845Y39863735D01*
X46174724Y39977560D01*
X46370000Y39977560D01*
X46605317Y40021838D01*
X46821441Y40160910D01*
X46966431Y40373110D01*
X47017440Y40625000D01*
X47017440Y41925000D01*
X46973162Y42160317D01*
X46834090Y42376441D01*
X46621890Y42521431D01*
X46370000Y42572440D01*
X45070000Y42572440D01*
X44834683Y42528162D01*
X44618559Y42389090D01*
X44473569Y42176890D01*
X44422560Y41925000D01*
X44422560Y41759737D01*
X44311146Y42029380D01*
X43936353Y42404827D01*
X43446413Y42608268D01*
X42915914Y42608731D01*
X42425620Y42406146D01*
X42050173Y42031353D01*
X41846732Y41541413D01*
X41846269Y41010914D01*
X42048854Y40520620D01*
X42423647Y40145173D01*
X42761446Y40004906D01*
X42425620Y39866146D01*
X42050173Y39491353D01*
X41846732Y39001413D01*
X41846269Y38470914D01*
X41991143Y38120290D01*
X41055333Y37184479D01*
X41019698Y37237811D01*
X40554151Y37548880D01*
X40005000Y37658113D01*
X39455849Y37548880D01*
X38990302Y37237811D01*
X38735000Y36855725D01*
X38479698Y37237811D01*
X38014151Y37548880D01*
X37465000Y37658113D01*
X36915849Y37548880D01*
X36450302Y37237811D01*
X36139233Y36772264D01*
X36030000Y36223113D01*
X19682613Y36223113D01*
X19599151Y36278880D01*
X19050000Y36388113D01*
X18500849Y36278880D01*
X18035302Y35967811D01*
X17780000Y35585725D01*
X17524698Y35967811D01*
X17059151Y36278880D01*
X16510000Y36388113D01*
X15960849Y36278880D01*
X15495302Y35967811D01*
X15184233Y35502264D01*
X15075000Y34953113D01*
X13556200Y34953113D01*
X13556200Y40178400D01*
X13556353Y40353665D01*
X13421904Y40679057D01*
X13296991Y40804188D01*
X13296990Y40804190D01*
X13296988Y40804191D01*
X13173167Y40928229D01*
X12974040Y41010914D01*
X32956269Y41010914D01*
X33158854Y40520620D01*
X33533647Y40145173D01*
X33555000Y40136306D01*
X33555000Y39874154D01*
X33535620Y39866146D01*
X33160173Y39491353D01*
X32956732Y39001413D01*
X32956269Y38470914D01*
X33158854Y37980620D01*
X33533647Y37605173D01*
X34023587Y37401732D01*
X34554086Y37401269D01*
X35044380Y37603854D01*
X35419827Y37978647D01*
X35623268Y38468587D01*
X35623731Y38999086D01*
X35421146Y39489380D01*
X35046353Y39864827D01*
X35025000Y39873694D01*
X35025000Y40135846D01*
X35044380Y40143854D01*
X35419827Y40518647D01*
X35623268Y41008587D01*
X35623731Y41539086D01*
X35421146Y42029380D01*
X35046353Y42404827D01*
X34556413Y42608268D01*
X34025914Y42608731D01*
X33535620Y42406146D01*
X33160173Y42031353D01*
X32956732Y41541413D01*
X32956269Y41010914D01*
X12974040Y41010914D01*
X12848010Y41063246D01*
X12495935Y41063553D01*
X12170543Y40929104D01*
X12045412Y40804191D01*
X12045410Y40804190D01*
X12045409Y40804188D01*
X11921371Y40680367D01*
X11786354Y40355210D01*
X11786047Y40003135D01*
X685000Y40003135D01*
X685000Y46277560D01*
X1767969Y46277560D01*
X1749697Y46270010D01*
X1356371Y45877370D01*
X1143243Y45364100D01*
X1142758Y44808339D01*
X1354990Y44294697D01*
X1747630Y43901371D01*
X2260900Y43688243D01*
X2816661Y43687758D01*
X3330303Y43899990D01*
X3723629Y44292630D01*
X3936757Y44805900D01*
X3937242Y45361661D01*
X3725010Y45875303D01*
X3332370Y46268629D01*
X2819100Y46481757D01*
X2435914Y46482091D01*
X2566431Y46673110D01*
X2617440Y46925000D01*
X2617440Y48325000D01*
X2573162Y48560317D01*
X2434090Y48776441D01*
X2221890Y48921431D01*
X1970000Y48972440D01*
X685000Y48972440D01*
X685000Y94577185D01*
X2864630Y94577185D01*
X3188980Y93792200D01*
X3789041Y93191091D01*
X4573459Y92865372D01*
X5422815Y92864630D01*
X6207800Y93188980D01*
X6808909Y93789041D01*
X7134628Y94573459D01*
X7135370Y95422815D01*
X6811020Y96207800D01*
X6210959Y96808909D01*
X5426541Y97134628D01*
X4577185Y97135370D01*
X3792200Y96811020D01*
X3191091Y96210959D01*
X2865372Y95426541D01*
X2864630Y94577185D01*
X685000Y94577185D01*
X685000Y99315000D01*
X99315000Y99315000D01*
X99315000Y67766168D01*
G36*
X66769900Y59143553D02*
X66769900Y37504200D01*
X66817480Y37265000D01*
X66825849Y37222928D01*
X66985177Y36984477D01*
X69230973Y34738680D01*
X69330408Y34498028D01*
X69565093Y34262934D01*
X69871879Y34135545D01*
X70204063Y34135255D01*
X70273900Y34164111D01*
X70273900Y34110729D01*
X70273755Y33944637D01*
X70400608Y33637628D01*
X70635293Y33402534D01*
X70942079Y33275145D01*
X71274263Y33274855D01*
X71581272Y33401708D01*
X71816366Y33636393D01*
X71943755Y33943179D01*
X71944045Y34275363D01*
X71943900Y34275714D01*
X71943900Y34749200D01*
X71880339Y35068741D01*
X71699334Y35339634D01*
X71386408Y35652560D01*
X73445000Y35652560D01*
X73680317Y35696838D01*
X73896441Y35835910D01*
X74041431Y36048110D01*
X74092440Y36300000D01*
X74092440Y37571498D01*
X74271093Y37392534D01*
X74497560Y37298496D01*
X74497560Y36300000D01*
X74541838Y36064683D01*
X74680910Y35848559D01*
X74893110Y35703569D01*
X75145000Y35652560D01*
X77061392Y35652560D01*
X71504566Y30095734D01*
X71323561Y29824841D01*
X71309159Y29752440D01*
X70745000Y29752440D01*
X70509683Y29708162D01*
X70293559Y29569090D01*
X70148569Y29356890D01*
X70097560Y29105000D01*
X70097560Y27836303D01*
X70058124Y27895323D01*
X63003626Y34949821D01*
X63042666Y34988793D01*
X63170055Y35295579D01*
X63170345Y35627763D01*
X63160099Y35652560D01*
X65145000Y35652560D01*
X65380317Y35696838D01*
X65596441Y35835910D01*
X65741431Y36048110D01*
X65792440Y36300000D01*
X65792440Y39900000D01*
X65748162Y40135317D01*
X65609090Y40351441D01*
X65396890Y40496431D01*
X65145000Y40547440D01*
X62445000Y40547440D01*
X62209683Y40503162D01*
X61993559Y40364090D01*
X61848569Y40151890D01*
X61797560Y39900000D01*
X61797560Y38885841D01*
X61725159Y38871439D01*
X61454266Y38690434D01*
X61273261Y38419541D01*
X61268557Y38395890D01*
X60452300Y39212146D01*
X60452300Y43783166D01*
X60680900Y43688243D01*
X61236661Y43687758D01*
X61750303Y43899990D01*
X62143629Y44292630D01*
X62229949Y44500512D01*
X62314990Y44294697D01*
X62707630Y43901371D01*
X63220900Y43688243D01*
X63776661Y43687758D01*
X64290303Y43899990D01*
X64683629Y44292630D01*
X64896757Y44805900D01*
X64897242Y45361661D01*
X64685010Y45875303D01*
X64292370Y46268629D01*
X63779100Y46481757D01*
X63223339Y46482242D01*
X62709697Y46270010D01*
X62316371Y45877370D01*
X62230051Y45669488D01*
X62145010Y45875303D01*
X61752370Y46268629D01*
X61239100Y46481757D01*
X60683339Y46482242D01*
X60452300Y46386779D01*
X60452300Y64103166D01*
X60680900Y64008243D01*
X61236661Y64007758D01*
X61710083Y64203371D01*
X66769900Y59143553D01*
X66769900Y59143553D01*
G37*
X66769900Y59143553D02*
X66769900Y37504200D01*
X66817480Y37265000D01*
X66825849Y37222928D01*
X66985177Y36984477D01*
X69230973Y34738680D01*
X69330408Y34498028D01*
X69565093Y34262934D01*
X69871879Y34135545D01*
X70204063Y34135255D01*
X70273900Y34164111D01*
X70273900Y34110729D01*
X70273755Y33944637D01*
X70400608Y33637628D01*
X70635293Y33402534D01*
X70942079Y33275145D01*
X71274263Y33274855D01*
X71581272Y33401708D01*
X71816366Y33636393D01*
X71943755Y33943179D01*
X71944045Y34275363D01*
X71943900Y34275714D01*
X71943900Y34749200D01*
X71880339Y35068741D01*
X71699334Y35339634D01*
X71386408Y35652560D01*
X73445000Y35652560D01*
X73680317Y35696838D01*
X73896441Y35835910D01*
X74041431Y36048110D01*
X74092440Y36300000D01*
X74092440Y37571498D01*
X74271093Y37392534D01*
X74497560Y37298496D01*
X74497560Y36300000D01*
X74541838Y36064683D01*
X74680910Y35848559D01*
X74893110Y35703569D01*
X75145000Y35652560D01*
X77061392Y35652560D01*
X71504566Y30095734D01*
X71323561Y29824841D01*
X71309159Y29752440D01*
X70745000Y29752440D01*
X70509683Y29708162D01*
X70293559Y29569090D01*
X70148569Y29356890D01*
X70097560Y29105000D01*
X70097560Y27836303D01*
X70058124Y27895323D01*
X63003626Y34949821D01*
X63042666Y34988793D01*
X63170055Y35295579D01*
X63170345Y35627763D01*
X63160099Y35652560D01*
X65145000Y35652560D01*
X65380317Y35696838D01*
X65596441Y35835910D01*
X65741431Y36048110D01*
X65792440Y36300000D01*
X65792440Y39900000D01*
X65748162Y40135317D01*
X65609090Y40351441D01*
X65396890Y40496431D01*
X65145000Y40547440D01*
X62445000Y40547440D01*
X62209683Y40503162D01*
X61993559Y40364090D01*
X61848569Y40151890D01*
X61797560Y39900000D01*
X61797560Y38885841D01*
X61725159Y38871439D01*
X61454266Y38690434D01*
X61273261Y38419541D01*
X61268557Y38395890D01*
X60452300Y39212146D01*
X60452300Y43783166D01*
X60680900Y43688243D01*
X61236661Y43687758D01*
X61750303Y43899990D01*
X62143629Y44292630D01*
X62229949Y44500512D01*
X62314990Y44294697D01*
X62707630Y43901371D01*
X63220900Y43688243D01*
X63776661Y43687758D01*
X64290303Y43899990D01*
X64683629Y44292630D01*
X64896757Y44805900D01*
X64897242Y45361661D01*
X64685010Y45875303D01*
X64292370Y46268629D01*
X63779100Y46481757D01*
X63223339Y46482242D01*
X62709697Y46270010D01*
X62316371Y45877370D01*
X62230051Y45669488D01*
X62145010Y45875303D01*
X61752370Y46268629D01*
X61239100Y46481757D01*
X60683339Y46482242D01*
X60452300Y46386779D01*
X60452300Y64103166D01*
X60680900Y64008243D01*
X61236661Y64007758D01*
X61710083Y64203371D01*
X66769900Y59143553D01*
G36*
X73857335Y75311803D02*
X73696890Y75421431D01*
X73445000Y75472440D01*
X70745000Y75472440D01*
X70509683Y75428162D01*
X70293559Y75289090D01*
X70148569Y75076890D01*
X70097560Y74825000D01*
X70097560Y71225000D01*
X70141838Y70989683D01*
X70280910Y70773559D01*
X70493110Y70628569D01*
X70745000Y70577560D01*
X73445000Y70577560D01*
X73680317Y70621838D01*
X73896441Y70760910D01*
X74041431Y70973110D01*
X74092440Y71225000D01*
X74092440Y72239159D01*
X74164841Y72253561D01*
X74435734Y72434566D01*
X74497560Y72527095D01*
X74497560Y71400754D01*
X74394934Y71298307D01*
X74267545Y70991521D01*
X74267255Y70659337D01*
X74329001Y70509900D01*
X62568000Y70509900D01*
X62248459Y70446339D01*
X62046453Y70311363D01*
X61977566Y70265334D01*
X61806968Y70094736D01*
X61689134Y69977107D01*
X61561745Y69670321D01*
X61561455Y69338137D01*
X61688308Y69031128D01*
X61922993Y68796034D01*
X62229779Y68668645D01*
X62561963Y68668355D01*
X62868972Y68795208D01*
X62913742Y68839900D01*
X70556542Y68839900D01*
X70671108Y68562628D01*
X70905793Y68327534D01*
X71212579Y68200145D01*
X71544763Y68199855D01*
X71545114Y68200000D01*
X77446800Y68200000D01*
X77766341Y68263561D01*
X78037234Y68444566D01*
X81756535Y72163866D01*
X81873566Y72280693D01*
X82000955Y72587479D01*
X82001245Y72919663D01*
X81899247Y73166519D01*
X81982766Y73249893D01*
X82110155Y73556679D01*
X82110445Y73888863D01*
X81983592Y74195872D01*
X81748907Y74430966D01*
X81442121Y74558355D01*
X81109937Y74558645D01*
X80802928Y74431792D01*
X80567834Y74197107D01*
X80567688Y74196756D01*
X78492440Y72121508D01*
X78492440Y74825000D01*
X78448162Y75060317D01*
X78309090Y75276441D01*
X78096890Y75421431D01*
X77845000Y75472440D01*
X76379708Y75472440D01*
X77054468Y76147200D01*
X87766032Y76147200D01*
X86721141Y75102309D01*
X86609090Y75276441D01*
X86396890Y75421431D01*
X86145000Y75472440D01*
X83445000Y75472440D01*
X83209683Y75428162D01*
X82993559Y75289090D01*
X82848569Y75076890D01*
X82797560Y74825000D01*
X82797560Y71225000D01*
X82841838Y70989683D01*
X82980910Y70773559D01*
X83193110Y70628569D01*
X83445000Y70577560D01*
X84896692Y70577560D01*
X79266432Y64947300D01*
X78445000Y64947300D01*
X78125459Y64883739D01*
X77854566Y64702734D01*
X77673561Y64431841D01*
X77659159Y64359440D01*
X77095000Y64359440D01*
X76859683Y64315162D01*
X76643559Y64176090D01*
X76498569Y63963890D01*
X76447560Y63712000D01*
X76447560Y60112000D01*
X76491838Y59876683D01*
X76630910Y59660559D01*
X76843110Y59515569D01*
X77095000Y59464560D01*
X79795000Y59464560D01*
X80030317Y59508838D01*
X80246441Y59647910D01*
X80391431Y59860110D01*
X80442440Y60112000D01*
X80442440Y63712000D01*
X80434590Y63753722D01*
X80546600Y63865732D01*
X80546600Y59559396D01*
X80308928Y59461192D01*
X80073834Y59226507D01*
X80073688Y59226156D01*
X78734681Y57887149D01*
X78694592Y57984172D01*
X78459907Y58219266D01*
X78153121Y58346655D01*
X77820937Y58346945D01*
X77513928Y58220092D01*
X77278834Y57985407D01*
X77278688Y57985056D01*
X73946300Y54652668D01*
X73946300Y61998600D01*
X73946453Y62173865D01*
X73812004Y62499257D01*
X73687091Y62624388D01*
X73687090Y62624390D01*
X73687088Y62624391D01*
X73563267Y62748429D01*
X73238110Y62883446D01*
X72886035Y62883753D01*
X72560643Y62749304D01*
X72435512Y62624391D01*
X72435510Y62624390D01*
X72435509Y62624388D01*
X72311471Y62500567D01*
X72176454Y62175410D01*
X72176147Y61823335D01*
X72176300Y61822965D01*
X72176300Y53989099D01*
X72176147Y53813635D01*
X72310596Y53488243D01*
X72435509Y53363112D01*
X72435510Y53363110D01*
X72435512Y53363109D01*
X72559333Y53239071D01*
X72884490Y53104054D01*
X72962600Y53103986D01*
X72962600Y44013568D01*
X69754166Y40805134D01*
X69573161Y40534241D01*
X69509600Y40214700D01*
X69509600Y36538947D01*
X68239900Y37808646D01*
X68239900Y47101993D01*
X68330910Y46960559D01*
X68543110Y46815569D01*
X68795000Y46764560D01*
X71495000Y46764560D01*
X71730317Y46808838D01*
X71946441Y46947910D01*
X72091431Y47160110D01*
X72142440Y47412000D01*
X72142440Y51012000D01*
X72098162Y51247317D01*
X71959090Y51463441D01*
X71746890Y51608431D01*
X71495000Y51659440D01*
X68795000Y51659440D01*
X68559683Y51615162D01*
X68343559Y51476090D01*
X68239900Y51324380D01*
X68239900Y59448000D01*
X68183951Y59729272D01*
X68085454Y59876683D01*
X68024623Y59967724D01*
X62357201Y65635145D01*
X62357242Y65681661D01*
X62145010Y66195303D01*
X61778953Y66562000D01*
X63631420Y66562000D01*
X64643126Y65550294D01*
X64642758Y65128339D01*
X64854990Y64614697D01*
X65155000Y64314163D01*
X65155000Y64055005D01*
X65154999Y64055000D01*
X65205723Y63800000D01*
X65222367Y63716325D01*
X65308126Y63587977D01*
X65414210Y63429210D01*
X65895072Y62948348D01*
X65894769Y62600617D01*
X66097582Y62109771D01*
X66472796Y61733902D01*
X66963287Y61530232D01*
X67494383Y61529769D01*
X67985229Y61732582D01*
X68147560Y61894630D01*
X68147560Y60112000D01*
X68191838Y59876683D01*
X68330910Y59660559D01*
X68543110Y59515569D01*
X68795000Y59464560D01*
X71495000Y59464560D01*
X71730317Y59508838D01*
X71946441Y59647910D01*
X72091431Y59860110D01*
X72142440Y60112000D01*
X72142440Y63343667D01*
X72317509Y63460644D01*
X72368972Y63481908D01*
X72408728Y63521594D01*
X72409134Y63521866D01*
X72486232Y63598964D01*
X72604066Y63716593D01*
X72731455Y64023379D01*
X72731745Y64355563D01*
X72604892Y64662572D01*
X72370207Y64897666D01*
X72063421Y65025055D01*
X71731237Y65025345D01*
X71542353Y64947300D01*
X70145000Y64947300D01*
X69825459Y64883739D01*
X69554566Y64702734D01*
X69373561Y64431841D01*
X69359159Y64359440D01*
X68795000Y64359440D01*
X68559683Y64315162D01*
X68343559Y64176090D01*
X68198569Y63963890D01*
X68168345Y63814641D01*
X67987204Y63996098D01*
X67496713Y64199768D01*
X67146506Y64200073D01*
X66978576Y64368004D01*
X67223629Y64612630D01*
X67436757Y65125900D01*
X67437242Y65681661D01*
X67225010Y66195303D01*
X66832370Y66588629D01*
X66319100Y66801757D01*
X65894452Y66802128D01*
X64623790Y68072790D01*
X64494668Y68159066D01*
X64336675Y68264633D01*
X64280484Y68275810D01*
X63998000Y68332001D01*
X63997995Y68332000D01*
X47133779Y68332000D01*
X44354990Y71110790D01*
X44211150Y71206900D01*
X44067875Y71302633D01*
X44011232Y71313900D01*
X43729200Y71370001D01*
X43729195Y71370000D01*
X40392440Y71370000D01*
X40392440Y74825000D01*
X40348162Y75060317D01*
X40209090Y75276441D01*
X39996890Y75421431D01*
X39745000Y75472440D01*
X37045000Y75472440D01*
X36809683Y75428162D01*
X36593559Y75289090D01*
X36448569Y75076890D01*
X36397560Y74825000D01*
X36397560Y74036556D01*
X36172328Y73943492D01*
X35937234Y73708807D01*
X35809845Y73402021D01*
X35809555Y73069837D01*
X35809700Y73069486D01*
X35809700Y73025000D01*
X35873261Y72705459D01*
X36054266Y72434566D01*
X36325159Y72253561D01*
X36397560Y72239159D01*
X36397560Y71370000D01*
X34567440Y71370000D01*
X34567440Y71385000D01*
X34523162Y71620317D01*
X34384090Y71836441D01*
X34171890Y71981431D01*
X33920000Y72032440D01*
X33873624Y72032440D01*
X33837633Y72213375D01*
X33806680Y72259700D01*
X33645790Y72500490D01*
X33645787Y72500492D01*
X32947687Y73198593D01*
X33046431Y73343110D01*
X33097440Y73595000D01*
X33097440Y73606159D01*
X33111708Y73571628D01*
X33346393Y73336534D01*
X33653179Y73209145D01*
X33985363Y73208855D01*
X34292372Y73335708D01*
X34527466Y73570393D01*
X34628035Y73812589D01*
X36692346Y75876900D01*
X49022432Y75876900D01*
X48457335Y75311803D01*
X48296890Y75421431D01*
X48045000Y75472440D01*
X45345000Y75472440D01*
X45109683Y75428162D01*
X44893559Y75289090D01*
X44748569Y75076890D01*
X44697560Y74825000D01*
X44697560Y71225000D01*
X44741838Y70989683D01*
X44880910Y70773559D01*
X45093110Y70628569D01*
X45345000Y70577560D01*
X48045000Y70577560D01*
X48280317Y70621838D01*
X48496441Y70760910D01*
X48641431Y70973110D01*
X48692440Y71225000D01*
X48692440Y72239159D01*
X48764841Y72253561D01*
X49035734Y72434566D01*
X49097560Y72527095D01*
X49097560Y71225000D01*
X49141838Y70989683D01*
X49280910Y70773559D01*
X49493110Y70628569D01*
X49745000Y70577560D01*
X51766892Y70577560D01*
X51683832Y70494500D01*
X49703129Y70494500D01*
X49537037Y70494645D01*
X49230028Y70367792D01*
X48994934Y70133107D01*
X48867545Y69826321D01*
X48867255Y69494137D01*
X48994108Y69187128D01*
X49228793Y68952034D01*
X49535579Y68824645D01*
X49867763Y68824355D01*
X49868114Y68824500D01*
X52029700Y68824500D01*
X52349241Y68888061D01*
X52620134Y69069066D01*
X57397560Y73846492D01*
X57397560Y71225000D01*
X57441838Y70989683D01*
X57580910Y70773559D01*
X57793110Y70628569D01*
X58045000Y70577560D01*
X60745000Y70577560D01*
X60980317Y70621838D01*
X61196441Y70760910D01*
X61341431Y70973110D01*
X61392440Y71225000D01*
X61392440Y72202133D01*
X61533393Y72060934D01*
X61797560Y71951242D01*
X61797560Y71225000D01*
X61841838Y70989683D01*
X61980910Y70773559D01*
X62193110Y70628569D01*
X62445000Y70577560D01*
X65145000Y70577560D01*
X65380317Y70621838D01*
X65596441Y70760910D01*
X65741431Y70973110D01*
X65792440Y71225000D01*
X65792440Y74825000D01*
X65748162Y75060317D01*
X65609090Y75276441D01*
X65396890Y75421431D01*
X65145000Y75472440D01*
X63679708Y75472440D01*
X64954768Y76747500D01*
X75293032Y76747500D01*
X73857335Y75311803D01*
X73857335Y75311803D01*
G37*
X73857335Y75311803D02*
X73696890Y75421431D01*
X73445000Y75472440D01*
X70745000Y75472440D01*
X70509683Y75428162D01*
X70293559Y75289090D01*
X70148569Y75076890D01*
X70097560Y74825000D01*
X70097560Y71225000D01*
X70141838Y70989683D01*
X70280910Y70773559D01*
X70493110Y70628569D01*
X70745000Y70577560D01*
X73445000Y70577560D01*
X73680317Y70621838D01*
X73896441Y70760910D01*
X74041431Y70973110D01*
X74092440Y71225000D01*
X74092440Y72239159D01*
X74164841Y72253561D01*
X74435734Y72434566D01*
X74497560Y72527095D01*
X74497560Y71400754D01*
X74394934Y71298307D01*
X74267545Y70991521D01*
X74267255Y70659337D01*
X74329001Y70509900D01*
X62568000Y70509900D01*
X62248459Y70446339D01*
X62046453Y70311363D01*
X61977566Y70265334D01*
X61806968Y70094736D01*
X61689134Y69977107D01*
X61561745Y69670321D01*
X61561455Y69338137D01*
X61688308Y69031128D01*
X61922993Y68796034D01*
X62229779Y68668645D01*
X62561963Y68668355D01*
X62868972Y68795208D01*
X62913742Y68839900D01*
X70556542Y68839900D01*
X70671108Y68562628D01*
X70905793Y68327534D01*
X71212579Y68200145D01*
X71544763Y68199855D01*
X71545114Y68200000D01*
X77446800Y68200000D01*
X77766341Y68263561D01*
X78037234Y68444566D01*
X81756535Y72163866D01*
X81873566Y72280693D01*
X82000955Y72587479D01*
X82001245Y72919663D01*
X81899247Y73166519D01*
X81982766Y73249893D01*
X82110155Y73556679D01*
X82110445Y73888863D01*
X81983592Y74195872D01*
X81748907Y74430966D01*
X81442121Y74558355D01*
X81109937Y74558645D01*
X80802928Y74431792D01*
X80567834Y74197107D01*
X80567688Y74196756D01*
X78492440Y72121508D01*
X78492440Y74825000D01*
X78448162Y75060317D01*
X78309090Y75276441D01*
X78096890Y75421431D01*
X77845000Y75472440D01*
X76379708Y75472440D01*
X77054468Y76147200D01*
X87766032Y76147200D01*
X86721141Y75102309D01*
X86609090Y75276441D01*
X86396890Y75421431D01*
X86145000Y75472440D01*
X83445000Y75472440D01*
X83209683Y75428162D01*
X82993559Y75289090D01*
X82848569Y75076890D01*
X82797560Y74825000D01*
X82797560Y71225000D01*
X82841838Y70989683D01*
X82980910Y70773559D01*
X83193110Y70628569D01*
X83445000Y70577560D01*
X84896692Y70577560D01*
X79266432Y64947300D01*
X78445000Y64947300D01*
X78125459Y64883739D01*
X77854566Y64702734D01*
X77673561Y64431841D01*
X77659159Y64359440D01*
X77095000Y64359440D01*
X76859683Y64315162D01*
X76643559Y64176090D01*
X76498569Y63963890D01*
X76447560Y63712000D01*
X76447560Y60112000D01*
X76491838Y59876683D01*
X76630910Y59660559D01*
X76843110Y59515569D01*
X77095000Y59464560D01*
X79795000Y59464560D01*
X80030317Y59508838D01*
X80246441Y59647910D01*
X80391431Y59860110D01*
X80442440Y60112000D01*
X80442440Y63712000D01*
X80434590Y63753722D01*
X80546600Y63865732D01*
X80546600Y59559396D01*
X80308928Y59461192D01*
X80073834Y59226507D01*
X80073688Y59226156D01*
X78734681Y57887149D01*
X78694592Y57984172D01*
X78459907Y58219266D01*
X78153121Y58346655D01*
X77820937Y58346945D01*
X77513928Y58220092D01*
X77278834Y57985407D01*
X77278688Y57985056D01*
X73946300Y54652668D01*
X73946300Y61998600D01*
X73946453Y62173865D01*
X73812004Y62499257D01*
X73687091Y62624388D01*
X73687090Y62624390D01*
X73687088Y62624391D01*
X73563267Y62748429D01*
X73238110Y62883446D01*
X72886035Y62883753D01*
X72560643Y62749304D01*
X72435512Y62624391D01*
X72435510Y62624390D01*
X72435509Y62624388D01*
X72311471Y62500567D01*
X72176454Y62175410D01*
X72176147Y61823335D01*
X72176300Y61822965D01*
X72176300Y53989099D01*
X72176147Y53813635D01*
X72310596Y53488243D01*
X72435509Y53363112D01*
X72435510Y53363110D01*
X72435512Y53363109D01*
X72559333Y53239071D01*
X72884490Y53104054D01*
X72962600Y53103986D01*
X72962600Y44013568D01*
X69754166Y40805134D01*
X69573161Y40534241D01*
X69509600Y40214700D01*
X69509600Y36538947D01*
X68239900Y37808646D01*
X68239900Y47101993D01*
X68330910Y46960559D01*
X68543110Y46815569D01*
X68795000Y46764560D01*
X71495000Y46764560D01*
X71730317Y46808838D01*
X71946441Y46947910D01*
X72091431Y47160110D01*
X72142440Y47412000D01*
X72142440Y51012000D01*
X72098162Y51247317D01*
X71959090Y51463441D01*
X71746890Y51608431D01*
X71495000Y51659440D01*
X68795000Y51659440D01*
X68559683Y51615162D01*
X68343559Y51476090D01*
X68239900Y51324380D01*
X68239900Y59448000D01*
X68183951Y59729272D01*
X68085454Y59876683D01*
X68024623Y59967724D01*
X62357201Y65635145D01*
X62357242Y65681661D01*
X62145010Y66195303D01*
X61778953Y66562000D01*
X63631420Y66562000D01*
X64643126Y65550294D01*
X64642758Y65128339D01*
X64854990Y64614697D01*
X65155000Y64314163D01*
X65155000Y64055005D01*
X65154999Y64055000D01*
X65205723Y63800000D01*
X65222367Y63716325D01*
X65308126Y63587977D01*
X65414210Y63429210D01*
X65895072Y62948348D01*
X65894769Y62600617D01*
X66097582Y62109771D01*
X66472796Y61733902D01*
X66963287Y61530232D01*
X67494383Y61529769D01*
X67985229Y61732582D01*
X68147560Y61894630D01*
X68147560Y60112000D01*
X68191838Y59876683D01*
X68330910Y59660559D01*
X68543110Y59515569D01*
X68795000Y59464560D01*
X71495000Y59464560D01*
X71730317Y59508838D01*
X71946441Y59647910D01*
X72091431Y59860110D01*
X72142440Y60112000D01*
X72142440Y63343667D01*
X72317509Y63460644D01*
X72368972Y63481908D01*
X72408728Y63521594D01*
X72409134Y63521866D01*
X72486232Y63598964D01*
X72604066Y63716593D01*
X72731455Y64023379D01*
X72731745Y64355563D01*
X72604892Y64662572D01*
X72370207Y64897666D01*
X72063421Y65025055D01*
X71731237Y65025345D01*
X71542353Y64947300D01*
X70145000Y64947300D01*
X69825459Y64883739D01*
X69554566Y64702734D01*
X69373561Y64431841D01*
X69359159Y64359440D01*
X68795000Y64359440D01*
X68559683Y64315162D01*
X68343559Y64176090D01*
X68198569Y63963890D01*
X68168345Y63814641D01*
X67987204Y63996098D01*
X67496713Y64199768D01*
X67146506Y64200073D01*
X66978576Y64368004D01*
X67223629Y64612630D01*
X67436757Y65125900D01*
X67437242Y65681661D01*
X67225010Y66195303D01*
X66832370Y66588629D01*
X66319100Y66801757D01*
X65894452Y66802128D01*
X64623790Y68072790D01*
X64494668Y68159066D01*
X64336675Y68264633D01*
X64280484Y68275810D01*
X63998000Y68332001D01*
X63997995Y68332000D01*
X47133779Y68332000D01*
X44354990Y71110790D01*
X44211150Y71206900D01*
X44067875Y71302633D01*
X44011232Y71313900D01*
X43729200Y71370001D01*
X43729195Y71370000D01*
X40392440Y71370000D01*
X40392440Y74825000D01*
X40348162Y75060317D01*
X40209090Y75276441D01*
X39996890Y75421431D01*
X39745000Y75472440D01*
X37045000Y75472440D01*
X36809683Y75428162D01*
X36593559Y75289090D01*
X36448569Y75076890D01*
X36397560Y74825000D01*
X36397560Y74036556D01*
X36172328Y73943492D01*
X35937234Y73708807D01*
X35809845Y73402021D01*
X35809555Y73069837D01*
X35809700Y73069486D01*
X35809700Y73025000D01*
X35873261Y72705459D01*
X36054266Y72434566D01*
X36325159Y72253561D01*
X36397560Y72239159D01*
X36397560Y71370000D01*
X34567440Y71370000D01*
X34567440Y71385000D01*
X34523162Y71620317D01*
X34384090Y71836441D01*
X34171890Y71981431D01*
X33920000Y72032440D01*
X33873624Y72032440D01*
X33837633Y72213375D01*
X33806680Y72259700D01*
X33645790Y72500490D01*
X33645787Y72500492D01*
X32947687Y73198593D01*
X33046431Y73343110D01*
X33097440Y73595000D01*
X33097440Y73606159D01*
X33111708Y73571628D01*
X33346393Y73336534D01*
X33653179Y73209145D01*
X33985363Y73208855D01*
X34292372Y73335708D01*
X34527466Y73570393D01*
X34628035Y73812589D01*
X36692346Y75876900D01*
X49022432Y75876900D01*
X48457335Y75311803D01*
X48296890Y75421431D01*
X48045000Y75472440D01*
X45345000Y75472440D01*
X45109683Y75428162D01*
X44893559Y75289090D01*
X44748569Y75076890D01*
X44697560Y74825000D01*
X44697560Y71225000D01*
X44741838Y70989683D01*
X44880910Y70773559D01*
X45093110Y70628569D01*
X45345000Y70577560D01*
X48045000Y70577560D01*
X48280317Y70621838D01*
X48496441Y70760910D01*
X48641431Y70973110D01*
X48692440Y71225000D01*
X48692440Y72239159D01*
X48764841Y72253561D01*
X49035734Y72434566D01*
X49097560Y72527095D01*
X49097560Y71225000D01*
X49141838Y70989683D01*
X49280910Y70773559D01*
X49493110Y70628569D01*
X49745000Y70577560D01*
X51766892Y70577560D01*
X51683832Y70494500D01*
X49703129Y70494500D01*
X49537037Y70494645D01*
X49230028Y70367792D01*
X48994934Y70133107D01*
X48867545Y69826321D01*
X48867255Y69494137D01*
X48994108Y69187128D01*
X49228793Y68952034D01*
X49535579Y68824645D01*
X49867763Y68824355D01*
X49868114Y68824500D01*
X52029700Y68824500D01*
X52349241Y68888061D01*
X52620134Y69069066D01*
X57397560Y73846492D01*
X57397560Y71225000D01*
X57441838Y70989683D01*
X57580910Y70773559D01*
X57793110Y70628569D01*
X58045000Y70577560D01*
X60745000Y70577560D01*
X60980317Y70621838D01*
X61196441Y70760910D01*
X61341431Y70973110D01*
X61392440Y71225000D01*
X61392440Y72202133D01*
X61533393Y72060934D01*
X61797560Y71951242D01*
X61797560Y71225000D01*
X61841838Y70989683D01*
X61980910Y70773559D01*
X62193110Y70628569D01*
X62445000Y70577560D01*
X65145000Y70577560D01*
X65380317Y70621838D01*
X65596441Y70760910D01*
X65741431Y70973110D01*
X65792440Y71225000D01*
X65792440Y74825000D01*
X65748162Y75060317D01*
X65609090Y75276441D01*
X65396890Y75421431D01*
X65145000Y75472440D01*
X63679708Y75472440D01*
X64954768Y76747500D01*
X75293032Y76747500D01*
X73857335Y75311803D01*
G36*
X32135000Y77081879D02*
X31124210Y76071090D01*
X30932367Y75783975D01*
X30925322Y75748559D01*
X30898545Y75613942D01*
X30814683Y75598162D01*
X30598559Y75459090D01*
X30453569Y75246890D01*
X30402560Y74995000D01*
X30402560Y73595000D01*
X30446838Y73359683D01*
X30585910Y73143559D01*
X30798110Y72998569D01*
X30898094Y72978322D01*
X30911771Y72909566D01*
X30932367Y72806025D01*
X31077420Y72588937D01*
X31124210Y72518910D01*
X31744904Y71898217D01*
X31668559Y71849090D01*
X31523569Y71636890D01*
X31519433Y71616466D01*
X31350643Y71785551D01*
X30786670Y72019733D01*
X30176009Y72020265D01*
X29611629Y71787068D01*
X29209677Y71385818D01*
X28810643Y71785551D01*
X28246670Y72019733D01*
X27636009Y72020265D01*
X27071629Y71787068D01*
X26639449Y71355643D01*
X26405267Y70791670D01*
X26404735Y70181009D01*
X26637932Y69616629D01*
X27069357Y69184449D01*
X27633330Y68950267D01*
X28243991Y68949735D01*
X28379732Y69005822D01*
X30583643Y66801910D01*
X30203339Y66802242D01*
X29689697Y66590010D01*
X29296371Y66197370D01*
X29210051Y65989488D01*
X29125010Y66195303D01*
X28732370Y66588629D01*
X28219100Y66801757D01*
X27663339Y66802242D01*
X27149697Y66590010D01*
X26756371Y66197370D01*
X26670051Y65989488D01*
X26585010Y66195303D01*
X26192370Y66588629D01*
X25679100Y66801757D01*
X25123339Y66802242D01*
X25065927Y66778520D01*
X22697423Y69147023D01*
X22458972Y69306351D01*
X22434871Y69311145D01*
X22177700Y69362300D01*
X19282342Y69362300D01*
X19327440Y69585000D01*
X19327440Y71385000D01*
X19283162Y71620317D01*
X19144090Y71836441D01*
X18931890Y71981431D01*
X18680000Y72032440D01*
X18633624Y72032440D01*
X18597633Y72213375D01*
X18566680Y72259700D01*
X18405790Y72500490D01*
X18405787Y72500492D01*
X17707687Y73198593D01*
X17806431Y73343110D01*
X17857440Y73595000D01*
X17857440Y74995000D01*
X17813162Y75230317D01*
X17674090Y75446441D01*
X17461890Y75591431D01*
X17210000Y75642440D01*
X16929786Y75642440D01*
X32135000Y90847653D01*
X32135000Y77081879D01*
X32135000Y77081879D01*
G37*
X32135000Y77081879D02*
X31124210Y76071090D01*
X30932367Y75783975D01*
X30925322Y75748559D01*
X30898545Y75613942D01*
X30814683Y75598162D01*
X30598559Y75459090D01*
X30453569Y75246890D01*
X30402560Y74995000D01*
X30402560Y73595000D01*
X30446838Y73359683D01*
X30585910Y73143559D01*
X30798110Y72998569D01*
X30898094Y72978322D01*
X30911771Y72909566D01*
X30932367Y72806025D01*
X31077420Y72588937D01*
X31124210Y72518910D01*
X31744904Y71898217D01*
X31668559Y71849090D01*
X31523569Y71636890D01*
X31519433Y71616466D01*
X31350643Y71785551D01*
X30786670Y72019733D01*
X30176009Y72020265D01*
X29611629Y71787068D01*
X29209677Y71385818D01*
X28810643Y71785551D01*
X28246670Y72019733D01*
X27636009Y72020265D01*
X27071629Y71787068D01*
X26639449Y71355643D01*
X26405267Y70791670D01*
X26404735Y70181009D01*
X26637932Y69616629D01*
X27069357Y69184449D01*
X27633330Y68950267D01*
X28243991Y68949735D01*
X28379732Y69005822D01*
X30583643Y66801910D01*
X30203339Y66802242D01*
X29689697Y66590010D01*
X29296371Y66197370D01*
X29210051Y65989488D01*
X29125010Y66195303D01*
X28732370Y66588629D01*
X28219100Y66801757D01*
X27663339Y66802242D01*
X27149697Y66590010D01*
X26756371Y66197370D01*
X26670051Y65989488D01*
X26585010Y66195303D01*
X26192370Y66588629D01*
X25679100Y66801757D01*
X25123339Y66802242D01*
X25065927Y66778520D01*
X22697423Y69147023D01*
X22458972Y69306351D01*
X22434871Y69311145D01*
X22177700Y69362300D01*
X19282342Y69362300D01*
X19327440Y69585000D01*
X19327440Y71385000D01*
X19283162Y71620317D01*
X19144090Y71836441D01*
X18931890Y71981431D01*
X18680000Y72032440D01*
X18633624Y72032440D01*
X18597633Y72213375D01*
X18566680Y72259700D01*
X18405790Y72500490D01*
X18405787Y72500492D01*
X17707687Y73198593D01*
X17806431Y73343110D01*
X17857440Y73595000D01*
X17857440Y74995000D01*
X17813162Y75230317D01*
X17674090Y75446441D01*
X17461890Y75591431D01*
X17210000Y75642440D01*
X16929786Y75642440D01*
X32135000Y90847653D01*
X32135000Y77081879D01*
G36*
X16132560Y94885000D02*
X16176838Y94649683D01*
X16315910Y94433559D01*
X16528110Y94288569D01*
X16780000Y94237560D01*
X18780000Y94237560D01*
X19015317Y94281838D01*
X19231441Y94420910D01*
X19317240Y94546481D01*
X19970808Y93892913D01*
X19970810Y93892910D01*
X20257925Y93701067D01*
X20314116Y93689890D01*
X20596600Y93633699D01*
X20596605Y93633700D01*
X25366890Y93633700D01*
X25219069Y93538580D01*
X25074079Y93326380D01*
X25023070Y93074490D01*
X25023070Y91075510D01*
X25067348Y90840193D01*
X25206420Y90624069D01*
X25418620Y90479079D01*
X25670510Y90428070D01*
X27669490Y90428070D01*
X27904807Y90472348D01*
X28120931Y90611420D01*
X28265921Y90823620D01*
X28316930Y91075510D01*
X28316930Y93074490D01*
X28272652Y93309807D01*
X28133580Y93525931D01*
X27921380Y93670921D01*
X27669490Y93721930D01*
X26943599Y93721930D01*
X27199490Y93892910D01*
X27656826Y94350247D01*
X28243991Y94349735D01*
X28808371Y94582932D01*
X29210323Y94984182D01*
X29595000Y94598831D01*
X29595000Y93477847D01*
X29555345Y93461462D01*
X29095154Y93002073D01*
X28845794Y92401547D01*
X28845226Y91751306D01*
X29093538Y91150345D01*
X29552927Y90690154D01*
X29797183Y90588730D01*
X10924377Y71715923D01*
X10765049Y71477472D01*
X10709100Y71196200D01*
X10709100Y66689643D01*
X10439100Y66801757D01*
X9883339Y66802242D01*
X9369697Y66590010D01*
X8976371Y66197370D01*
X8890051Y65989488D01*
X8805010Y66195303D01*
X8412370Y66588629D01*
X7899100Y66801757D01*
X7343339Y66802242D01*
X7085000Y66695499D01*
X7085000Y74930000D01*
X7029051Y75211272D01*
X6985912Y75275834D01*
X6869723Y75449724D01*
X4500226Y77819220D01*
X4508268Y77838587D01*
X4508731Y78369086D01*
X4306146Y78859380D01*
X3931353Y79234827D01*
X3441413Y79438268D01*
X2911100Y79438731D01*
X2911100Y80374490D01*
X9148070Y80374490D01*
X9148070Y78375510D01*
X9192348Y78140193D01*
X9331420Y77924069D01*
X9543620Y77779079D01*
X9795510Y77728070D01*
X11794490Y77728070D01*
X12029807Y77772348D01*
X12245931Y77911420D01*
X12390921Y78123620D01*
X12441930Y78375510D01*
X12441930Y79051306D01*
X12970226Y79051306D01*
X13218538Y78450345D01*
X13677927Y77990154D01*
X14278453Y77740794D01*
X14928694Y77740226D01*
X15529655Y77988538D01*
X15989846Y78447927D01*
X16239206Y79048453D01*
X16239774Y79698694D01*
X15991462Y80299655D01*
X15532073Y80759846D01*
X15456604Y80791184D01*
X15788629Y81122630D01*
X16001757Y81635900D01*
X16002242Y82191661D01*
X15790010Y82705303D01*
X15397370Y83098629D01*
X15189488Y83184949D01*
X15395303Y83269990D01*
X15788629Y83662630D01*
X16001757Y84175900D01*
X16002242Y84731661D01*
X15790010Y85245303D01*
X15397370Y85638629D01*
X14884100Y85851757D01*
X14328339Y85852242D01*
X13814697Y85640010D01*
X13421371Y85247370D01*
X13208243Y84734100D01*
X13207758Y84178339D01*
X13419990Y83664697D01*
X13812630Y83271371D01*
X14020512Y83185051D01*
X13814697Y83100010D01*
X13421371Y82707370D01*
X13208243Y82194100D01*
X13207758Y81638339D01*
X13419990Y81124697D01*
X13752733Y80791372D01*
X13680345Y80761462D01*
X13220154Y80302073D01*
X12970794Y79701547D01*
X12970226Y79051306D01*
X12441930Y79051306D01*
X12441930Y80374490D01*
X12397652Y80609807D01*
X12258580Y80825931D01*
X12046380Y80970921D01*
X11794490Y81021930D01*
X9795510Y81021930D01*
X9560193Y80977652D01*
X9344069Y80838580D01*
X9199079Y80626380D01*
X9148070Y80374490D01*
X2911100Y80374490D01*
X2911100Y84180602D01*
X6869190Y84180602D01*
X7079686Y83671163D01*
X7469113Y83281056D01*
X7978184Y83069671D01*
X8529398Y83069190D01*
X9038837Y83279686D01*
X9428944Y83669113D01*
X9640329Y84178184D01*
X9640810Y84729398D01*
X9430314Y85238837D01*
X9040887Y85628944D01*
X8531816Y85840329D01*
X7980602Y85840810D01*
X7471163Y85630314D01*
X7081056Y85240887D01*
X6869671Y84731816D01*
X6869190Y84180602D01*
X2911100Y84180602D01*
X2911100Y84216754D01*
X6869523Y88175176D01*
X7028851Y88413628D01*
X7053899Y88539553D01*
X7774948Y89260602D01*
X21474190Y89260602D01*
X21684686Y88751163D01*
X22074113Y88361056D01*
X22583184Y88149671D01*
X23134398Y88149190D01*
X23643837Y88359686D01*
X24033944Y88749113D01*
X24245329Y89258184D01*
X24245810Y89809398D01*
X24035314Y90318837D01*
X23645887Y90708944D01*
X23136816Y90920329D01*
X22585602Y90920810D01*
X22076163Y90710314D01*
X21686056Y90320887D01*
X21474671Y89811816D01*
X21474190Y89260602D01*
X7774948Y89260602D01*
X15265147Y96750800D01*
X16132560Y96750800D01*
X16132560Y94885000D01*
X16132560Y94885000D01*
G37*
X16132560Y94885000D02*
X16176838Y94649683D01*
X16315910Y94433559D01*
X16528110Y94288569D01*
X16780000Y94237560D01*
X18780000Y94237560D01*
X19015317Y94281838D01*
X19231441Y94420910D01*
X19317240Y94546481D01*
X19970808Y93892913D01*
X19970810Y93892910D01*
X20257925Y93701067D01*
X20314116Y93689890D01*
X20596600Y93633699D01*
X20596605Y93633700D01*
X25366890Y93633700D01*
X25219069Y93538580D01*
X25074079Y93326380D01*
X25023070Y93074490D01*
X25023070Y91075510D01*
X25067348Y90840193D01*
X25206420Y90624069D01*
X25418620Y90479079D01*
X25670510Y90428070D01*
X27669490Y90428070D01*
X27904807Y90472348D01*
X28120931Y90611420D01*
X28265921Y90823620D01*
X28316930Y91075510D01*
X28316930Y93074490D01*
X28272652Y93309807D01*
X28133580Y93525931D01*
X27921380Y93670921D01*
X27669490Y93721930D01*
X26943599Y93721930D01*
X27199490Y93892910D01*
X27656826Y94350247D01*
X28243991Y94349735D01*
X28808371Y94582932D01*
X29210323Y94984182D01*
X29595000Y94598831D01*
X29595000Y93477847D01*
X29555345Y93461462D01*
X29095154Y93002073D01*
X28845794Y92401547D01*
X28845226Y91751306D01*
X29093538Y91150345D01*
X29552927Y90690154D01*
X29797183Y90588730D01*
X10924377Y71715923D01*
X10765049Y71477472D01*
X10709100Y71196200D01*
X10709100Y66689643D01*
X10439100Y66801757D01*
X9883339Y66802242D01*
X9369697Y66590010D01*
X8976371Y66197370D01*
X8890051Y65989488D01*
X8805010Y66195303D01*
X8412370Y66588629D01*
X7899100Y66801757D01*
X7343339Y66802242D01*
X7085000Y66695499D01*
X7085000Y74930000D01*
X7029051Y75211272D01*
X6985912Y75275834D01*
X6869723Y75449724D01*
X4500226Y77819220D01*
X4508268Y77838587D01*
X4508731Y78369086D01*
X4306146Y78859380D01*
X3931353Y79234827D01*
X3441413Y79438268D01*
X2911100Y79438731D01*
X2911100Y80374490D01*
X9148070Y80374490D01*
X9148070Y78375510D01*
X9192348Y78140193D01*
X9331420Y77924069D01*
X9543620Y77779079D01*
X9795510Y77728070D01*
X11794490Y77728070D01*
X12029807Y77772348D01*
X12245931Y77911420D01*
X12390921Y78123620D01*
X12441930Y78375510D01*
X12441930Y79051306D01*
X12970226Y79051306D01*
X13218538Y78450345D01*
X13677927Y77990154D01*
X14278453Y77740794D01*
X14928694Y77740226D01*
X15529655Y77988538D01*
X15989846Y78447927D01*
X16239206Y79048453D01*
X16239774Y79698694D01*
X15991462Y80299655D01*
X15532073Y80759846D01*
X15456604Y80791184D01*
X15788629Y81122630D01*
X16001757Y81635900D01*
X16002242Y82191661D01*
X15790010Y82705303D01*
X15397370Y83098629D01*
X15189488Y83184949D01*
X15395303Y83269990D01*
X15788629Y83662630D01*
X16001757Y84175900D01*
X16002242Y84731661D01*
X15790010Y85245303D01*
X15397370Y85638629D01*
X14884100Y85851757D01*
X14328339Y85852242D01*
X13814697Y85640010D01*
X13421371Y85247370D01*
X13208243Y84734100D01*
X13207758Y84178339D01*
X13419990Y83664697D01*
X13812630Y83271371D01*
X14020512Y83185051D01*
X13814697Y83100010D01*
X13421371Y82707370D01*
X13208243Y82194100D01*
X13207758Y81638339D01*
X13419990Y81124697D01*
X13752733Y80791372D01*
X13680345Y80761462D01*
X13220154Y80302073D01*
X12970794Y79701547D01*
X12970226Y79051306D01*
X12441930Y79051306D01*
X12441930Y80374490D01*
X12397652Y80609807D01*
X12258580Y80825931D01*
X12046380Y80970921D01*
X11794490Y81021930D01*
X9795510Y81021930D01*
X9560193Y80977652D01*
X9344069Y80838580D01*
X9199079Y80626380D01*
X9148070Y80374490D01*
X2911100Y80374490D01*
X2911100Y84180602D01*
X6869190Y84180602D01*
X7079686Y83671163D01*
X7469113Y83281056D01*
X7978184Y83069671D01*
X8529398Y83069190D01*
X9038837Y83279686D01*
X9428944Y83669113D01*
X9640329Y84178184D01*
X9640810Y84729398D01*
X9430314Y85238837D01*
X9040887Y85628944D01*
X8531816Y85840329D01*
X7980602Y85840810D01*
X7471163Y85630314D01*
X7081056Y85240887D01*
X6869671Y84731816D01*
X6869190Y84180602D01*
X2911100Y84180602D01*
X2911100Y84216754D01*
X6869523Y88175176D01*
X7028851Y88413628D01*
X7053899Y88539553D01*
X7774948Y89260602D01*
X21474190Y89260602D01*
X21684686Y88751163D01*
X22074113Y88361056D01*
X22583184Y88149671D01*
X23134398Y88149190D01*
X23643837Y88359686D01*
X24033944Y88749113D01*
X24245329Y89258184D01*
X24245810Y89809398D01*
X24035314Y90318837D01*
X23645887Y90708944D01*
X23136816Y90920329D01*
X22585602Y90920810D01*
X22076163Y90710314D01*
X21686056Y90320887D01*
X21474671Y89811816D01*
X21474190Y89260602D01*
X7774948Y89260602D01*
X15265147Y96750800D01*
X16132560Y96750800D01*
X16132560Y94885000D01*
G36*
X94336870Y79982086D02*
X94228261Y79819541D01*
X94164700Y79500000D01*
X94164700Y79225029D01*
X94164555Y79058937D01*
X94246426Y78860794D01*
X94064867Y78679235D01*
X93947034Y78561607D01*
X93819645Y78254821D01*
X93819355Y77922637D01*
X93942773Y77623941D01*
X93252135Y76933303D01*
X93151428Y76891692D01*
X93033665Y76774134D01*
X93033366Y76773934D01*
X93033168Y76773638D01*
X92916334Y76657007D01*
X92852468Y76503201D01*
X92852361Y76503041D01*
X92852324Y76502853D01*
X92788945Y76350221D01*
X92788655Y76018037D01*
X92915508Y75711028D01*
X93150193Y75475934D01*
X93456979Y75348545D01*
X93789163Y75348255D01*
X93888672Y75389371D01*
X93964759Y75404506D01*
X92222177Y73661923D01*
X92062849Y73423472D01*
X92006900Y73142200D01*
X92006900Y72274013D01*
X91947440Y72285841D01*
X91947440Y72800000D01*
X91908426Y73007342D01*
X91947440Y73200000D01*
X91947440Y73800000D01*
X91908426Y74007342D01*
X91947440Y74200000D01*
X91947440Y74800000D01*
X91903162Y75035317D01*
X91764090Y75251441D01*
X91551890Y75396431D01*
X91300000Y75447440D01*
X89700000Y75447440D01*
X89464683Y75403162D01*
X89358756Y75335000D01*
X89315568Y75335000D01*
X89561230Y75580662D01*
X89700000Y75552560D01*
X91300000Y75552560D01*
X91535317Y75596838D01*
X91751441Y75735910D01*
X91896431Y75948110D01*
X91947440Y76200000D01*
X91947440Y76800000D01*
X91908426Y77007342D01*
X91947440Y77200000D01*
X91947440Y77800000D01*
X91908426Y78007342D01*
X91947440Y78200000D01*
X91947440Y78800000D01*
X91945382Y78810938D01*
X92245172Y78934808D01*
X92480266Y79169493D01*
X92607655Y79476279D01*
X92607762Y79599104D01*
X92778063Y79598955D01*
X93068433Y79718933D01*
X93090693Y79696634D01*
X93397479Y79569245D01*
X93729663Y79568955D01*
X94036672Y79695808D01*
X94271766Y79930493D01*
X94271912Y79930844D01*
X94330018Y79988950D01*
X94336870Y79982086D01*
X94336870Y79982086D01*
G37*
X94336870Y79982086D02*
X94228261Y79819541D01*
X94164700Y79500000D01*
X94164700Y79225029D01*
X94164555Y79058937D01*
X94246426Y78860794D01*
X94064867Y78679235D01*
X93947034Y78561607D01*
X93819645Y78254821D01*
X93819355Y77922637D01*
X93942773Y77623941D01*
X93252135Y76933303D01*
X93151428Y76891692D01*
X93033665Y76774134D01*
X93033366Y76773934D01*
X93033168Y76773638D01*
X92916334Y76657007D01*
X92852468Y76503201D01*
X92852361Y76503041D01*
X92852324Y76502853D01*
X92788945Y76350221D01*
X92788655Y76018037D01*
X92915508Y75711028D01*
X93150193Y75475934D01*
X93456979Y75348545D01*
X93789163Y75348255D01*
X93888672Y75389371D01*
X93964759Y75404506D01*
X92222177Y73661923D01*
X92062849Y73423472D01*
X92006900Y73142200D01*
X92006900Y72274013D01*
X91947440Y72285841D01*
X91947440Y72800000D01*
X91908426Y73007342D01*
X91947440Y73200000D01*
X91947440Y73800000D01*
X91908426Y74007342D01*
X91947440Y74200000D01*
X91947440Y74800000D01*
X91903162Y75035317D01*
X91764090Y75251441D01*
X91551890Y75396431D01*
X91300000Y75447440D01*
X89700000Y75447440D01*
X89464683Y75403162D01*
X89358756Y75335000D01*
X89315568Y75335000D01*
X89561230Y75580662D01*
X89700000Y75552560D01*
X91300000Y75552560D01*
X91535317Y75596838D01*
X91751441Y75735910D01*
X91896431Y75948110D01*
X91947440Y76200000D01*
X91947440Y76800000D01*
X91908426Y77007342D01*
X91947440Y77200000D01*
X91947440Y77800000D01*
X91908426Y78007342D01*
X91947440Y78200000D01*
X91947440Y78800000D01*
X91945382Y78810938D01*
X92245172Y78934808D01*
X92480266Y79169493D01*
X92607655Y79476279D01*
X92607762Y79599104D01*
X92778063Y79598955D01*
X93068433Y79718933D01*
X93090693Y79696634D01*
X93397479Y79569245D01*
X93729663Y79568955D01*
X94036672Y79695808D01*
X94271766Y79930493D01*
X94271912Y79930844D01*
X94330018Y79988950D01*
X94336870Y79982086D01*
G36*
X26405267Y96191670D02*
X26404753Y95601332D01*
X26207120Y95403700D01*
X20963179Y95403700D01*
X19856090Y96510790D01*
X19667202Y96637000D01*
X19568975Y96702633D01*
X19512784Y96713810D01*
X19427440Y96730787D01*
X19427440Y96750800D01*
X26637438Y96750800D01*
X26405267Y96191670D01*
X26405267Y96191670D01*
G37*
X26405267Y96191670D02*
X26404753Y95601332D01*
X26207120Y95403700D01*
X20963179Y95403700D01*
X19856090Y96510790D01*
X19667202Y96637000D01*
X19568975Y96702633D01*
X19512784Y96713810D01*
X19427440Y96730787D01*
X19427440Y96750800D01*
X26637438Y96750800D01*
X26405267Y96191670D01*
M02*
